<?xml version="1.0" standalone="no"?>
<!DOCTYPE svg PUBLIC "-//W3C//DTD SVG 1.1//EN" "http://www.w3.org/Graphics/SVG/1.1/DTD/svg11.dtd" >
<svg xmlns="http://www.w3.org/2000/svg" xmlns:xlink="http://www.w3.org/1999/xlink" version="1.1">
<metadata>
Created by FontForge 20170731 at Tue Oct 15 17:57:31 2019
 By Aleksey,,,
Copyright (c) 2016 Premier League. All rights reserved.
</metadata>
<defs>
<font id="iCielPremierLeague-BoldCondensed" horiz-adv-x="0" >
  <font-face 
    font-family="iCiel Premier League Bold Cond"
    font-weight="700"
    font-stretch="condensed"
    units-per-em="1000"
    panose-1="2 11 8 4 2 2 3 2 2 4"
    ascent="800"
    descent="-200"
    x-height="526"
    cap-height="690"
    bbox="-606 -235 857 1131"
    underline-thickness="50"
    underline-position="-375"
    unicode-range="U+0020-FEFF"
  />
<missing-glyph horiz-adv-x="372" 
d="M0 0v760h372v-760h-372zM83 81h206v598h-206v-598z" />
    <glyph glyph-name="fi" unicode="fi" horiz-adv-x="506" 
d="M389 611q-34 0 -53 22q-21 23 -21 57t21 56q19 22 53 22q33 0 54 -22t21 -56t-20 -57q-21 -22 -55 -22zM64 0v421h-50v105h50v97q0 67 38 105t103 38q38 0 74 -17l-32 -100q-13 7 -27 7q-20 0 -29 -11t-9 -35v-84h77v-105h-77v-421h-118zM330 0v526h118v-526h-118z" />
    <glyph glyph-name="fl" unicode="fl" horiz-adv-x="506" 
d="M64 0v421h-50v105h50v97q0 67 38 105t103 38q38 0 74 -17l-32 -100q-13 7 -27 7q-20 0 -29 -11t-9 -35v-84h77v-105h-77v-421h-118zM330 0v760h118v-760h-118z" />
    <glyph glyph-name=".notdef" horiz-adv-x="372" 
d="M0 0v760h372v-760h-372zM83 81h206v598h-206v-598z" />
    <glyph glyph-name=".null" 
 />
    <glyph glyph-name="nonmarkingreturn" horiz-adv-x="168" 
 />
    <glyph glyph-name="space" unicode=" " horiz-adv-x="168" 
 />
    <glyph glyph-name="exclam" unicode="!" horiz-adv-x="249" 
d="M76 230l-27 460h150l-26 -460h-97zM124 -10q-38 0 -60 25q-23 25 -23 62q0 38 23 64q22 24 60 24q37 0 61 -24q23 -26 23 -64q0 -37 -23 -62q-24 -25 -61 -25z" />
    <glyph glyph-name="quotedbl" unicode="&#x22;" horiz-adv-x="384" 
d="M60 440l-19 250h128l-20 -250h-89zM232 440l-19 250h128l-20 -250h-89z" />
    <glyph glyph-name="numbersign" unicode="#" horiz-adv-x="542" 
d="M67 0l23 156h-79l15 106h79l24 166h-79l16 106h78l23 156h110l-22 -156h88l23 156h110l-23 -156h78l-16 -106h-77l-24 -166h78l-16 -106h-77l-23 -156h-111l23 156h-88l-22 -156h-111zM216 262h87l25 166h-89z" />
    <glyph glyph-name="dollar" unicode="$" horiz-adv-x="400" 
d="M133 -70v83q-59 11 -105 51l62 101q17 -18 40 -29q22 -11 43 -11q33 0 50 16q18 17 18 45q0 40 -21 67q-22 25 -66 60q-32 24 -58 50q-22 22 -39 58q-16 33 -16 82q0 57 24 98q23 42 68 61v98h119v-85q60 -11 107 -58l-65 -95q-36 42 -76 42q-26 0 -39 -15
q-14 -16 -14 -41q0 -36 20 -61q18 -22 62 -55q35 -26 62 -52q24 -24 40 -60t16 -90q0 -60 -30 -103t-83 -63v-94h-119z" />
    <glyph glyph-name="percent" unicode="%" horiz-adv-x="615" 
d="M189 -33l-76 33l312 723l76 -33zM140 360q-56 0 -87 46q-32 47 -32 124t32 124q31 46 87 46t87 -46q32 -47 32 -124t-32 -124q-31 -46 -87 -46zM140 440q17 0 27 25q10 23 10 65t-10 66q-11 24 -27 24t-27 -24q-10 -24 -10 -66t10 -65q10 -25 27 -25zM475 -10
q-56 0 -87 46q-32 47 -32 124t32 124q31 46 87 46t87 -46q32 -47 32 -124t-32 -124q-31 -46 -87 -46zM475 70q17 0 27 25q9 24 9 65q0 40 -9 66q-10 24 -27 24t-27 -24q-11 -27 -11 -66q0 -40 11 -65q10 -25 27 -25z" />
    <glyph glyph-name="ampersand" unicode="&#x26;" horiz-adv-x="525" 
d="M212 -14q-88 0 -137 52t-49 145q0 59 22 103q21 45 71 83q-31 47 -40 80q-12 37 -12 77q0 48 18 88q16 39 53 65q34 25 87 25q78 0 118 -49q41 -50 41 -121q0 -53 -26 -97q-26 -45 -83 -85l84 -101q13 55 13 117h118q0 -119 -47 -218l75 -90l-87 -73l-56 68
q-71 -69 -163 -69zM214 428q31 23 42 47q12 25 12 56q0 27 -11 46q-12 18 -31 18q-21 0 -31 -19q-11 -20 -11 -56q0 -25 7 -45q6 -21 23 -47zM219 95q48 0 86 44l-123 149q-22 -20 -31 -45q-9 -24 -9 -57q0 -44 21 -67q19 -24 56 -24z" />
    <glyph glyph-name="quotesingle" unicode="'" horiz-adv-x="211" 
d="M60 440l-19 250h128l-20 -250h-89z" />
    <glyph glyph-name="parenleft" unicode="(" horiz-adv-x="326" 
d="M183 -210q-131 197 -131 485t131 485h114q-68 -96 -103 -221q-34 -121 -34 -264t34 -264q35 -125 103 -221h-114z" />
    <glyph glyph-name="parenright" unicode=")" horiz-adv-x="326" 
d="M28 -210q68 96 103 221q34 121 34 264t-34 264q-35 125 -103 221h114q131 -197 131 -485t-131 -485h-114z" />
    <glyph glyph-name="asterisk" unicode="*" horiz-adv-x="312" 
d="M114 345l-72 52l72 103l-99 25l27 87l88 -61l-18 139h88l-17 -139l87 61l27 -87l-99 -25l73 -103l-73 -52l-42 123z" />
    <glyph glyph-name="plus" unicode="+" horiz-adv-x="400" 
d="M153 93v168h-107v93h107v168h94v-168h106v-93h-106v-168h-94z" />
    <glyph glyph-name="comma" unicode="," horiz-adv-x="190" 
d="M-4 -150l35 293h142l-84 -293h-93z" />
    <glyph glyph-name="hyphen" unicode="-" horiz-adv-x="284" 
d="M27 247v116h230v-116h-230z" />
    <glyph glyph-name="period" unicode="." horiz-adv-x="240" 
d="M120 -10q-41 0 -64 26q-25 25 -25 66t25 66q24 25 64 25q39 0 64 -25q24 -26 24 -66t-24 -66q-25 -26 -64 -26z" />
    <glyph glyph-name="slash" unicode="/" horiz-adv-x="385" 
d="M-8 -210l276 970h125l-275 -970h-126z" />
    <glyph glyph-name="zero" unicode="0" horiz-adv-x="400" 
d="M199 -10q-84 0 -128 63q-45 61 -45 181v222q0 119 45 182q44 62 128 62q85 0 130 -62q44 -64 44 -182v-222q0 -119 -44 -181q-45 -63 -130 -63zM199 101q29 0 43 32q13 30 13 96v232q0 67 -13 97q-13 31 -43 31q-29 0 -42 -31q-14 -33 -14 -97v-232q0 -63 14 -96
q14 -32 42 -32z" />
    <glyph glyph-name="one" unicode="1" horiz-adv-x="400" 
d="M43 0v111h93v414l-93 -45v117l211 103v-589h100v-111h-311z" />
    <glyph glyph-name="two" unicode="2" horiz-adv-x="400" 
d="M24 0v30q0 63 18 112q16 47 42 82q24 33 65 77q38 42 53 61q17 23 32 57q13 30 13 71q0 48 -14 76q-14 26 -42 26q-25 0 -38 -24q-14 -27 -23 -83l-116 19q17 99 58 149q42 50 119 50q85 0 130 -58q45 -59 45 -155q0 -64 -18 -114q-19 -48 -45 -82q-23 -31 -68 -76
q-27 -27 -53 -57q-20 -24 -30 -52h222v-109h-350z" />
    <glyph glyph-name="three" unicode="3" horiz-adv-x="400" 
d="M182 -11q-126 0 -161 150l108 30q6 -35 18 -51q12 -17 35 -17q28 0 41 27q13 25 13 77q0 130 -85 130q-16 0 -29 -4v98l86 150h-165v111h290v-122l-80 -139q52 -24 77 -79q25 -54 25 -136q0 -103 -44 -164q-45 -61 -129 -61z" />
    <glyph glyph-name="four" unicode="4" horiz-adv-x="400" 
d="M225 0v171h-218v132l202 387h133v-408h51v-111h-51v-171h-117zM95 282h130v250z" />
    <glyph glyph-name="five" unicode="5" horiz-adv-x="400" 
d="M179 -10q-62 0 -97 34q-36 33 -57 99l102 36q9 -30 21 -44q11 -14 31 -14q33 0 48 31q14 31 14 86q0 60 -18 95q-19 34 -54 34q-14 0 -28 -8q-15 -10 -29 -28l-68 17l24 362h270v-109h-162l-8 -123h7q87 0 136 -63q49 -64 49 -165q0 -104 -47 -172q-48 -68 -134 -68z" />
    <glyph glyph-name="six" unicode="6" horiz-adv-x="400" 
d="M198 -10q-53 0 -93 32q-41 32 -60 86q-21 56 -21 123q0 69 21 134q18 59 76 173l76 152h127l-119 -232q78 -3 125 -68q46 -65 46 -164q0 -68 -21 -120q-21 -54 -61 -85t-96 -31zM199 99q28 0 42 35q13 33 13 91q0 56 -13 89q-13 34 -42 34q-25 0 -39 -32q-13 -32 -13 -87
q0 -59 13 -94q14 -36 39 -36z" />
    <glyph glyph-name="seven" unicode="7" horiz-adv-x="400" 
d="M21 0l213 579h-197v111h318v-119l-210 -571h-124z" />
    <glyph glyph-name="eight" unicode="8" horiz-adv-x="400" 
d="M198 -10q-82 0 -126 54q-43 53 -43 149q0 57 18 101q18 43 51 70q-23 23 -37 62t-14 85q0 88 39 139q38 50 112 50q75 0 114 -50q38 -52 38 -139q0 -49 -13 -85q-13 -38 -38 -62q33 -27 51 -70q18 -44 18 -101q0 -96 -43 -149q-43 -54 -127 -54zM199 414q40 0 40 89
q0 88 -40 88q-39 0 -39 -88q0 -89 39 -89zM199 99q27 0 37 27q10 26 10 78q0 50 -10 76q-11 26 -37 26q-25 0 -36 -26q-11 -28 -11 -76q0 -50 11 -78q11 -27 36 -27z" />
    <glyph glyph-name="nine" unicode="9" horiz-adv-x="400" 
d="M76 0l118 232q-79 4 -124 69q-46 64 -46 163q0 67 21 121q21 52 62 84q40 31 95 31t93 -31q39 -31 60 -87t21 -123t-20 -132q-20 -60 -77 -175l-77 -152h-126zM201 342q27 0 40 33q13 32 13 86q0 59 -13 94q-14 36 -40 36q-27 0 -41 -35q-13 -33 -13 -91q0 -57 13 -89
q13 -34 41 -34z" />
    <glyph glyph-name="colon" unicode=":" horiz-adv-x="240" 
d="M120 326q-40 0 -64 26q-25 25 -25 66t25 66q24 25 64 25q39 0 64 -25q24 -26 24 -66t-24 -66q-26 -26 -64 -26zM120 -10q-41 0 -64 26q-25 25 -25 66t25 66q24 25 64 25q39 0 64 -25q24 -26 24 -66t-24 -66q-25 -26 -64 -26z" />
    <glyph glyph-name="semicolon" unicode=";" horiz-adv-x="240" 
d="M120 326q-40 0 -64 26q-25 25 -25 66t25 66q24 25 64 25q39 0 64 -25q24 -26 24 -66t-24 -66q-26 -26 -64 -26zM16 -150l35 293h142l-84 -293h-93z" />
    <glyph glyph-name="less" unicode="&#x3c;" horiz-adv-x="400" 
d="M353 77l-307 173v115l307 173v-104l-222 -126v-1l222 -126v-104z" />
    <glyph glyph-name="equal" unicode="=" horiz-adv-x="400" 
d="M46 350v88h307v-88h-307zM46 176v88h307v-88h-307z" />
    <glyph glyph-name="greater" unicode="&#x3e;" horiz-adv-x="400" 
d="M46 77v104l222 126v1l-222 126v104l307 -173v-115z" />
    <glyph glyph-name="question" unicode="?" horiz-adv-x="370" 
d="M141 230l-6 127q52 11 77 46t25 93q0 96 -55 96q-26 0 -40 -23q-15 -26 -19 -77l-116 15q25 196 175 196q88 0 131 -58q44 -59 44 -157q0 -73 -32 -128q-33 -55 -84 -70l-4 -60h-96zM190 -10q-38 0 -60 25q-24 24 -24 62q0 39 24 64q22 24 60 24t60 -24q23 -26 23 -64
q0 -37 -23 -62q-22 -25 -60 -25z" />
    <glyph glyph-name="at" unicode="@" horiz-adv-x="641" 
d="M327 -123q-92 0 -158 45q-68 47 -102 134q-36 88 -36 213q0 117 33 215q33 97 100 155q66 57 162 57q88 0 152 -48q63 -47 98 -134q33 -87 33 -200q0 -125 -40 -186t-103 -61q-34 0 -54 17q-21 16 -30 47q-32 -65 -94 -65q-121 0 -121 205q0 66 17 122q17 55 47 85t69 30
t68 -35l2 27h99l-17 -277q-3 -35 6 -53q9 -19 24 -19q23 0 38 40q14 40 14 123q0 142 -54 226q-56 83 -154 83q-110 0 -166 -99q-56 -101 -56 -255q0 -153 59 -236q58 -83 164 -83q41 0 72 9q31 10 62 31l33 -62q-40 -25 -80 -39q-39 -12 -87 -12zM303 162q27 0 40 37
q14 39 14 98q0 53 -12 84q-13 31 -36 31t-35 -37t-12 -100q0 -57 10 -84q9 -29 31 -29z" />
    <glyph glyph-name="A" unicode="A" horiz-adv-x="537" 
d="M7 0l184 690h154l185 -690h-128l-41 162h-185l-41 -162h-128zM204 275h129l-64 257z" />
    <glyph glyph-name="B" unicode="B" horiz-adv-x="508" 
d="M63 0v690h195q85 0 137 -50q50 -52 50 -136q0 -50 -18 -87q-18 -38 -52 -60q51 -20 77 -62q27 -43 27 -105q0 -87 -51 -138q-51 -52 -139 -52h-226zM186 405h37q48 0 73 22t25 64t-25 64t-73 22h-37v-172zM186 114h67q50 0 76 23t26 66q0 44 -26 68q-28 23 -76 23h-67
v-180z" />
    <glyph glyph-name="C" unicode="C" horiz-adv-x="486" 
d="M301 -11q-85 0 -144 45q-59 44 -91 126q-31 78 -31 185q0 106 31 186q32 81 91 125q59 45 144 45q112 0 182 -76l-69 -94q-48 52 -110 52q-74 0 -110 -63t-36 -175t36 -175t110 -63q62 0 110 52l69 -94q-70 -76 -182 -76z" />
    <glyph glyph-name="D" unicode="D" horiz-adv-x="540" 
d="M63 0v690h156q145 0 216 -92q70 -92 70 -253t-70 -252q-71 -93 -216 -93h-156zM186 116h31q164 0 164 229t-164 229h-31v-458z" />
    <glyph glyph-name="E" unicode="E" horiz-adv-x="450" 
d="M63 0v690h356v-113h-233v-168h207v-111h-207v-185h233v-113h-356z" />
    <glyph glyph-name="F" unicode="F" horiz-adv-x="433" 
d="M63 0v690h349v-115h-226v-176h200v-115h-200v-284h-123z" />
    <glyph glyph-name="G" unicode="G" horiz-adv-x="560" 
d="M291 -11q-81 0 -139 45t-87 126q-30 79 -30 185t31 186q32 81 91 125q59 45 144 45q112 0 182 -76l-69 -94q-48 52 -110 52q-74 0 -110 -63t-36 -175q0 -113 33 -178q31 -64 99 -64q53 0 82 47t30 133h-118v113h240q5 -58 5 -101q0 -93 -30 -162q-30 -68 -84 -106
q-55 -38 -124 -38z" />
    <glyph glyph-name="H" unicode="H" horiz-adv-x="568" 
d="M63 0v690h123v-282h196v282h124v-690h-124v291h-196v-291h-123z" />
    <glyph glyph-name="I" unicode="I" horiz-adv-x="249" 
d="M63 0v690h123v-690h-123z" />
    <glyph glyph-name="J" unicode="J" horiz-adv-x="400" 
d="M133 -8q-88 0 -142 55l65 94q14 -15 31 -24q18 -9 38 -9q45 0 68 29q21 29 21 87v466h124v-471q0 -105 -54 -166q-55 -61 -151 -61z" />
    <glyph glyph-name="K" unicode="K" horiz-adv-x="518" 
d="M63 0v690h123v-281h30l159 281h138l-195 -337l207 -353h-139l-169 293h-31v-293h-123z" />
    <glyph glyph-name="L" unicode="L" horiz-adv-x="420" 
d="M63 0v690h123v-574h228v-116h-351z" />
    <glyph glyph-name="M" unicode="M" horiz-adv-x="669" 
d="M63 0v690h130l143 -227l142 227h129v-690h-121v498l-149 -235h-4l-148 234v-497h-122z" />
    <glyph glyph-name="N" unicode="N" horiz-adv-x="591" 
d="M63 0v690h138l204 -461v461h124v-690h-140l-203 459v-459h-123z" />
    <glyph glyph-name="O" unicode="O" horiz-adv-x="567" 
d="M283 -10q-79 0 -135 45q-55 45 -84 125q-29 81 -29 185t29 185q28 79 84 124t135 45t135 -45q57 -46 85 -124t28 -185t-28 -185q-28 -79 -85 -125q-56 -45 -135 -45zM284 106q64 0 94 64q30 63 30 175t-30 175t-94 63t-94 -63q-31 -63 -31 -175q0 -113 31 -175
q30 -64 94 -64z" />
    <glyph glyph-name="P" unicode="P" horiz-adv-x="493" 
d="M63 0v690h182q120 0 178 -61t58 -173q0 -113 -58 -174q-59 -62 -178 -62h-59v-220h-123zM186 337h46q126 0 126 119q0 118 -126 118h-46v-237z" />
    <glyph glyph-name="Q" unicode="Q" horiz-adv-x="567" 
d="M470 -28l-50 65q-59 -47 -137 -47q-79 0 -135 45q-55 45 -84 125q-29 81 -29 185t29 185q28 79 84 124t135 45t135 -45q57 -46 85 -124t28 -185q0 -135 -45 -223l67 -87zM284 106q40 0 65 24l-98 128l83 63l65 -85q9 48 9 109q0 112 -30 175t-94 63t-94 -63
q-31 -63 -31 -175q0 -113 31 -175q30 -64 94 -64z" />
    <glyph glyph-name="R" unicode="R" horiz-adv-x="509" 
d="M63 0v690h184q109 0 168 -59q58 -59 58 -167q0 -78 -31 -130q-31 -53 -94 -78l134 -256h-137l-125 239h-34v-239h-123zM185 348h48q59 0 88 30q29 29 29 84q0 114 -117 114h-48v-228z" />
    <glyph glyph-name="S" unicode="S" horiz-adv-x="436" 
d="M189 -11q-93 0 -161 54l59 101q18 -18 47 -29q28 -11 55 -11q39 0 61 22q23 21 23 57q0 30 -13 50q-14 23 -32 36q-23 18 -53 36q-42 25 -69 48q-28 23 -45 59q-19 35 -19 90q0 88 53 144q52 54 140 54q90 0 155 -62l-61 -96q-42 44 -92 44q-33 0 -51 -20
q-19 -20 -19 -53q0 -27 12 -47q13 -22 31 -34q20 -17 51 -35q40 -23 71 -48q25 -21 46 -61q19 -37 19 -95q0 -59 -26 -106q-25 -46 -73 -72q-46 -26 -109 -26z" />
    <glyph glyph-name="T" unicode="T" horiz-adv-x="470" 
d="M174 0v574h-164v116h450v-116h-163v-574h-123z" />
    <glyph glyph-name="U" unicode="U" horiz-adv-x="546" 
d="M273 -10q-65 0 -114 30q-50 30 -77 86t-27 128v456h123v-455q0 -62 26 -97t69 -35q45 0 71 35t26 97v455h122v-456q0 -72 -27 -128t-77 -86t-115 -30z" />
    <glyph glyph-name="V" unicode="V" horiz-adv-x="558" 
d="M202 0l-195 690h128l144 -544l144 544h129l-195 -690h-155z" />
    <glyph glyph-name="W" unicode="W" horiz-adv-x="827" 
d="M157 0l-150 690h122l111 -525l99 525h148l99 -525l111 525h122l-150 -690h-160l-96 505l-95 -505h-161z" />
    <glyph glyph-name="X" unicode="X" horiz-adv-x="525" 
d="M8 0l182 354l-174 336h135l112 -228l111 228h135l-174 -336l182 -354h-134l-120 249l-121 -249h-134z" />
    <glyph glyph-name="Y" unicode="Y" horiz-adv-x="510" 
d="M193 0v279l-186 411h136l112 -273l112 273h136l-187 -411v-279h-123z" />
    <glyph glyph-name="Z" unicode="Z" horiz-adv-x="450" 
d="M29 0v111l236 462h-228v117h365v-112l-237 -461h246v-117h-382z" />
    <glyph glyph-name="bracketleft" unicode="[" horiz-adv-x="295" 
d="M52 -210v970h214v-92h-106v-786h106v-92h-214z" />
    <glyph glyph-name="backslash" unicode="\" horiz-adv-x="385" 
d="M267 -210l-275 970h125l276 -970h-126z" />
    <glyph glyph-name="bracketright" unicode="]" horiz-adv-x="295" 
d="M28 -210v92h106v786h-106v92h214v-970h-214z" />
    <glyph glyph-name="asciicircum" unicode="^" horiz-adv-x="357" 
d="M4 359l113 331h124l113 -331h-110l-64 200h-2l-65 -200h-109z" />
    <glyph glyph-name="underscore" unicode="_" horiz-adv-x="350" 
d="M0 -199v107h350v-107h-350z" />
    <glyph glyph-name="grave" unicode="`" horiz-adv-x="600" 
d="M128 612l-98 153h134l79 -153h-115z" />
    <glyph glyph-name="a" unicode="a" horiz-adv-x="495" 
d="M211 -8q-85 0 -132 75q-48 73 -48 196q0 122 48 197q47 74 132 74q69 0 111 -57l10 49h105v-526h-105l-10 49q-42 -57 -111 -57zM233 101q39 0 63 41q23 41 23 115v11q0 74 -23 115q-24 41 -63 41q-42 0 -63 -44t-21 -117t21 -117q21 -45 63 -45z" />
    <glyph glyph-name="b" unicode="b" horiz-adv-x="495" 
d="M283 -8q-69 0 -111 57l-9 -49h-106v760h118v-280q41 54 108 54q85 0 133 -74q47 -76 47 -197q0 -122 -47 -196q-48 -75 -133 -75zM261 101q42 0 63 45q21 44 21 117t-21 117t-63 44q-39 0 -62 -41q-24 -41 -24 -115v-11q0 -75 24 -115q23 -41 62 -41z" />
    <glyph glyph-name="c" unicode="c" horiz-adv-x="375" 
d="M234 -8q-98 0 -150 75q-53 74 -53 196q0 121 53 197q53 74 150 74q86 0 138 -58l-65 -87q-31 34 -70 34q-43 0 -66 -42q-22 -43 -22 -118q0 -76 22 -117q22 -43 66 -43q41 0 71 34l65 -87q-52 -58 -139 -58z" />
    <glyph glyph-name="d" unicode="d" horiz-adv-x="495" 
d="M211 -8q-85 0 -132 75q-48 73 -48 196q0 122 48 197q47 74 132 74q69 0 109 -54v280h118v-349h-1v-411h-105l-10 49q-42 -57 -111 -57zM233 101q39 0 63 41q23 41 23 115v11q0 74 -23 115q-24 41 -63 41q-42 0 -63 -44t-21 -117t21 -117q21 -45 63 -45z" />
    <glyph glyph-name="e" unicode="e" horiz-adv-x="434" 
d="M240 -8q-101 0 -155 74t-54 197t49 197q50 74 138 74q87 0 137 -71q48 -72 48 -189q0 -28 -3 -55h-253q8 -58 31 -87q22 -31 67 -31q23 0 45 9q21 8 40 26l56 -88q-30 -28 -65 -41q-37 -15 -81 -15zM147 312h141q-7 121 -70 121q-64 0 -71 -121z" />
    <glyph glyph-name="f" unicode="f" horiz-adv-x="273" 
d="M64 0v421h-50v105h50v97q0 67 38 105t103 38q38 0 74 -17l-32 -100q-13 7 -27 7q-20 0 -29 -11t-9 -35v-84h77v-105h-77v-421h-118z" />
    <glyph glyph-name="g" unicode="g" horiz-adv-x="485" 
d="M216 -218q-86 0 -160 44l46 102q32 -20 58 -27q29 -8 56 -8q46 0 70 29q23 31 23 86v46q-41 -48 -102 -48q-83 0 -129 73q-47 73 -47 191t47 192q46 72 129 72q65 0 106 -53l9 45h105v-518q0 -109 -55 -167q-56 -59 -156 -59zM228 116q37 0 59 40q22 38 22 109v10
q0 70 -22 110q-23 39 -59 39q-40 0 -59 -42q-20 -43 -20 -112t20 -112q19 -42 59 -42z" />
    <glyph glyph-name="h" unicode="h" horiz-adv-x="487" 
d="M57 0v760h118v-273q41 47 106 47q71 0 111 -49q41 -50 41 -134v-351h-118v339q0 41 -16 63q-17 21 -46 21q-36 0 -57 -31q-21 -32 -21 -91v-301h-118z" />
    <glyph glyph-name="i" unicode="i" horiz-adv-x="233" 
d="M116 611q-34 0 -53 22q-21 23 -21 57t21 56q19 22 53 22q33 0 54 -22t21 -56t-20 -57q-21 -22 -55 -22zM57 0v526h118v-526h-118z" />
    <glyph glyph-name="j" unicode="j" horiz-adv-x="233" 
d="M116 611q-34 0 -53 22q-21 23 -21 57t21 56q19 22 53 22q33 0 54 -22t21 -56t-20 -57q-21 -22 -55 -22zM30 -218q-39 0 -72 15l37 103q13 -7 28 -7q34 0 34 48v585h118v-584q0 -73 -38 -117q-39 -43 -107 -43z" />
    <glyph glyph-name="k" unicode="k" horiz-adv-x="460" 
d="M57 0v760h118v-440h37l109 206h132l-142 -256h1l156 -270h-136l-116 214h-41v-214h-118z" />
    <glyph glyph-name="l" unicode="l" horiz-adv-x="233" 
d="M57 0v760h118v-760h-118z" />
    <glyph glyph-name="m" unicode="m" horiz-adv-x="716" 
d="M57 0v526h106l8 -45q41 53 106 53q40 0 71 -19q30 -20 48 -55q41 74 119 74q67 0 107 -49t40 -132v-353h-118v340q0 40 -15 62q-15 21 -40 21q-33 0 -51 -30q-19 -29 -19 -88l-1 4v-309h-118v340q0 40 -14 62q-14 21 -40 21q-33 0 -52 -30q-19 -29 -19 -88v-305h-118z
" />
    <glyph glyph-name="n" unicode="n" horiz-adv-x="487" 
d="M57 0v526h106l8 -44q40 52 110 52q71 0 111 -49q41 -50 41 -134v-351h-118v339q0 41 -16 63q-17 21 -46 21q-36 0 -57 -31q-21 -32 -21 -91v-301h-118z" />
    <glyph glyph-name="o" unicode="o" horiz-adv-x="456" 
d="M228 -8q-94 0 -145 74q-52 73 -52 197t52 197q51 74 145 74q93 0 146 -74q51 -75 51 -197q0 -123 -51 -196q-52 -75 -146 -75zM228 103q41 0 60 43q19 42 19 117t-19 117q-19 43 -60 43q-40 0 -59 -42q-20 -45 -20 -118q0 -74 20 -117q19 -43 59 -43z" />
    <glyph glyph-name="p" unicode="p" horiz-adv-x="495" 
d="M57 -210v736h106l9 -49q42 57 111 57q85 0 133 -74q47 -76 47 -197q0 -122 -47 -196q-48 -75 -133 -75q-66 0 -108 53v-255h-118zM261 101q42 0 63 45q21 44 21 117t-21 117t-63 44q-39 0 -62 -41q-24 -41 -24 -115v-11q0 -75 24 -115q23 -41 62 -41z" />
    <glyph glyph-name="q" unicode="q" horiz-adv-x="495" 
d="M320 -210v256q-40 -54 -109 -54q-85 0 -132 75q-48 73 -48 196q0 122 48 197q47 74 132 74q69 0 111 -57l10 49h105v-422h1v-314h-118zM233 101q39 0 63 41q23 41 23 115v11q0 74 -23 115q-24 41 -63 41q-42 0 -63 -44t-21 -117t21 -117q21 -45 63 -45z" />
    <glyph glyph-name="r" unicode="r" horiz-adv-x="312" 
d="M57 0v526h106l7 -41q45 49 99 49q11 0 28 -5v-123q-20 10 -49 10q-33 0 -53 -23t-20 -68v-325h-118z" />
    <glyph glyph-name="s" unicode="s" horiz-adv-x="363" 
d="M162 -8q-40 0 -72 11q-36 11 -61 30l52 97q17 -16 36 -24q19 -9 39 -9q24 0 39 12q14 12 14 33q0 27 -16 43q-15 15 -52 39q-36 24 -54 40q-20 18 -35 47t-15 68q0 69 43 112t113 43q74 0 130 -50l-56 -89q-31 34 -66 34q-21 0 -34 -11q-12 -12 -12 -31q0 -23 16 -38
q15 -16 49 -37q35 -23 55 -40q20 -18 37 -48q15 -30 15 -73q0 -72 -46 -115q-47 -44 -119 -44z" />
    <glyph glyph-name="t" unicode="t" horiz-adv-x="338" 
d="M225 -8q-71 0 -112 41t-41 112v276h-57v105h57v151h118v-151h129v-105h-129v-259q0 -59 49 -59q26 0 52 14l39 -99q-50 -26 -105 -26z" />
    <glyph glyph-name="u" unicode="u" horiz-adv-x="481" 
d="M241 -8q-85 0 -136 53t-51 143v338h118v-325q0 -47 19 -72q18 -26 50 -26t50 26q18 25 18 72v325h118v-338q0 -90 -51 -143t-135 -53z" />
    <glyph glyph-name="v" unicode="v" horiz-adv-x="473" 
d="M161 0l-153 526h120l109 -391l108 391h120l-153 -526h-151z" />
    <glyph glyph-name="w" unicode="w" horiz-adv-x="710" 
d="M140 0l-132 526h116l90 -369l79 369h124l79 -367l90 367h116l-133 -526h-142l-72 339l-73 -339h-142z" />
    <glyph glyph-name="x" unicode="x" horiz-adv-x="464" 
d="M8 0l155 270l-147 256h137l79 -152l80 152h137l-147 -256l155 -270h-137l-87 168l-88 -168h-137z" />
    <glyph glyph-name="y" unicode="y" horiz-adv-x="470" 
d="M109 -218q-33 0 -50 7l15 117q11 -4 30 -4q31 0 50 19q19 20 32 67l-178 538h120l116 -378l98 378h120l-159 -557q-28 -100 -76 -145q-48 -42 -118 -42z" />
    <glyph glyph-name="z" unicode="z" horiz-adv-x="380" 
d="M30 0v99l176 322h-168v105h305v-100l-177 -321h184v-105h-320z" />
    <glyph glyph-name="braceleft" unicode="{" horiz-adv-x="300" 
d="M249 -210q-81 0 -131 50t-50 134v172q0 38 -15 61q-16 22 -43 22v92q26 0 43 23q15 22 15 60v172q0 84 50 134t131 50h22v-92h-22q-35 0 -54 -24q-19 -25 -19 -68v-169q0 -43 -17 -79q-17 -33 -49 -53q32 -20 49 -53q17 -36 17 -79v-169q0 -43 19 -68q19 -24 54 -24h22
v-92h-22z" />
    <glyph glyph-name="bar" unicode="|" horiz-adv-x="214" 
d="M45 -210v970h123v-970h-123z" />
    <glyph glyph-name="braceright" unicode="}" horiz-adv-x="300" 
d="M28 -210v92h22q34 0 54 24q19 25 19 68v169q0 45 18 79q16 33 48 53q-32 20 -48 53q-18 34 -18 79v169q0 43 -19 68q-20 24 -54 24h-22v92h22q82 0 132 -50q49 -49 49 -134v-172q0 -38 16 -60q15 -23 42 -23v-92q-27 0 -42 -22q-16 -22 -16 -61v-172q0 -85 -49 -134
q-50 -50 -132 -50h-22z" />
    <glyph glyph-name="asciitilde" unicode="~" horiz-adv-x="409" 
d="M281 212q-31 0 -51 16q-19 15 -46 45q-23 25 -29 30q-11 8 -21 8q-18 0 -29 -24q-11 -27 -11 -65h-77q0 81 32 131t80 50q30 0 50 -16q19 -15 46 -45q15 -18 28 -29q11 -9 21 -9q18 0 30 26t12 65h76q0 -83 -31 -132q-31 -51 -80 -51z" />
    <glyph glyph-name="uni00A0" unicode="&#xa0;" horiz-adv-x="168" 
 />
    <glyph glyph-name="exclamdown" unicode="&#xa1;" horiz-adv-x="249" 
d="M124 360q-38 0 -60 25q-23 25 -23 63q0 37 23 63q22 25 60 25q37 0 61 -25q23 -26 23 -63q0 -38 -23 -63q-24 -25 -61 -25zM50 -164l26 459h97l27 -459h-150z" />
    <glyph glyph-name="cent" unicode="&#xa2;" horiz-adv-x="400" 
d="M177 0v102q-67 22 -103 92q-36 69 -36 169q0 99 36 169t103 92v66h119v-63q49 -14 83 -51l-65 -87q-31 34 -70 34q-44 0 -66 -42q-22 -43 -22 -118q0 -76 22 -117q22 -43 66 -43q41 0 71 34l65 -87q-34 -38 -84 -51v-99h-119z" />
    <glyph glyph-name="sterling" unicode="&#xa3;" horiz-adv-x="400" 
d="M19 0v109q27 7 40 34q12 27 12 75v71h-45v112h45v111q0 86 44 138q44 50 117 50q97 0 143 -94l-99 -59q-11 22 -21 32q-11 10 -26 10q-20 0 -29 -19q-9 -20 -9 -58v-111h111v-112h-111v-62q0 -72 -38 -116h218v-111h-352z" />
    <glyph glyph-name="currency" unicode="&#xa4;" horiz-adv-x="473" 
d="M101 -17l-77 81l69 83q-18 54 -18 114q0 65 20 117l-71 85l77 81l62 -75q32 22 73 22t73 -22l63 75l76 -81l-71 -86q20 -52 20 -116q0 -59 -18 -113l69 -84l-76 -81l-60 72q-33 -24 -76 -24t-76 24zM236 132q29 0 47 36q17 37 17 93q0 55 -17 94q-18 37 -47 37
q-28 0 -45 -36q-17 -37 -17 -95q0 -56 17 -93q17 -36 45 -36z" />
    <glyph glyph-name="yen" unicode="&#xa5;" horiz-adv-x="400" 
d="M138 0v148h-93v92h93v68h-93v92h71l-125 290h136l73 -229l72 229h136l-125 -290h71v-92h-93v-68h93v-92h-93v-148h-123z" />
    <glyph glyph-name="brokenbar" unicode="&#xa6;" horiz-adv-x="214" 
d="M45 410v350h123v-350h-123zM45 -210v350h123v-350h-123z" />
    <glyph glyph-name="section" unicode="&#xa7;" horiz-adv-x="376" 
d="M165 -108q-37 0 -67 10t-56 31l56 87q13 -13 29 -20q15 -7 33 -7q21 0 34 11q12 10 12 33t-16 40q-20 20 -51 43q-32 23 -56 46q-21 18 -38 51q-16 29 -16 70q0 45 21 80q18 32 59 62q-28 23 -43 54q-16 28 -16 68q0 68 40 109q39 41 104 41q67 0 120 -47l-57 -80
q-24 26 -55 26q-19 0 -28 -10q-10 -10 -10 -27q0 -19 15 -36q13 -15 49 -41q42 -31 58 -46q22 -22 39 -54q16 -32 16 -76q0 -100 -69 -150q48 -50 48 -114q0 -68 -42 -112q-43 -42 -113 -42zM194 225q33 30 33 68q0 25 -13 44q-11 16 -40 40q-31 -34 -31 -74q0 -23 13 -40
q16 -21 38 -38z" />
    <glyph glyph-name="dieresis" unicode="&#xa8;" horiz-adv-x="398" 
d="M100 616q-30 0 -50 21q-20 20 -20 53q0 31 20 53q20 20 50 20q31 0 51 -20q19 -20 19 -53q0 -34 -19 -53q-19 -21 -51 -21zM298 616q-30 0 -50 21q-20 20 -20 53q0 31 20 53q20 20 50 20q31 0 51 -20q19 -20 19 -53q0 -34 -19 -53q-19 -21 -51 -21z" />
    <glyph glyph-name="copyright" unicode="&#xa9;" horiz-adv-x="785" 
d="M392 -10q-104 0 -183 46q-81 45 -126 126q-46 79 -46 183t46 184q45 79 126 126q79 45 183 45q103 0 184 -45q80 -47 126 -126q45 -81 45 -184t-45 -183q-46 -81 -126 -126q-80 -46 -184 -46zM392 69q80 0 143 36q62 35 98 98q35 62 35 142q0 79 -35 143q-36 62 -98 98
q-64 35 -143 35q-80 0 -142 -35q-63 -36 -98 -98q-36 -63 -36 -143q0 -81 36 -142q35 -63 98 -98q62 -36 142 -36zM399 131q-62 0 -111 28q-49 27 -76 76q-28 47 -28 110q0 62 28 111q27 48 76 76q50 27 111 27q98 0 156 -67l-78 -77q-32 35 -79 35q-43 0 -72 -29
q-28 -28 -28 -76t28 -76q29 -29 72 -29q50 0 79 35l78 -77q-58 -67 -156 -67z" />
    <glyph glyph-name="ordfeminine" unicode="&#xaa;" horiz-adv-x="346" 
d="M143 339q-55 0 -86 49q-32 50 -32 130q0 79 32 129q31 49 86 49q41 0 67 -32l6 26h84v-346h-84l-6 27q-26 -32 -67 -32zM161 424q21 0 34 24q12 22 12 66v7q0 42 -12 66q-13 24 -34 24q-23 0 -33 -25q-11 -27 -11 -68t11 -68q11 -26 33 -26z" />
    <glyph glyph-name="guillemotleft" unicode="&#xab;" horiz-adv-x="571" 
d="M143 108l-112 197l112 197h150l-112 -197l112 -197h-150zM382 108l-112 197l112 197h150l-112 -197l112 -197h-150z" />
    <glyph glyph-name="logicalnot" unicode="&#xac;" horiz-adv-x="400" 
d="M263 132v218h-217v94h307v-312h-90z" />
    <glyph glyph-name="uni00AD" unicode="&#xad;" horiz-adv-x="284" 
d="M27 247v116h230v-116h-230z" />
    <glyph glyph-name="registered" unicode="&#xae;" horiz-adv-x="535" 
d="M267 240q-67 0 -119 30q-52 28 -81 81q-30 53 -30 119t30 119q28 52 81 82q53 29 119 29t119 -29q52 -30 82 -82q29 -53 29 -119t-29 -119q-30 -53 -82 -81q-52 -30 -119 -30zM268 301q74 0 122 48q47 47 47 121q0 73 -47 122q-49 47 -122 47q-74 0 -121 -47
q-48 -48 -48 -122t48 -121q47 -48 121 -48zM166 354v237h121q40 0 64 -24t24 -65q0 -30 -12 -49q-13 -20 -36 -31l53 -68h-83l-47 60h-16v-60h-68zM235 474h45q12 0 20 8t8 19q0 13 -7 20t-21 7h-45v-54z" />
    <glyph glyph-name="macron" unicode="&#xaf;" horiz-adv-x="287" 
d="M30 636v99h227v-99h-227z" />
    <glyph glyph-name="degree" unicode="&#xb0;" horiz-adv-x="356" 
d="M179 413q-38 0 -72 20q-33 19 -52 52q-20 34 -20 72q0 37 20 71t52 53t72 19q39 0 71 -19q33 -20 53 -53q19 -32 19 -71q0 -40 -19 -72t-53 -52t-71 -20zM178 479q32 0 55 23q22 22 22 55q0 32 -22 54q-23 23 -55 23q-31 0 -54 -23t-23 -54q0 -32 23 -55t54 -23z" />
    <glyph glyph-name="plusminus" unicode="&#xb1;" horiz-adv-x="400" 
d="M153 143v153h-107v92h107v152h94v-152h106v-92h-106v-153h-94zM46 0v91h307v-91h-307z" />
    <glyph glyph-name="uni00B2" unicode="&#xb2;" horiz-adv-x="265" 
d="M33 449v16q0 51 18 83q19 33 52 69q30 32 41 50q13 20 13 51q0 53 -29 53q-13 0 -20 -13q-8 -14 -12 -45l-69 11q9 56 33 84t68 28q48 0 74 -32t26 -86q0 -52 -19 -83q-20 -33 -55 -66q-17 -17 -29 -31q-9 -9 -16 -25h124v-64h-200z" />
    <glyph glyph-name="uni00B3" unicode="&#xb3;" horiz-adv-x="265" 
d="M123 443q-71 0 -91 83l64 18q3 -19 9 -26q6 -9 18 -9q15 0 21 13q6 14 6 40q0 35 -11 52t-35 17q-8 0 -15 -3v59l45 76h-90v65h165v-69l-44 -73q29 -14 42 -44q14 -33 14 -75q0 -58 -25 -90q-25 -34 -73 -34z" />
    <glyph glyph-name="acute" unicode="&#xb4;" horiz-adv-x="600" 
d="M30 612l79 153h134l-98 -153h-115z" />
    <glyph glyph-name="uni00B5" unicode="&#xb5;" horiz-adv-x="468" 
d="M57 -210v736h118v-340q0 -40 14 -62q13 -21 38 -21q30 0 48 31q17 31 17 89v303h118v-526h-105l-8 38q-34 -46 -88 -46q-14 0 -34 5v-207h-118z" />
    <glyph glyph-name="paragraph" unicode="&#xb6;" horiz-adv-x="533" 
d="M222 -117v336h-4q-54 0 -101 30q-47 28 -76 83q-29 53 -29 122t29 124q29 54 76 83t101 29h304v-98h-55v-709h-98v709h-50v-709h-97z" />
    <glyph glyph-name="periodcentered" unicode="&#xb7;" horiz-adv-x="240" 
d="M120 227q-40 0 -64 26q-25 25 -25 66t25 66q24 25 64 25q39 0 64 -25q24 -25 24 -66t-24 -66q-26 -26 -64 -26z" />
    <glyph glyph-name="cedilla" unicode="&#xb8;" horiz-adv-x="201" 
d="M30 -200l23 150h118l-51 -150h-90z" />
    <glyph glyph-name="uni00B9" unicode="&#xb9;" horiz-adv-x="264" 
d="M44 449v65h50v218l-50 -24v69l120 57v-320h56v-65h-176z" />
    <glyph glyph-name="ordmasculine" unicode="&#xba;" horiz-adv-x="311" 
d="M156 339q-63 0 -97 49q-34 47 -34 130q0 80 34 129t97 49q62 0 96 -49t34 -129q0 -81 -34 -130t-96 -49zM156 426q20 0 29 24q8 24 8 68q0 91 -37 91q-21 0 -30 -23q-9 -24 -9 -68q0 -46 9 -68q9 -24 30 -24z" />
    <glyph glyph-name="guillemotright" unicode="&#xbb;" horiz-adv-x="571" 
d="M38 108l112 197l-112 197h150l112 -197l-112 -197h-150zM278 108l112 197l-112 197h150l112 -197l-112 -197h-150z" />
    <glyph glyph-name="onequarter" unicode="&#xbc;" horiz-adv-x="655" 
d="M229 -33l-76 33l312 723l76 -33zM44 311v65h50v218l-50 -24v69l120 57v-320h56v-65h-176zM535 0v91h-121v77l112 211h78v-223h27v-65h-27v-91h-69zM466 156h69v132z" />
    <glyph glyph-name="onehalf" unicode="&#xbd;" horiz-adv-x="715" 
d="M229 -33l-76 33l312 723l76 -33zM44 311v65h50v218l-50 -24v69l120 57v-320h56v-65h-176zM483 0v16q0 52 18 83q19 33 52 69q30 32 41 50q13 20 13 51q0 53 -29 53q-13 0 -20 -13q-8 -13 -12 -45l-69 11q9 55 33 84q24 28 68 28q48 0 74 -32t26 -86q0 -52 -19 -83
q-20 -33 -55 -66q-17 -17 -29 -31q-9 -9 -16 -25h124v-64h-200z" />
    <glyph glyph-name="threequarters" unicode="&#xbe;" horiz-adv-x="676" 
d="M250 -33l-76 33l312 723l76 -33zM123 305q-71 0 -91 83l64 18q3 -19 9 -26q6 -9 18 -9q15 0 21 13q6 14 6 40q0 35 -11 52t-35 17q-8 0 -15 -3v59l45 76h-90v65h165v-69l-44 -73q29 -14 42 -44q14 -33 14 -75q0 -58 -25 -90q-25 -34 -73 -34zM556 0v91h-121v77l112 211
h78v-223h27v-65h-27v-91h-69zM487 156h69v132z" />
    <glyph glyph-name="questiondown" unicode="&#xbf;" horiz-adv-x="370" 
d="M181 360q-39 0 -61 25q-23 25 -23 63t24 63q22 25 60 25t60 -25q23 -26 23 -63q0 -38 -23 -63q-22 -25 -60 -25zM188 -178q-88 0 -131 58q-45 59 -45 158q0 72 33 128q31 54 83 69l4 60h96l7 -126q-51 -10 -77 -47t-26 -93q0 -96 56 -96q26 0 40 23q13 22 18 77l116 -14
q-10 -95 -55 -147q-44 -50 -119 -50z" />
    <glyph glyph-name="Agrave" unicode="&#xc0;" horiz-adv-x="537" 
d="M211 776l-98 153h134l79 -153h-115zM7 0l184 690h154l185 -690h-128l-41 162h-185l-41 -162h-128zM204 275h129l-64 257z" />
    <glyph glyph-name="Aacute" unicode="&#xc1;" horiz-adv-x="537" 
d="M218 776l79 153h134l-98 -153h-115zM7 0l184 690h154l185 -690h-128l-41 162h-185l-41 -162h-128zM204 275h129l-64 257z" />
    <glyph glyph-name="Acircumflex" unicode="&#xc2;" horiz-adv-x="537" 
d="M118 746l79 153h144l79 -153h-110l-41 79l-41 -79h-110zM7 0l184 690h154l185 -690h-128l-41 162h-185l-41 -162h-128zM204 275h129l-64 257z" />
    <glyph glyph-name="Atilde" unicode="&#xc3;" horiz-adv-x="537" 
d="M119 766q0 70 27 114q27 43 68 43q19 0 34 -9q20 -14 32 -26q12 -10 19 -14q8 -7 16 -7q25 0 25 56h79q0 -70 -27 -113q-27 -44 -68 -44q-20 0 -34 10q-18 11 -32 25l-18 15q-11 6 -17 6q-11 0 -19 -14q-7 -14 -7 -42h-78zM7 0l184 690h154l185 -690h-128l-41 162h-185
l-41 -162h-128zM204 275h129l-64 257z" />
    <glyph glyph-name="Adieresis" unicode="&#xc4;" horiz-adv-x="537" 
d="M169 723q-31 0 -50 21q-20 20 -20 53q0 31 20 53q20 20 50 20q31 0 51 -20q19 -20 19 -53q0 -34 -19 -53q-20 -21 -51 -21zM367 723q-31 0 -50 21q-20 20 -20 53q0 31 20 53q20 20 50 20q31 0 51 -20q19 -20 19 -53q0 -34 -19 -53q-20 -21 -51 -21zM7 0l184 690h154
l185 -690h-128l-41 162h-185l-41 -162h-128zM204 275h129l-64 257z" />
    <glyph glyph-name="Aring" unicode="&#xc5;" horiz-adv-x="537" 
d="M7 0l184 690h10q-21 15 -33 39t-12 51q0 46 33 79t80 33q46 0 79 -33t33 -79q0 -27 -12 -51t-33 -39h9l185 -690h-128l-41 162h-185l-41 -162h-128zM269 729q21 0 36 15t15 36q0 20 -15 36q-15 15 -36 15t-36 -15q-16 -15 -16 -36t15 -36t37 -15zM204 275h129l-64 257z
" />
    <glyph glyph-name="AE" unicode="&#xc6;" horiz-adv-x="717" 
d="M-7 0l253 690h439v-113h-198v-168h172v-111h-172v-185h198v-113h-320v182h-177l-63 -182h-132zM227 295h138v282h-41z" />
    <glyph glyph-name="Ccedilla" unicode="&#xc7;" horiz-adv-x="486" 
d="M301 -11q-85 0 -144 45q-59 44 -91 126q-31 78 -31 185q0 106 31 186q32 81 91 125q59 45 144 45q112 0 182 -76l-69 -94q-48 52 -110 52q-74 0 -110 -63t-36 -175t36 -175t110 -63q62 0 110 52l69 -94q-70 -76 -182 -76zM213 -200l23 150h118l-51 -150h-90z" />
    <glyph glyph-name="Egrave" unicode="&#xc8;" horiz-adv-x="450" 
d="M167 776l-98 153h134l79 -153h-115zM63 0v690h356v-113h-233v-168h207v-111h-207v-185h233v-113h-356z" />
    <glyph glyph-name="Eacute" unicode="&#xc9;" horiz-adv-x="450" 
d="M174 776l79 153h134l-98 -153h-115zM63 0v690h356v-113h-233v-168h207v-111h-207v-185h233v-113h-356z" />
    <glyph glyph-name="Ecircumflex" unicode="&#xca;" horiz-adv-x="450" 
d="M74 746l79 153h144l79 -153h-110l-41 79l-41 -79h-110zM63 0v690h356v-113h-233v-168h207v-111h-207v-185h233v-113h-356z" />
    <glyph glyph-name="Edieresis" unicode="&#xcb;" horiz-adv-x="450" 
d="M142 723q-30 0 -50 21q-20 20 -20 53q0 31 20 53q20 20 50 20q31 0 51 -20q19 -20 19 -53q0 -34 -19 -53q-19 -21 -51 -21zM340 723q-30 0 -50 21q-20 20 -20 53q0 31 20 53q20 20 50 20q31 0 51 -20q19 -20 19 -53q0 -34 -19 -53q-19 -21 -51 -21zM63 0v690h356v-113
h-233v-168h207v-111h-207v-185h233v-113h-356z" />
    <glyph glyph-name="Igrave" unicode="&#xcc;" horiz-adv-x="249" 
d="M67 776l-98 153h134l79 -153h-115zM63 0v690h123v-690h-123z" />
    <glyph glyph-name="Iacute" unicode="&#xcd;" horiz-adv-x="249" 
d="M74 776l79 153h134l-98 -153h-115zM63 0v690h123v-690h-123z" />
    <glyph glyph-name="Icircumflex" unicode="&#xce;" horiz-adv-x="249" 
d="M-24 727l78 145h141l77 -145h-106l-42 78l-42 -78h-106zM63 0v690h123v-690h-123z" />
    <glyph glyph-name="Idieresis" unicode="&#xcf;" horiz-adv-x="249" 
d="M24 723q-32 0 -51 21q-19 19 -19 53q0 33 19 53q20 20 51 20t51 -20q19 -20 19 -53q0 -34 -19 -53q-19 -21 -51 -21zM222 723q-30 0 -50 21q-20 20 -20 53q0 31 20 53q20 20 50 20q31 0 51 -20q19 -20 19 -53q0 -34 -19 -53q-19 -21 -51 -21zM63 0v690h123v-690h-123z
" />
    <glyph glyph-name="Eth" unicode="&#xd0;" horiz-adv-x="540" 
d="M63 0v295h-54v100h54v295h156q145 0 216 -92q70 -92 70 -253t-70 -252q-71 -93 -216 -93h-156zM186 116h31q164 0 164 229t-164 229h-31v-179h107v-100h-107v-179z" />
    <glyph glyph-name="Ntilde" unicode="&#xd1;" horiz-adv-x="591" 
d="M145 722q0 67 28 107q27 40 71 40q19 0 32 -7q14 -8 29 -20q7 -6 20 -14q8 -5 16 -5q25 0 25 46h79q0 -65 -27 -106q-29 -41 -72 -41q-19 0 -32 7q-14 7 -30 21q-4 4 -9 8q-2 1 -6.5 4t-6.5 4q-10 2 -13 2q-26 0 -26 -46h-78zM63 0v690h138l204 -461v461h124v-690h-140
l-203 459v-459h-123z" />
    <glyph glyph-name="Ograve" unicode="&#xd2;" horiz-adv-x="567" 
d="M226 776l-98 153h134l79 -153h-115zM283 -10q-79 0 -135 45q-55 45 -84 125q-29 81 -29 185t29 185q28 79 84 124t135 45t135 -45q57 -46 85 -124t28 -185t-28 -185q-28 -79 -85 -125q-56 -45 -135 -45zM284 106q64 0 94 64q30 63 30 175t-30 175t-94 63t-94 -63
q-31 -63 -31 -175q0 -113 31 -175q30 -64 94 -64z" />
    <glyph glyph-name="Oacute" unicode="&#xd3;" horiz-adv-x="567" 
d="M233 776l79 153h134l-98 -153h-115zM283 -10q-79 0 -135 45q-55 45 -84 125q-29 81 -29 185t29 185q28 79 84 124t135 45t135 -45q57 -46 85 -124t28 -185t-28 -185q-28 -79 -85 -125q-56 -45 -135 -45zM284 106q64 0 94 64q30 63 30 175t-30 175t-94 63t-94 -63
q-31 -63 -31 -175q0 -113 31 -175q30 -64 94 -64z" />
    <glyph glyph-name="Ocircumflex" unicode="&#xd4;" horiz-adv-x="567" 
d="M133 746l79 153h144l79 -153h-110l-41 79l-41 -79h-110zM283 -10q-79 0 -135 45q-55 45 -84 125q-29 81 -29 185t29 185q28 79 84 124t135 45t135 -45q57 -46 85 -124t28 -185t-28 -185q-28 -79 -85 -125q-56 -45 -135 -45zM284 106q64 0 94 64q30 63 30 175t-30 175
t-94 63t-94 -63q-31 -63 -31 -175q0 -113 31 -175q30 -64 94 -64z" />
    <glyph glyph-name="Otilde" unicode="&#xd5;" horiz-adv-x="567" 
d="M134 766q0 70 27 114q27 43 68 43q19 0 34 -9q20 -14 32 -26q12 -10 19 -14q8 -7 16 -7q25 0 25 56h79q0 -70 -27 -113q-27 -44 -68 -44q-20 0 -34 10q-17 11 -32 25l-18 15q-11 6 -17 6q-11 0 -19 -14q-7 -14 -7 -42h-78zM283 -10q-79 0 -135 45q-55 45 -84 125
q-29 81 -29 185t29 185q28 79 84 124t135 45t135 -45q57 -46 85 -124t28 -185t-28 -185q-28 -79 -85 -125q-56 -45 -135 -45zM284 106q64 0 94 64q30 63 30 175t-30 175t-94 63t-94 -63q-31 -63 -31 -175q0 -113 31 -175q30 -64 94 -64z" />
    <glyph glyph-name="Odieresis" unicode="&#xd6;" horiz-adv-x="567" 
d="M184 723q-30 0 -50 21q-20 20 -20 53q0 31 20 53q20 20 50 20q31 0 51 -20q19 -20 19 -53q0 -34 -19 -53q-19 -21 -51 -21zM382 723q-30 0 -50 21q-20 20 -20 53q0 31 20 53q20 20 50 20q31 0 51 -20q19 -20 19 -53q0 -34 -19 -53q-19 -21 -51 -21zM283 -10
q-79 0 -135 45q-55 45 -84 125q-29 81 -29 185t29 185q28 79 84 124t135 45t135 -45q57 -46 85 -124t28 -185t-28 -185q-28 -79 -85 -125q-56 -45 -135 -45zM284 106q64 0 94 64q30 63 30 175t-30 175t-94 63t-94 -63q-31 -63 -31 -175q0 -113 31 -175q30 -64 94 -64z" />
    <glyph glyph-name="multiply" unicode="&#xd7;" horiz-adv-x="400" 
d="M307 60l-107 163l-106 -162l-74 47l128 196l-128 195l74 48l107 -163l106 163l74 -48l-128 -195l128 -196z" />
    <glyph glyph-name="Oslash" unicode="&#xd8;" horiz-adv-x="567" 
d="M283 -10q-79 0 -135 45q-55 45 -84 125q-29 81 -29 185t29 185q28 79 84 124t135 45t135 -45q57 -46 85 -124t28 -185t-28 -185q-28 -79 -85 -125q-56 -45 -135 -45zM173 217l169 347q-22 19 -58 19q-64 0 -94 -63q-31 -63 -31 -175q0 -77 14 -128zM284 106q64 0 94 64
q30 63 30 175q0 77 -13 128l-171 -347q26 -20 60 -20z" />
    <glyph glyph-name="Ugrave" unicode="&#xd9;" horiz-adv-x="546" 
d="M215 776l-98 153h134l79 -153h-115zM273 -10q-65 0 -114 30q-50 30 -77 86t-27 128v456h123v-455q0 -62 26 -97t69 -35q45 0 71 35t26 97v455h122v-456q0 -72 -27 -128t-77 -86t-115 -30z" />
    <glyph glyph-name="Uacute" unicode="&#xda;" horiz-adv-x="546" 
d="M222 776l79 153h134l-98 -153h-115zM273 -10q-65 0 -114 30q-50 30 -77 86t-27 128v456h123v-455q0 -62 26 -97t69 -35q45 0 71 35t26 97v455h122v-456q0 -72 -27 -128t-77 -86t-115 -30z" />
    <glyph glyph-name="Ucircumflex" unicode="&#xdb;" horiz-adv-x="546" 
d="M126 727l78 145h141l77 -145h-106l-42 78l-42 -78h-106zM273 -10q-65 0 -114 30q-50 30 -77 86t-27 128v456h123v-455q0 -62 26 -97t69 -35q45 0 71 35t26 97v455h122v-456q0 -72 -27 -128t-77 -86t-115 -30z" />
    <glyph glyph-name="Udieresis" unicode="&#xdc;" horiz-adv-x="546" 
d="M174 723q-30 0 -50 21q-20 20 -20 53q0 31 20 53q20 20 50 20q31 0 51 -20q19 -20 19 -53q0 -34 -19 -53q-19 -21 -51 -21zM372 723q-30 0 -50 21q-20 20 -20 53q0 31 20 53q20 20 50 20q31 0 51 -20q19 -20 19 -53q0 -34 -19 -53q-19 -21 -51 -21zM273 -10
q-65 0 -114 30q-50 30 -77 86t-27 128v456h123v-455q0 -62 26 -97t69 -35q45 0 71 35t26 97v455h122v-456q0 -72 -27 -128t-77 -86t-115 -30z" />
    <glyph glyph-name="Yacute" unicode="&#xdd;" horiz-adv-x="510" 
d="M204 776l79 153h134l-98 -153h-115zM193 0v279l-186 411h136l112 -273l112 273h136l-187 -411v-279h-123z" />
    <glyph glyph-name="Thorn" unicode="&#xde;" horiz-adv-x="493" 
d="M63 0v690h123v-106h59q120 0 178 -61t58 -173t-58 -173q-59 -62 -178 -62h-59v-115h-123zM186 231h46q126 0 126 119q0 118 -126 118h-46v-237z" />
    <glyph glyph-name="germandbls" unicode="&#xdf;" horiz-adv-x="518" 
d="M298 -8q-52 0 -92 22l47 100q20 -13 41 -13q31 0 51 26q18 25 18 76q0 59 -26 94q-25 34 -85 42v109q30 21 44 50q13 25 13 65t-18 67q-19 27 -52 27q-31 0 -48 -23q-16 -23 -16 -81v-553h-118v553q0 73 25 120q26 49 66 71t89 22q59 0 103 -26q41 -24 65 -70
q22 -44 22 -99q0 -53 -14 -90q-15 -36 -50 -61q53 -23 86 -78q32 -56 32 -139q0 -95 -46 -153t-137 -58z" />
    <glyph glyph-name="agrave" unicode="&#xe0;" horiz-adv-x="495" 
d="M190 612l-98 153h134l79 -153h-115zM211 -8q-85 0 -132 75q-48 73 -48 196q0 122 48 197q47 74 132 74q69 0 111 -57l10 49h105v-526h-105l-10 49q-42 -57 -111 -57zM233 101q39 0 63 41q23 41 23 115v11q0 74 -23 115q-24 41 -63 41q-42 0 -63 -44t-21 -117t21 -117
q21 -45 63 -45z" />
    <glyph glyph-name="aacute" unicode="&#xe1;" horiz-adv-x="495" 
d="M197 612l79 153h134l-98 -153h-115zM211 -8q-85 0 -132 75q-48 73 -48 196q0 122 48 197q47 74 132 74q69 0 111 -57l10 49h105v-526h-105l-10 49q-42 -57 -111 -57zM233 101q39 0 63 41q23 41 23 115v11q0 74 -23 115q-24 41 -63 41q-42 0 -63 -44t-21 -117t21 -117
q21 -45 63 -45z" />
    <glyph glyph-name="acircumflex" unicode="&#xe2;" horiz-adv-x="495" 
d="M97 582l79 153h144l79 -153h-110l-41 79l-41 -79h-110zM211 -8q-85 0 -132 75q-48 73 -48 196q0 122 48 197q47 74 132 74q69 0 111 -57l10 49h105v-526h-105l-10 49q-42 -57 -111 -57zM233 101q39 0 63 41q23 41 23 115v11q0 74 -23 115q-24 41 -63 41q-42 0 -63 -44
t-21 -117t21 -117q21 -45 63 -45z" />
    <glyph glyph-name="atilde" unicode="&#xe3;" horiz-adv-x="495" 
d="M98 602q0 70 27 114q27 43 68 43q19 0 34 -9q20 -14 32 -26q12 -10 19 -14q8 -7 16 -7q25 0 25 56h79q0 -69 -27 -113t-68 -44q-20 0 -34 10q-17 10 -32 25l-18 15q-11 6 -17 6q-11 0 -19 -14q-7 -14 -7 -42h-78zM211 -8q-85 0 -132 75q-48 73 -48 196q0 122 48 197
q47 74 132 74q69 0 111 -57l10 49h105v-526h-105l-10 49q-42 -57 -111 -57zM233 101q39 0 63 41q23 41 23 115v11q0 74 -23 115q-24 41 -63 41q-42 0 -63 -44t-21 -117t21 -117q21 -45 63 -45z" />
    <glyph glyph-name="adieresis" unicode="&#xe4;" horiz-adv-x="495" 
d="M135 616q-31 0 -50 21q-20 20 -20 53q0 31 20 53q20 20 50 20q31 0 51 -20q19 -20 19 -53q0 -34 -19 -53q-20 -21 -51 -21zM333 616q-31 0 -50 21q-20 20 -20 53q0 31 20 53q20 20 50 20q31 0 51 -20q19 -20 19 -53q0 -34 -19 -53q-20 -21 -51 -21zM211 -8q-85 0 -132 75
q-48 73 -48 196q0 122 48 197q47 74 132 74q69 0 111 -57l10 49h105v-526h-105l-10 49q-42 -57 -111 -57zM233 101q39 0 63 41q23 41 23 115v11q0 74 -23 115q-24 41 -63 41q-42 0 -63 -44t-21 -117t21 -117q21 -45 63 -45z" />
    <glyph glyph-name="aring" unicode="&#xe5;" horiz-adv-x="495" 
d="M234 566q-48 0 -81 34q-33 33 -33 80t33 80t81 33q46 0 80 -33q33 -33 33 -80t-33 -80q-33 -34 -80 -34zM233 628q21 0 38 15q15 15 15 37q0 20 -15 37q-16 15 -38 15t-37 -15q-15 -17 -15 -37q0 -22 15 -37t37 -15zM211 -8q-85 0 -132 75q-48 73 -48 196q0 122 48 197
q47 74 132 74q69 0 111 -57l10 49h105v-526h-105l-10 49q-42 -57 -111 -57zM233 101q39 0 63 41q23 41 23 115v11q0 74 -23 115q-24 41 -63 41q-42 0 -63 -44t-21 -117t21 -117q21 -45 63 -45z" />
    <glyph glyph-name="ae" unicode="&#xe6;" horiz-adv-x="647" 
d="M180 -12q-74 0 -112 47q-39 47 -39 121q0 78 38 122t98 44q26 0 51 -11q23 -10 39 -31v44q0 46 -20 75q-19 27 -58 27q-21 0 -41 -9q-22 -11 -37 -29l-63 81q55 67 147 67q42 0 78 -17q34 -18 55 -51q46 66 122 66q85 0 132 -71q46 -71 46 -189q0 -28 -3 -55h-245
q15 -118 96 -118q42 0 80 35l55 -88q-56 -56 -140 -56q-47 0 -81 19q-35 17 -61 53q-23 -38 -57 -57t-80 -19zM368 312h133q-7 121 -63 121q-63 0 -70 -121zM200 88q25 0 40 20t15 53t-15 53q-15 19 -40 19q-24 0 -37 -19q-14 -20 -14 -53t14 -53t37 -20z" />
    <glyph glyph-name="ccedilla" unicode="&#xe7;" horiz-adv-x="375" 
d="M234 -8q-98 0 -150 75q-53 74 -53 196q0 121 53 197q53 74 150 74q86 0 138 -58l-65 -87q-31 34 -70 34q-43 0 -66 -42q-22 -43 -22 -118q0 -76 22 -117q22 -43 66 -43q41 0 71 34l65 -87q-52 -58 -139 -58zM141 -200l23 150h118l-51 -150h-90z" />
    <glyph glyph-name="egrave" unicode="&#xe8;" horiz-adv-x="434" 
d="M159 612l-98 153h134l79 -153h-115zM240 -8q-101 0 -155 74t-54 197t49 197q50 74 138 74q87 0 137 -71q48 -72 48 -189q0 -28 -3 -55h-253q8 -58 31 -87q22 -31 67 -31q23 0 45 9q21 8 40 26l56 -88q-30 -28 -65 -41q-37 -15 -81 -15zM147 312h141q-7 121 -70 121
q-64 0 -71 -121z" />
    <glyph glyph-name="eacute" unicode="&#xe9;" horiz-adv-x="434" 
d="M166 612l79 153h134l-98 -153h-115zM240 -8q-101 0 -155 74t-54 197t49 197q50 74 138 74q87 0 137 -71q48 -72 48 -189q0 -28 -3 -55h-253q8 -58 31 -87q22 -31 67 -31q23 0 45 9q21 8 40 26l56 -88q-30 -28 -65 -41q-37 -15 -81 -15zM147 312h141q-7 121 -70 121
q-64 0 -71 -121z" />
    <glyph glyph-name="ecircumflex" unicode="&#xea;" horiz-adv-x="434" 
d="M66 582l79 153h144l79 -153h-110l-41 79l-41 -79h-110zM240 -8q-101 0 -155 74t-54 197t49 197q50 74 138 74q87 0 137 -71q48 -72 48 -189q0 -28 -3 -55h-253q8 -58 31 -87q22 -31 67 -31q23 0 45 9q21 8 40 26l56 -88q-30 -28 -65 -41q-37 -15 -81 -15zM147 312h141
q-7 121 -70 121q-64 0 -71 -121z" />
    <glyph glyph-name="edieresis" unicode="&#xeb;" horiz-adv-x="434" 
d="M119 616q-31 0 -50 21q-20 20 -20 53q0 31 20 53q20 20 50 20q31 0 51 -20q19 -20 19 -53q0 -34 -19 -53q-20 -21 -51 -21zM317 616q-31 0 -50 21q-20 20 -20 53q0 31 20 53q20 20 50 20q31 0 51 -20q19 -20 19 -53q0 -34 -19 -53q-20 -21 -51 -21zM240 -8
q-101 0 -155 74t-54 197t49 197q50 74 138 74q87 0 137 -71q48 -72 48 -189q0 -28 -3 -55h-253q8 -58 31 -87q22 -31 67 -31q23 0 45 9q21 8 40 26l56 -88q-30 -28 -65 -41q-37 -15 -81 -15zM147 312h141q-7 121 -70 121q-64 0 -71 -121z" />
    <glyph glyph-name="igrave" unicode="&#xec;" horiz-adv-x="233" 
d="M59 612l-98 153h134l79 -153h-115zM57 0v526h118v-526h-118z" />
    <glyph glyph-name="iacute" unicode="&#xed;" horiz-adv-x="233" 
d="M66 612l79 153h134l-98 -153h-115zM57 0v526h118v-526h-118z" />
    <glyph glyph-name="icircumflex" unicode="&#xee;" horiz-adv-x="233" 
d="M-7 612l66 153h115l65 -153h-91l-32 74l-32 -74h-91zM57 0v526h118v-526h-118z" />
    <glyph glyph-name="idieresis" unicode="&#xef;" horiz-adv-x="233" 
d="M30 620q-29 0 -47 20t-18 50t18 50q19 19 47 19t47 -19q18 -20 18 -50t-18 -50t-47 -20zM199 620q-28 0 -46 20t-18 50t18 50q18 19 46 19q29 0 48 -19q18 -20 18 -50t-18 -50q-20 -20 -48 -20zM57 0v526h118v-526h-118z" />
    <glyph glyph-name="eth" unicode="&#xf0;" horiz-adv-x="427" 
d="M214 -10q-87 0 -135 70q-48 69 -48 178q0 68 20 125q20 56 57 89q37 32 83 32q18 0 31 -7q-19 45 -58 109l-81 -47l-42 71l78 46l-31 44l99 67l34 -52l70 41l43 -71l-71 -41q64 -111 97 -211q32 -102 32 -193q0 -115 -46 -182q-47 -68 -132 -68zM211 101q30 0 47 38
q16 36 16 102q0 62 -16 97q-17 35 -47 35q-29 0 -46 -36q-16 -36 -16 -100q0 -63 16 -99q16 -37 46 -37z" />
    <glyph glyph-name="ntilde" unicode="&#xf1;" horiz-adv-x="487" 
d="M92 602q0 70 27 114q27 43 68 43q19 0 34 -9q20 -14 32 -26q12 -10 19 -14q8 -7 16 -7q25 0 25 56h79q0 -69 -27 -113t-68 -44q-20 0 -34 10q-17 10 -32 25l-18 15q-11 6 -17 6q-11 0 -19 -14q-7 -14 -7 -42h-78zM57 0v526h106l8 -44q40 52 110 52q71 0 111 -49
q41 -50 41 -134v-351h-118v339q0 41 -16 63q-17 21 -46 21q-36 0 -57 -31q-21 -32 -21 -91v-301h-118z" />
    <glyph glyph-name="ograve" unicode="&#xf2;" horiz-adv-x="456" 
d="M170 612l-98 153h134l79 -153h-115zM228 -8q-94 0 -145 74q-52 73 -52 197t52 197q51 74 145 74q93 0 146 -74q51 -75 51 -197q0 -123 -51 -196q-52 -75 -146 -75zM228 103q41 0 60 43q19 42 19 117t-19 117q-19 43 -60 43q-40 0 -59 -42q-20 -45 -20 -118q0 -74 20 -117
q19 -43 59 -43z" />
    <glyph glyph-name="oacute" unicode="&#xf3;" horiz-adv-x="456" 
d="M177 612l79 153h134l-98 -153h-115zM228 -8q-94 0 -145 74q-52 73 -52 197t52 197q51 74 145 74q93 0 146 -74q51 -75 51 -197q0 -123 -51 -196q-52 -75 -146 -75zM228 103q41 0 60 43q19 42 19 117t-19 117q-19 43 -60 43q-40 0 -59 -42q-20 -45 -20 -118q0 -74 20 -117
q19 -43 59 -43z" />
    <glyph glyph-name="ocircumflex" unicode="&#xf4;" horiz-adv-x="456" 
d="M77 582l79 153h144l79 -153h-110l-41 79l-41 -79h-110zM228 -8q-94 0 -145 74q-52 73 -52 197t52 197q51 74 145 74q93 0 146 -74q51 -75 51 -197q0 -123 -51 -196q-52 -75 -146 -75zM228 103q41 0 60 43q19 42 19 117t-19 117q-19 43 -60 43q-40 0 -59 -42
q-20 -45 -20 -118q0 -74 20 -117q19 -43 59 -43z" />
    <glyph glyph-name="otilde" unicode="&#xf5;" horiz-adv-x="456" 
d="M78 602q0 70 27 114q27 43 68 43q19 0 34 -9q20 -14 32 -26q12 -10 19 -14q8 -7 16 -7q25 0 25 56h79q0 -69 -27 -113t-68 -44q-20 0 -34 10q-17 10 -32 25l-18 15q-11 6 -17 6q-11 0 -19 -14q-7 -14 -7 -42h-78zM228 -8q-94 0 -145 74q-52 73 -52 197t52 197
q51 74 145 74q93 0 146 -74q51 -75 51 -197q0 -123 -51 -196q-52 -75 -146 -75zM228 103q41 0 60 43q19 42 19 117t-19 117q-19 43 -60 43q-40 0 -59 -42q-20 -45 -20 -118q0 -74 20 -117q19 -43 59 -43z" />
    <glyph glyph-name="odieresis" unicode="&#xf6;" horiz-adv-x="456" 
d="M130 616q-30 0 -50 21q-20 20 -20 53q0 31 20 53q20 20 50 20q31 0 51 -20q19 -20 19 -53q0 -34 -19 -53q-19 -21 -51 -21zM328 616q-30 0 -50 21q-20 20 -20 53q0 31 20 53q20 20 50 20q31 0 51 -20q19 -20 19 -53q0 -34 -19 -53q-19 -21 -51 -21zM228 -8q-94 0 -145 74
q-52 73 -52 197t52 197q51 74 145 74q93 0 146 -74q51 -75 51 -197q0 -123 -51 -196q-52 -75 -146 -75zM228 103q41 0 60 43q19 42 19 117t-19 117q-19 43 -60 43q-40 0 -59 -42q-20 -45 -20 -118q0 -74 20 -117q19 -43 59 -43z" />
    <glyph glyph-name="divide" unicode="&#xf7;" horiz-adv-x="400" 
d="M189 417q-29 0 -45 19q-18 18 -18 47t18 47q16 18 45 18q28 0 46 -18q17 -19 17 -47t-17 -47q-18 -19 -46 -19zM46 261v93h307v-93h-307zM189 69q-29 0 -45 18q-18 18 -18 47q0 28 18 48q16 18 45 18q28 0 46 -18q17 -20 17 -48t-17 -47q-18 -18 -46 -18z" />
    <glyph glyph-name="oslash" unicode="&#xf8;" horiz-adv-x="456" 
d="M228 -8q-64 0 -108 35l-23 -33l-75 53l39 56q-30 66 -30 160q0 124 52 197q51 74 145 74q64 0 109 -36l24 34l75 -53l-41 -58q30 -66 30 -158q0 -123 -51 -196q-52 -75 -146 -75zM150 230l122 174q-19 19 -44 19q-40 0 -59 -42q-20 -45 -20 -118q0 -26 1 -33zM228 103
q41 0 60 43q19 42 19 117q0 24 -1 30l-121 -173q20 -17 43 -17z" />
    <glyph glyph-name="ugrave" unicode="&#xf9;" horiz-adv-x="481" 
d="M183 612l-98 153h134l79 -153h-115zM241 -8q-85 0 -136 53t-51 143v338h118v-325q0 -47 19 -72q18 -26 50 -26t50 26q18 25 18 72v325h118v-338q0 -90 -51 -143t-135 -53z" />
    <glyph glyph-name="uacute" unicode="&#xfa;" horiz-adv-x="481" 
d="M190 612l79 153h134l-98 -153h-115zM241 -8q-85 0 -136 53t-51 143v338h118v-325q0 -47 19 -72q18 -26 50 -26t50 26q18 25 18 72v325h118v-338q0 -90 -51 -143t-135 -53z" />
    <glyph glyph-name="ucircumflex" unicode="&#xfb;" horiz-adv-x="481" 
d="M88 612l79 153h144l79 -153h-110l-41 79l-41 -79h-110zM241 -8q-85 0 -136 53t-51 143v338h118v-325q0 -47 19 -72q18 -26 50 -26t50 26q18 25 18 72v325h118v-338q0 -90 -51 -143t-135 -53z" />
    <glyph glyph-name="udieresis" unicode="&#xfc;" horiz-adv-x="481" 
d="M141 616q-31 0 -50 21q-20 20 -20 53q0 31 20 53q20 20 50 20q31 0 51 -20q19 -20 19 -53q0 -34 -19 -53q-20 -21 -51 -21zM339 616q-31 0 -50 21q-20 20 -20 53q0 31 20 53q20 20 50 20q31 0 51 -20q19 -20 19 -53q0 -34 -19 -53q-20 -21 -51 -21zM241 -8q-85 0 -136 53
t-51 143v338h118v-325q0 -47 19 -72q18 -26 50 -26t50 26q18 25 18 72v325h118v-338q0 -90 -51 -143t-135 -53z" />
    <glyph glyph-name="yacute" unicode="&#xfd;" horiz-adv-x="470" 
d="M184 612l79 153h134l-98 -153h-115zM109 -218q-33 0 -50 7l15 117q11 -4 30 -4q31 0 50 19q19 20 32 67l-178 538h120l116 -378l98 378h120l-159 -557q-28 -100 -76 -145q-48 -42 -118 -42z" />
    <glyph glyph-name="thorn" unicode="&#xfe;" horiz-adv-x="495" 
d="M57 -210v970h118v-280q41 54 108 54q85 0 133 -74q47 -76 47 -197q0 -122 -47 -196q-48 -75 -133 -75q-66 0 -108 53v-255h-118zM261 101q42 0 63 45q21 44 21 117t-21 117t-63 44q-39 0 -62 -41q-24 -41 -24 -115v-11q0 -75 24 -115q23 -41 62 -41z" />
    <glyph glyph-name="ydieresis" unicode="&#xff;" horiz-adv-x="470" 
d="M136 616q-30 0 -50 21q-20 20 -20 53q0 31 20 53q20 20 50 20q31 0 51 -20q19 -20 19 -53q0 -34 -19 -53q-19 -21 -51 -21zM334 616q-30 0 -50 21q-20 20 -20 53q0 31 20 53q20 20 50 20q31 0 51 -20q19 -20 19 -53q0 -34 -19 -53q-19 -21 -51 -21zM109 -218q-33 0 -50 7
l15 117q11 -4 30 -4q31 0 50 19q19 20 32 67l-178 538h120l116 -378l98 378h120l-159 -557q-28 -100 -76 -145q-48 -42 -118 -42z" />
    <glyph glyph-name="Amacron" unicode="&#x100;" horiz-adv-x="537" 
d="M155 747v99h227v-99h-227zM7 0l184 690h154l185 -690h-128l-41 162h-185l-41 -162h-128zM204 275h129l-64 257z" />
    <glyph glyph-name="amacron" unicode="&#x101;" horiz-adv-x="495" 
d="M120 636v99h227v-99h-227zM211 -8q-85 0 -132 75q-48 73 -48 196q0 122 48 197q47 74 132 74q69 0 111 -57l10 49h105v-526h-105l-10 49q-42 -57 -111 -57zM233 101q39 0 63 41q23 41 23 115v11q0 74 -23 115q-24 41 -63 41q-42 0 -63 -44t-21 -117t21 -117
q21 -45 63 -45z" />
    <glyph glyph-name="Abreve" unicode="&#x102;" horiz-adv-x="537" 
d="M269 749q-57 0 -88 45q-32 44 -32 115h83q0 -68 37 -68q38 0 38 68h82q0 -73 -31 -116q-32 -44 -89 -44zM7 0l184 690h154l185 -690h-128l-41 162h-185l-41 -162h-128zM204 275h129l-64 257z" />
    <glyph glyph-name="abreve" unicode="&#x103;" horiz-adv-x="495" 
d="M248 585q-57 0 -88 45q-32 44 -32 115h83q0 -68 37 -68q38 0 38 68h82q0 -73 -31 -116q-32 -44 -89 -44zM211 -8q-85 0 -132 75q-48 73 -48 196q0 122 48 197q47 74 132 74q69 0 111 -57l10 49h105v-526h-105l-10 49q-42 -57 -111 -57zM233 101q39 0 63 41q23 41 23 115
v11q0 74 -23 115q-24 41 -63 41q-42 0 -63 -44t-21 -117t21 -117q21 -45 63 -45z" />
    <glyph glyph-name="Aogonek" unicode="&#x104;" horiz-adv-x="537" 
d="M456 -217q-44 0 -69 23q-25 24 -25 69q0 31 9 60q10 31 31 65l-41 162h-185l-41 -162h-128l184 690h154l185 -690h-5q-22 -33 -29 -53q-8 -21 -8 -42q0 -32 21 -32q9 0 15 3v-81q-27 -12 -68 -12zM204 275h129l-64 257z" />
    <glyph glyph-name="aogonek" unicode="&#x105;" horiz-adv-x="495" 
d="M370 -217q-44 0 -70 23q-25 24 -25 69q0 33 13 60q14 30 45 65h-1l-10 49q-42 -57 -111 -57q-85 0 -132 75q-48 73 -48 196q0 122 48 197q47 74 132 74q69 0 111 -57l10 49h105v-526h1q-20 -29 -28 -53q-8 -21 -8 -42q0 -32 20 -32q9 0 15 3v-81q-27 -12 -67 -12z
M233 101q39 0 63 41q23 41 23 115v11q0 74 -23 115q-24 41 -63 41q-42 0 -63 -44t-21 -117t21 -117q21 -45 63 -45z" />
    <glyph glyph-name="Cacute" unicode="&#x106;" horiz-adv-x="486" 
d="M198 727l79 145h130l-101 -145h-108zM301 -11q-85 0 -144 45q-59 44 -91 126q-31 78 -31 185q0 106 31 186q32 81 91 125q59 45 144 45q112 0 182 -76l-69 -94q-48 52 -110 52q-74 0 -110 -63t-36 -175t36 -175t110 -63q62 0 110 52l69 -94q-70 -76 -182 -76z" />
    <glyph glyph-name="cacute" unicode="&#x107;" horiz-adv-x="375" 
d="M126 612l79 153h134l-98 -153h-115zM234 -8q-98 0 -150 75q-53 74 -53 196q0 121 53 197q53 74 150 74q86 0 138 -58l-65 -87q-31 34 -70 34q-43 0 -66 -42q-22 -43 -22 -118q0 -76 22 -117q22 -43 66 -43q41 0 71 34l65 -87q-52 -58 -139 -58z" />
    <glyph glyph-name="Ccircumflex" unicode="&#x108;" horiz-adv-x="486" 
d="M136 727l78 145h141l77 -145h-106l-42 78l-42 -78h-106zM301 -11q-85 0 -144 45q-59 44 -91 126q-31 78 -31 185q0 106 31 186q32 81 91 125q59 45 144 45q112 0 182 -76l-69 -94q-48 52 -110 52q-74 0 -110 -63t-36 -175t36 -175t110 -63q62 0 110 52l69 -94
q-70 -76 -182 -76z" />
    <glyph glyph-name="ccircumflex" unicode="&#x109;" horiz-adv-x="375" 
d="M60 612l79 153h144l79 -153h-110l-41 79l-41 -79h-110zM234 -8q-98 0 -150 75q-53 74 -53 196q0 121 53 197q53 74 150 74q86 0 138 -58l-65 -87q-31 34 -70 34q-43 0 -66 -42q-22 -43 -22 -118q0 -76 22 -117q22 -43 66 -43q41 0 71 34l65 -87q-52 -58 -139 -58z" />
    <glyph glyph-name="Cdot" unicode="&#x10a;" horiz-adv-x="486" 
d="M284 718q-33 0 -52 22q-20 23 -20 57q0 33 20 56q19 22 52 22t52 -22q20 -23 20 -56q0 -34 -20 -57q-19 -22 -52 -22zM301 -11q-85 0 -144 45q-59 44 -91 126q-31 78 -31 185q0 106 31 186q32 81 91 125q59 45 144 45q112 0 182 -76l-69 -94q-48 52 -110 52
q-74 0 -110 -63t-36 -175t36 -175t110 -63q62 0 110 52l69 -94q-70 -76 -182 -76z" />
    <glyph glyph-name="cdot" unicode="&#x10b;" horiz-adv-x="375" 
d="M212 611q-34 0 -53 22q-21 23 -21 57t21 56q19 22 53 22q33 0 54 -22t21 -56t-20 -57q-21 -22 -55 -22zM234 -8q-98 0 -150 75q-53 74 -53 196q0 121 53 197q53 74 150 74q86 0 138 -58l-65 -87q-31 34 -70 34q-43 0 -66 -42q-22 -43 -22 -118q0 -76 22 -117
q22 -43 66 -43q41 0 71 34l65 -87q-52 -58 -139 -58z" />
    <glyph glyph-name="Ccaron" unicode="&#x10c;" horiz-adv-x="486" 
d="M214 727l-78 145h106l42 -78l42 78h106l-77 -145h-141zM301 -11q-85 0 -144 45q-59 44 -91 126q-31 78 -31 185q0 106 31 186q32 81 91 125q59 45 144 45q112 0 182 -76l-69 -94q-48 52 -110 52q-74 0 -110 -63t-36 -175t36 -175t110 -63q62 0 110 52l69 -94
q-70 -76 -182 -76z" />
    <glyph glyph-name="ccaron" unicode="&#x10d;" horiz-adv-x="375" 
d="M139 612l-79 153h110l41 -79l41 79h110l-79 -153h-144zM234 -8q-98 0 -150 75q-53 74 -53 196q0 121 53 197q53 74 150 74q86 0 138 -58l-65 -87q-31 34 -70 34q-43 0 -66 -42q-22 -43 -22 -118q0 -76 22 -117q22 -43 66 -43q41 0 71 34l65 -87q-52 -58 -139 -58z" />
    <glyph glyph-name="Dcaron" unicode="&#x10e;" horiz-adv-x="540" 
d="M202 727l-78 145h106l42 -78l42 78h106l-77 -145h-141zM63 0v690h156q145 0 216 -92q70 -92 70 -253t-70 -252q-71 -93 -216 -93h-156zM186 116h31q164 0 164 229t-164 229h-31v-458z" />
    <glyph glyph-name="dcaron" unicode="&#x10f;" horiz-adv-x="495" 
d="M211 -8q-85 0 -132 75q-48 73 -48 196q0 122 48 197q47 74 132 74q69 0 109 -54v280h118v-349h-1v-411h-105l-10 49q-42 -57 -111 -57zM459 587l23 173h120l-52 -173h-91zM233 101q39 0 63 41q23 41 23 115v11q0 74 -23 115q-24 41 -63 41q-42 0 -63 -44t-21 -117
t21 -117q21 -45 63 -45z" />
    <glyph glyph-name="Dcroat" unicode="&#x110;" horiz-adv-x="540" 
d="M63 0v295h-54v100h54v295h156q145 0 216 -92q70 -92 70 -253t-70 -252q-71 -93 -216 -93h-156zM186 116h31q164 0 164 229t-164 229h-31v-179h107v-100h-107v-179z" />
    <glyph glyph-name="dcroat" unicode="&#x111;" horiz-adv-x="495" 
d="M211 -8q-85 0 -132 75q-48 73 -48 196q0 122 48 197q47 74 132 74q69 0 109 -54v124h-111v92h111v64h118v-64h34v-92h-34v-193h-1v-411h-105l-10 49q-42 -57 -111 -57zM233 101q39 0 63 41q23 41 23 115v11q0 74 -23 115q-24 41 -63 41q-42 0 -63 -44t-21 -117t21 -117
q21 -45 63 -45z" />
    <glyph glyph-name="Emacron" unicode="&#x112;" horiz-adv-x="450" 
d="M128 747v99h227v-99h-227zM63 0v690h356v-113h-233v-168h207v-111h-207v-185h233v-113h-356z" />
    <glyph glyph-name="emacron" unicode="&#x113;" horiz-adv-x="434" 
d="M104 636v99h227v-99h-227zM240 -8q-101 0 -155 74t-54 197t49 197q50 74 138 74q87 0 137 -71q48 -72 48 -189q0 -28 -3 -55h-253q8 -58 31 -87q22 -31 67 -31q23 0 45 9q21 8 40 26l56 -88q-30 -28 -65 -41q-37 -15 -81 -15zM147 312h141q-7 121 -70 121q-64 0 -71 -121
z" />
    <glyph glyph-name="Ebreve" unicode="&#x114;" horiz-adv-x="450" 
d="M242 724q-57 0 -89 41q-31 40 -31 107h83q0 -56 37 -56q38 0 38 56h82q0 -66 -30 -107q-32 -41 -90 -41zM63 0v690h356v-113h-233v-168h207v-111h-207v-185h233v-113h-356z" />
    <glyph glyph-name="ebreve" unicode="&#x115;" horiz-adv-x="434" 
d="M218 605q-56 0 -88 45q-32 44 -32 115h83q0 -68 37 -68q38 0 38 68h82q0 -73 -31 -116q-32 -44 -89 -44zM240 -8q-101 0 -155 74t-54 197t49 197q50 74 138 74q87 0 137 -71q48 -72 48 -189q0 -28 -3 -55h-253q8 -58 31 -87q22 -31 67 -31q23 0 45 9q21 8 40 26l56 -88
q-30 -28 -65 -41q-37 -15 -81 -15zM147 312h141q-7 121 -70 121q-64 0 -71 -121z" />
    <glyph glyph-name="Edot" unicode="&#x116;" horiz-adv-x="450" 
d="M241 718q-34 0 -53 22q-21 22 -21 57q0 33 21 56q19 22 53 22q33 0 54 -22q21 -23 21 -56q0 -34 -20 -57q-21 -22 -55 -22zM63 0v690h356v-113h-233v-168h207v-111h-207v-185h233v-113h-356z" />
    <glyph glyph-name="edot" unicode="&#x117;" horiz-adv-x="434" 
d="M218 611q-34 0 -53 22q-21 23 -21 57t21 56q19 22 53 22q33 0 54 -22t21 -56t-20 -57q-21 -22 -55 -22zM240 -8q-101 0 -155 74t-54 197t49 197q50 74 138 74q87 0 137 -71q48 -72 48 -189q0 -28 -3 -55h-253q8 -58 31 -87q22 -31 67 -31q23 0 45 9q21 8 40 26l56 -88
q-30 -28 -65 -41q-37 -15 -81 -15zM147 312h141q-7 121 -70 121q-64 0 -71 -121z" />
    <glyph glyph-name="Eogonek" unicode="&#x118;" horiz-adv-x="450" 
d="M351 -217q-44 0 -70 23q-25 24 -25 69q0 33 13 60q15 32 44 65h-250v690h356v-113h-233v-168h207v-111h-207v-185h233v-113q-20 -29 -28 -53q-8 -21 -8 -42q0 -32 20 -32q9 0 15 3v-81q-27 -12 -67 -12z" />
    <glyph glyph-name="eogonek" unicode="&#x119;" horiz-adv-x="434" 
d="M293 -217q-48 0 -74 23q-26 24 -26 69q0 30 13 56q14 29 43 61h-9q-101 0 -155 74t-54 197t49 197q50 74 138 74q87 0 137 -71q48 -72 48 -189q0 -28 -3 -55h-253q8 -58 31 -87q22 -31 67 -31q23 0 45 9q21 8 40 26l56 -88l-1 -1l2 1q-36 -39 -51 -76q-16 -36 -16 -64
q0 -35 23 -35q13 0 20 4v-82q-28 -12 -70 -12zM147 312h141q-7 121 -70 121q-64 0 -71 -121z" />
    <glyph glyph-name="Ecaron" unicode="&#x11a;" horiz-adv-x="450" 
d="M172 727l-78 145h106l42 -78l42 78h106l-77 -145h-141zM63 0v690h356v-113h-233v-168h207v-111h-207v-185h233v-113h-356z" />
    <glyph glyph-name="ecaron" unicode="&#x11b;" horiz-adv-x="434" 
d="M145 612l-79 153h110l41 -79l41 79h110l-79 -153h-144zM240 -8q-101 0 -155 74t-54 197t49 197q50 74 138 74q87 0 137 -71q48 -72 48 -189q0 -28 -3 -55h-253q8 -58 31 -87q22 -31 67 -31q23 0 45 9q21 8 40 26l56 -88q-30 -28 -65 -41q-37 -15 -81 -15zM147 312h141
q-7 121 -70 121q-64 0 -71 -121z" />
    <glyph glyph-name="Gcircumflex" unicode="&#x11c;" horiz-adv-x="560" 
d="M133 727l78 145h141l77 -145h-106l-42 78l-42 -78h-106zM291 -11q-81 0 -139 45t-87 126q-30 79 -30 185t31 186q32 81 91 125q59 45 144 45q112 0 182 -76l-69 -94q-48 52 -110 52q-74 0 -110 -63t-36 -175q0 -113 33 -178q31 -64 99 -64q53 0 82 47t30 133h-118v113
h240q5 -58 5 -101q0 -93 -30 -162q-30 -68 -84 -106q-55 -38 -124 -38z" />
    <glyph glyph-name="gcircumflex" unicode="&#x11d;" horiz-adv-x="485" 
d="M88 612l79 153h144l79 -153h-110l-41 79l-41 -79h-110zM216 -218q-86 0 -160 44l46 102q32 -20 58 -27q29 -8 56 -8q46 0 70 29q23 31 23 86v46q-41 -48 -102 -48q-83 0 -129 73q-47 73 -47 191t47 192q46 72 129 72q65 0 106 -53l9 45h105v-518q0 -109 -55 -167
q-56 -59 -156 -59zM228 116q37 0 59 40q22 38 22 109v10q0 70 -22 110q-23 39 -59 39q-40 0 -59 -42q-20 -43 -20 -112t20 -112q19 -42 59 -42z" />
    <glyph glyph-name="Gbreve" unicode="&#x11e;" horiz-adv-x="560" 
d="M281 734q-57 0 -89 38q-31 37 -31 100h83q0 -46 37 -46q38 0 38 46h82q0 -62 -30 -100q-32 -38 -90 -38zM291 -11q-81 0 -139 45t-87 126q-30 79 -30 185t31 186q32 81 91 125q59 45 144 45q112 0 182 -76l-69 -94q-48 52 -110 52q-74 0 -110 -63t-36 -175
q0 -113 33 -178q31 -64 99 -64q53 0 82 47t30 133h-118v113h240q5 -58 5 -101q0 -93 -30 -162q-30 -68 -84 -106q-55 -38 -124 -38z" />
    <glyph glyph-name="gbreve" unicode="&#x11f;" horiz-adv-x="485" 
d="M240 605q-57 0 -88 45q-32 44 -32 115h83q0 -68 37 -68q38 0 38 68h82q0 -73 -31 -116q-32 -44 -89 -44zM216 -218q-86 0 -160 44l46 102q32 -20 58 -27q29 -8 56 -8q46 0 70 29q23 31 23 86v46q-41 -48 -102 -48q-83 0 -129 73q-47 73 -47 191t47 192q46 72 129 72
q65 0 106 -53l9 45h105v-518q0 -109 -55 -167q-56 -59 -156 -59zM228 116q37 0 59 40q22 38 22 109v10q0 70 -22 110q-23 39 -59 39q-40 0 -59 -42q-20 -43 -20 -112t20 -112q19 -42 59 -42z" />
    <glyph glyph-name="Gdot" unicode="&#x120;" horiz-adv-x="560" 
d="M281 718q-33 0 -52 22q-20 23 -20 57q0 33 20 56q19 22 52 22t52 -22q20 -23 20 -56q0 -34 -20 -57q-19 -22 -52 -22zM291 -11q-81 0 -139 45t-87 126q-30 79 -30 185t31 186q32 81 91 125q59 45 144 45q112 0 182 -76l-69 -94q-48 52 -110 52q-74 0 -110 -63t-36 -175
q0 -113 33 -178q31 -64 99 -64q53 0 82 47t30 133h-118v113h240q5 -58 5 -101q0 -93 -30 -162q-30 -68 -84 -106q-55 -38 -124 -38z" />
    <glyph glyph-name="gdot" unicode="&#x121;" horiz-adv-x="485" 
d="M240 611q-34 0 -53 22q-21 23 -21 57t21 56q19 22 53 22q33 0 54 -22t21 -56t-20 -57q-21 -22 -55 -22zM216 -218q-86 0 -160 44l46 102q32 -20 58 -27q29 -8 56 -8q46 0 70 29q23 31 23 86v46q-41 -48 -102 -48q-83 0 -129 73q-47 73 -47 191t47 192q46 72 129 72
q65 0 106 -53l9 45h105v-518q0 -109 -55 -167q-56 -59 -156 -59zM228 116q37 0 59 40q22 38 22 109v10q0 70 -22 110q-23 39 -59 39q-40 0 -59 -42q-20 -43 -20 -112t20 -112q19 -42 59 -42z" />
    <glyph glyph-name="uni0122" unicode="&#x122;" horiz-adv-x="560" 
d="M291 -11q-81 0 -139 45t-87 126q-30 79 -30 185t31 186q32 81 91 125q59 45 144 45q112 0 182 -76l-69 -94q-48 52 -110 52q-74 0 -110 -63t-36 -175q0 -113 33 -178q31 -64 99 -64q53 0 82 47t30 133h-118v113h240q5 -58 5 -101q0 -93 -30 -162q-30 -68 -84 -106
q-55 -38 -124 -38zM210 -200l23 150h118l-51 -150h-90z" />
    <glyph glyph-name="uni0123" unicode="&#x123;" horiz-adv-x="485" 
d="M170 615l61 150h80l-24 -150h-117zM216 -218q-86 0 -160 44l46 102q32 -20 58 -27q29 -8 56 -8q46 0 70 29q23 31 23 86v46q-41 -48 -102 -48q-83 0 -129 73q-47 73 -47 191t47 192q46 72 129 72q65 0 106 -53l9 45h105v-518q0 -109 -55 -167q-56 -59 -156 -59zM228 116
q37 0 59 40q22 38 22 109v10q0 70 -22 110q-23 39 -59 39q-40 0 -59 -42q-20 -43 -20 -112t20 -112q19 -42 59 -42z" />
    <glyph glyph-name="Hcircumflex" unicode="&#x124;" horiz-adv-x="568" 
d="M135 727l78 145h141l77 -145h-106l-42 78l-42 -78h-106zM63 0v690h123v-282h196v282h124v-690h-124v291h-196v-291h-123z" />
    <glyph glyph-name="hcircumflex" unicode="&#x125;" horiz-adv-x="487" 
d="M92 727l78 145h141l77 -145h-106l-42 78l-42 -78h-106zM57 0v690h118v-203q41 47 106 47q71 0 111 -49q41 -50 41 -134v-351h-118v339q0 41 -16 63q-17 21 -46 21q-36 0 -57 -31q-21 -32 -21 -91v-301h-118z" />
    <glyph glyph-name="Hbar" unicode="&#x126;" horiz-adv-x="575" 
d="M67 0v532h-34v80h34v78h123v-78h196v78h124v-78h33v-80h-33v-532h-124v291h-196v-291h-123zM190 408h196v124h-196v-124z" />
    <glyph glyph-name="hbar" unicode="&#x127;" horiz-adv-x="487" 
d="M57 0v604h-39v92h39v64h118v-64h106v-92h-106v-117q41 47 106 47q71 0 111 -49q41 -50 41 -134v-351h-118v339q0 41 -16 63q-17 21 -46 21q-36 0 -57 -31q-21 -32 -21 -91v-301h-118z" />
    <glyph glyph-name="Itilde" unicode="&#x128;" horiz-adv-x="249" 
d="M-25 766q0 70 27 114q27 43 68 43q19 0 34 -9q20 -14 32 -26q12 -10 19 -14q8 -7 16 -7q25 0 25 56h79q0 -70 -27 -113q-27 -44 -68 -44q-20 0 -34 10q-18 11 -32 25l-18 15q-10 6 -17 6q-11 0 -19 -14q-7 -14 -7 -42h-78zM63 0v690h123v-690h-123z" />
    <glyph glyph-name="itilde" unicode="&#x129;" horiz-adv-x="233" 
d="M-33 602q0 70 27 114q27 43 68 43q19 0 34 -9q20 -14 32 -26q12 -10 19 -14q8 -7 16 -7q25 0 25 56h79q0 -69 -27 -113t-68 -44q-20 0 -34 10q-17 10 -32 25l-18 15q-10 6 -17 6q-11 0 -19 -14q-7 -14 -7 -42h-78zM57 0v526h118v-526h-118z" />
    <glyph glyph-name="Imacron" unicode="&#x12a;" horiz-adv-x="249" 
d="M10 747v99h227v-99h-227zM63 0v690h123v-690h-123z" />
    <glyph glyph-name="imacron" unicode="&#x12b;" horiz-adv-x="233" 
d="M27 636v99h178v-99h-178zM57 0v526h118v-526h-118z" />
    <glyph glyph-name="Ibreve" unicode="&#x12c;" horiz-adv-x="249" 
d="M124 724q-57 0 -89 41q-31 40 -31 107h83q0 -56 37 -56q38 0 38 56h82q0 -66 -30 -107q-32 -41 -90 -41zM63 0v690h123v-690h-123z" />
    <glyph glyph-name="ibreve" unicode="&#x12d;" horiz-adv-x="233" 
d="M116 605q-48 0 -77 42q-29 43 -29 118h83q0 -32 6 -50t17 -18q10 0 18 18q6 18 6 50h82q0 -75 -29 -118q-28 -42 -77 -42zM57 0v526h118v-526h-118z" />
    <glyph glyph-name="Iogonek" unicode="&#x12e;" horiz-adv-x="249" 
d="M130 -217q-48 0 -74 23q-27 24 -27 69q0 30 8 60q9 33 26 65v690h123v-690q-18 -34 -24 -54q-7 -18 -7 -41q0 -32 26 -32q13 0 20 4v-82q-28 -12 -71 -12z" />
    <glyph glyph-name="iogonek" unicode="&#x12f;" horiz-adv-x="233" 
d="M116 611q-34 0 -53 22q-21 23 -21 57t21 56q19 22 53 22q33 0 54 -22t21 -56t-20 -57q-21 -22 -55 -22zM118 -217q-48 0 -74 23q-26 24 -26 69q0 31 9 60q9 30 30 65v526h118v-526q-18 -35 -23 -54q-7 -18 -7 -41q0 -32 25 -32q13 0 20 4v-82q-28 -12 -72 -12z" />
    <glyph glyph-name="Idotaccent" unicode="&#x130;" horiz-adv-x="249" 
d="M123 718q-34 0 -53 22q-21 22 -21 57q0 33 21 56q19 22 53 22q33 0 54 -22q21 -23 21 -56q0 -34 -20 -57q-21 -22 -55 -22zM63 0v690h123v-690h-123z" />
    <glyph glyph-name="dotlessi" unicode="&#x131;" horiz-adv-x="233" 
d="M57 0v526h118v-526h-118z" />
    <glyph glyph-name="IJ" unicode="&#x132;" horiz-adv-x="649" 
d="M63 0v690h123v-690h-123zM382 -8q-88 0 -142 55l65 94q14 -15 31 -24q18 -9 38 -9q45 0 68 29q21 29 21 87v466h124v-471q0 -105 -54 -166q-55 -61 -151 -61z" />
    <glyph glyph-name="ij" unicode="&#x133;" horiz-adv-x="466" 
d="M116 611q-34 0 -53 22q-21 23 -21 57t21 56q19 22 53 22q33 0 54 -22t21 -56t-20 -57q-21 -22 -55 -22zM349 611q-34 0 -53 22q-21 23 -21 57t21 56q19 22 53 22q33 0 54 -22t21 -56t-20 -57q-21 -22 -55 -22zM57 0v526h118v-526h-118zM263 -218q-39 0 -72 15l37 103
q13 -7 28 -7q34 0 34 48v585h118v-584q0 -73 -38 -117q-39 -43 -107 -43z" />
    <glyph glyph-name="Jcircumflex" unicode="&#x134;" horiz-adv-x="400" 
d="M128 727l78 145h141l77 -145h-106l-42 78l-42 -78h-106zM133 -8q-88 0 -142 55l65 94q14 -15 31 -24q18 -9 38 -9q45 0 68 29q21 29 21 87v466h124v-471q0 -105 -54 -166q-55 -61 -151 -61z" />
    <glyph glyph-name="jcircumflex" unicode="&#x135;" horiz-adv-x="233" 
d="M-7 612l66 153h115l65 -153h-91l-32 74l-32 -74h-91zM30 -218q-39 0 -72 15l37 103q13 -7 28 -7q34 0 34 48v585h118v-584q0 -73 -38 -117q-39 -43 -107 -43z" />
    <glyph glyph-name="uni0136" unicode="&#x136;" horiz-adv-x="518" 
d="M63 0v690h123v-281h30l159 281h138l-195 -337l207 -353h-139l-169 293h-31v-293h-123zM195 -200l23 150h118l-51 -150h-90z" />
    <glyph glyph-name="uni0137" unicode="&#x137;" horiz-adv-x="460" 
d="M57 0v760h118v-440h37l109 206h132l-142 -256h1l156 -270h-136l-116 214h-41v-214h-118zM163 -200l23 150h118l-51 -150h-90z" />
    <glyph glyph-name="kgreenlandic" unicode="&#x138;" horiz-adv-x="460" 
d="M57 0v526h118v-206h37l109 206h132l-142 -256h1l156 -270h-136l-116 214h-41v-214h-118z" />
    <glyph glyph-name="Lacute" unicode="&#x139;" horiz-adv-x="420" 
d="M91 727l79 145h130l-101 -145h-108zM63 0v690h123v-574h228v-116h-351z" />
    <glyph glyph-name="lacute" unicode="&#x13a;" horiz-adv-x="233" 
d="M30 727l79 145h130l-101 -145h-108zM57 0v690h118v-690h-118z" />
    <glyph glyph-name="uni013B" unicode="&#x13b;" horiz-adv-x="420" 
d="M63 0v690h123v-574h228v-116h-351zM167 -200l23 150h118l-51 -150h-90z" />
    <glyph glyph-name="uni013C" unicode="&#x13c;" horiz-adv-x="233" 
d="M57 0v760h118v-760h-118zM45 -200l23 150h118l-51 -150h-90z" />
    <glyph glyph-name="Lcaron" unicode="&#x13d;" horiz-adv-x="420" 
d="M63 0v690h123v-574h228v-116h-351zM221 516l23 173h120l-52 -173h-91z" />
    <glyph glyph-name="lcaron" unicode="&#x13e;" horiz-adv-x="233" 
d="M57 0v760h118v-760h-118zM196 587l23 173h120l-52 -173h-91z" />
    <glyph glyph-name="Ldot" unicode="&#x13f;" horiz-adv-x="420" 
d="M63 0v690h123v-574h228v-116h-351zM335 325q-40 0 -64 26q-25 25 -25 66t25 66q24 25 64 25q39 0 64 -25q24 -25 24 -66t-24 -66q-26 -26 -64 -26z" />
    <glyph glyph-name="ldot" unicode="&#x140;" horiz-adv-x="406" 
d="M57 0v760h118v-760h-118zM320 247q-40 0 -64 26q-25 25 -25 66t25 66q24 25 64 25q39 0 64 -25q24 -25 24 -66t-24 -66q-26 -26 -64 -26z" />
    <glyph glyph-name="Lslash" unicode="&#x141;" horiz-adv-x="420" 
d="M63 0v254l-59 -52v128l59 52v308h123v-229l108 98v-128l-108 -98v-217h228v-116h-351z" />
    <glyph glyph-name="lslash" unicode="&#x142;" horiz-adv-x="233" 
d="M57 0v273l-52 -46v128l52 46v359h118v-273l52 46v-128l-52 -46v-359h-118z" />
    <glyph glyph-name="Nacute" unicode="&#x143;" horiz-adv-x="591" 
d="M209 727l79 145h130l-101 -145h-108zM63 0v690h138l204 -461v461h124v-690h-140l-203 459v-459h-123z" />
    <glyph glyph-name="nacute" unicode="&#x144;" horiz-adv-x="487" 
d="M156 612l79 153h134l-98 -153h-115zM57 0v526h106l8 -44q40 52 110 52q71 0 111 -49q41 -50 41 -134v-351h-118v339q0 41 -16 63q-17 21 -46 21q-36 0 -57 -31q-21 -32 -21 -91v-301h-118z" />
    <glyph glyph-name="uni0145" unicode="&#x145;" horiz-adv-x="591" 
d="M63 0v690h138l204 -461v461h124v-690h-140l-203 459v-459h-123zM224 -200l23 150h118l-51 -150h-90z" />
    <glyph glyph-name="uni0146" unicode="&#x146;" horiz-adv-x="487" 
d="M57 0v526h106l8 -44q40 52 110 52q71 0 111 -49q41 -50 41 -134v-351h-118v339q0 41 -16 63q-17 21 -46 21q-36 0 -57 -31q-21 -32 -21 -91v-301h-118zM171 -200l23 150h118l-51 -150h-90z" />
    <glyph glyph-name="Ncaron" unicode="&#x147;" horiz-adv-x="591" 
d="M225 727l-78 145h106l42 -78l42 78h106l-77 -145h-141zM63 0v690h138l204 -461v461h124v-690h-140l-203 459v-459h-123z" />
    <glyph glyph-name="ncaron" unicode="&#x148;" horiz-adv-x="487" 
d="M169 612l-79 153h110l41 -79l41 79h110l-79 -153h-144zM57 0v526h106l8 -44q40 52 110 52q71 0 111 -49q41 -50 41 -134v-351h-118v339q0 41 -16 63q-17 21 -46 21q-36 0 -57 -31q-21 -32 -21 -91v-301h-118z" />
    <glyph glyph-name="napostrophe" unicode="&#x149;" horiz-adv-x="487" 
d="M-157 440l26 250h130l-63 -250h-93zM57 0v526h106l8 -44q40 52 110 52q71 0 111 -49q41 -50 41 -134v-351h-118v339q0 41 -16 63q-17 21 -46 21q-36 0 -57 -31q-21 -32 -21 -91v-301h-118z" />
    <glyph glyph-name="Eng" unicode="&#x14a;" horiz-adv-x="587" 
d="M347 -219q-44 0 -65 10l35 111q12 -5 22 -5q32 0 49 17q15 16 15 51v35l-218 494v-494h-122v690h147l193 -439v439h122v-731q0 -81 -47 -130q-48 -48 -131 -48z" />
    <glyph glyph-name="eng" unicode="&#x14b;" horiz-adv-x="487" 
d="M282 -218q-40 0 -73 15l36 103q13 -7 30 -7q40 0 40 53v393q0 41 -16 63q-17 21 -46 21q-36 0 -57 -31q-21 -32 -21 -92v-300h-118v526h106l8 -44q40 52 110 52q71 0 111 -49q41 -50 41 -134v-404q0 -78 -40 -121q-41 -44 -111 -44z" />
    <glyph glyph-name="Omacron" unicode="&#x14c;" horiz-adv-x="567" 
d="M170 747v99h227v-99h-227zM283 -10q-79 0 -135 45q-55 45 -84 125q-29 81 -29 185t29 185q28 79 84 124t135 45t135 -45q57 -46 85 -124t28 -185t-28 -185q-28 -79 -85 -125q-56 -45 -135 -45zM284 106q64 0 94 64q30 63 30 175t-30 175t-94 63t-94 -63q-31 -63 -31 -175
q0 -113 31 -175q30 -64 94 -64z" />
    <glyph glyph-name="omacron" unicode="&#x14d;" horiz-adv-x="456" 
d="M115 636v99h227v-99h-227zM228 -8q-94 0 -145 74q-52 73 -52 197t52 197q51 74 145 74q93 0 146 -74q51 -75 51 -197q0 -123 -51 -196q-52 -75 -146 -75zM228 103q41 0 60 43q19 42 19 117t-19 117q-19 43 -60 43q-40 0 -59 -42q-20 -45 -20 -118q0 -74 20 -117
q19 -43 59 -43z" />
    <glyph glyph-name="Obreve" unicode="&#x14e;" horiz-adv-x="567" 
d="M284 734q-57 0 -89 38q-31 37 -31 100h83q0 -46 37 -46q38 0 38 46h82q0 -62 -30 -100q-32 -38 -90 -38zM283 -10q-79 0 -135 45q-55 45 -84 125q-29 81 -29 185t29 185q28 79 84 124t135 45t135 -45q57 -46 85 -124t28 -185t-28 -185q-28 -79 -85 -125q-56 -45 -135 -45
zM284 106q64 0 94 64q30 63 30 175t-30 175t-94 63t-94 -63q-31 -63 -31 -175q0 -113 31 -175q30 -64 94 -64z" />
    <glyph glyph-name="obreve" unicode="&#x14f;" horiz-adv-x="456" 
d="M229 605q-57 0 -88 45q-32 44 -32 115h83q0 -68 37 -68q38 0 38 68h82q0 -73 -31 -116q-32 -44 -89 -44zM228 -8q-94 0 -145 74q-52 73 -52 197t52 197q51 74 145 74q93 0 146 -74q51 -75 51 -197q0 -123 -51 -196q-52 -75 -146 -75zM228 103q41 0 60 43q19 42 19 117
t-19 117q-19 43 -60 43q-40 0 -59 -42q-20 -45 -20 -118q0 -74 20 -117q19 -43 59 -43z" />
    <glyph glyph-name="Odblacute" unicode="&#x150;" horiz-adv-x="567" 
d="M130 737l79 135h122l-101 -135h-100zM279 737l79 135h122l-101 -135h-100zM283 -10q-79 0 -135 45q-55 45 -84 125q-29 81 -29 185t29 185q28 79 84 124t135 45t135 -45q57 -46 85 -124t28 -185t-28 -185q-28 -79 -85 -125q-56 -45 -135 -45zM284 106q64 0 94 64
q30 63 30 175t-30 175t-94 63t-94 -63q-31 -63 -31 -175q0 -113 31 -175q30 -64 94 -64z" />
    <glyph glyph-name="odblacute" unicode="&#x151;" horiz-adv-x="456" 
d="M75 612l79 153h126l-98 -153h-107zM234 612l79 153h126l-98 -153h-107zM228 -8q-94 0 -145 74q-52 73 -52 197t52 197q51 74 145 74q93 0 146 -74q51 -75 51 -197q0 -123 -51 -196q-52 -75 -146 -75zM228 103q41 0 60 43q19 42 19 117t-19 117q-19 43 -60 43
q-40 0 -59 -42q-20 -45 -20 -118q0 -74 20 -117q19 -43 59 -43z" />
    <glyph glyph-name="OE" unicode="&#x152;" horiz-adv-x="755" 
d="M272 -10q-76 0 -129 45t-80 125q-28 78 -28 185t28 185q27 80 80 125q53 44 129 44q77 0 131 -57v48h321v-113h-198v-168h172v-111h-172v-185h198v-113h-321v47q-54 -57 -131 -57zM281 106q62 0 92 64q30 63 30 175q0 111 -30 175q-30 63 -92 63t-92 -63
q-30 -64 -30 -175q0 -112 30 -175q30 -64 92 -64z" />
    <glyph glyph-name="oe" unicode="&#x153;" horiz-adv-x="692" 
d="M222 -8q-91 0 -141 74t-50 197t50 197t141 74q86 0 135 -72q45 72 126 72q85 0 132 -71q46 -71 46 -189q0 -28 -3 -55h-245q15 -118 96 -118q42 0 80 35l55 -88q-56 -56 -140 -56q-93 0 -144 76q-23 -35 -59 -56q-33 -20 -79 -20zM413 312h133q-7 121 -63 121
q-63 0 -70 -121zM222 103q37 0 55 43q17 43 17 117q0 73 -17 118q-18 42 -55 42t-55 -43q-18 -44 -18 -117t18 -117q18 -43 55 -43z" />
    <glyph glyph-name="Racute" unicode="&#x154;" horiz-adv-x="509" 
d="M168 727l79 145h130l-101 -145h-108zM63 0v690h184q109 0 168 -59q58 -59 58 -167q0 -78 -31 -130q-31 -53 -94 -78l134 -256h-137l-125 239h-34v-239h-123zM185 348h48q59 0 88 30q29 29 29 84q0 114 -117 114h-48v-228z" />
    <glyph glyph-name="racute" unicode="&#x155;" horiz-adv-x="312" 
d="M93 612l79 153h134l-98 -153h-115zM57 0v526h106l7 -41q45 49 99 49q11 0 28 -5v-123q-20 10 -49 10q-33 0 -53 -23t-20 -68v-325h-118z" />
    <glyph glyph-name="uni0156" unicode="&#x156;" horiz-adv-x="509" 
d="M63 0v690h184q109 0 168 -59q58 -59 58 -167q0 -78 -31 -130q-31 -53 -94 -78l134 -256h-137l-125 239h-34v-239h-123zM185 348h48q59 0 88 30q29 29 29 84q0 114 -117 114h-48v-228zM183 -200l23 150h118l-51 -150h-90z" />
    <glyph glyph-name="uni0157" unicode="&#x157;" horiz-adv-x="312" 
d="M57 0v526h106l7 -41q45 49 99 49q11 0 28 -5v-123q-20 10 -49 10q-33 0 -53 -23t-20 -68v-325h-118zM45 -200l23 150h118l-51 -150h-90z" />
    <glyph glyph-name="Rcaron" unicode="&#x158;" horiz-adv-x="509" 
d="M184 727l-78 145h106l42 -78l42 78h106l-77 -145h-141zM63 0v690h184q109 0 168 -59q58 -59 58 -167q0 -78 -31 -130q-31 -53 -94 -78l134 -256h-137l-125 239h-34v-239h-123zM185 348h48q59 0 88 30q29 29 29 84q0 114 -117 114h-48v-228z" />
    <glyph glyph-name="rcaron" unicode="&#x159;" horiz-adv-x="312" 
d="M106 612l-79 153h110l41 -79l41 79h110l-79 -153h-144zM57 0v526h106l7 -41q45 49 99 49q11 0 28 -5v-123q-20 10 -49 10q-33 0 -53 -23t-20 -68v-325h-118z" />
    <glyph glyph-name="Sacute" unicode="&#x15a;" horiz-adv-x="436" 
d="M132 727l79 145h130l-101 -145h-108zM189 -11q-93 0 -161 54l59 101q18 -18 47 -29q28 -11 55 -11q39 0 61 22q23 21 23 57q0 30 -13 50q-14 23 -32 36q-23 18 -53 36q-42 25 -69 48q-28 23 -45 59q-19 35 -19 90q0 88 53 144q52 54 140 54q90 0 155 -62l-61 -96
q-42 44 -92 44q-33 0 -51 -20q-19 -20 -19 -53q0 -27 12 -47q13 -22 31 -34q20 -17 51 -35q40 -23 71 -48q25 -21 46 -61q19 -37 19 -95q0 -59 -26 -106q-25 -46 -73 -72q-46 -26 -109 -26z" />
    <glyph glyph-name="sacute" unicode="&#x15b;" horiz-adv-x="363" 
d="M95 612l79 153h134l-98 -153h-115zM162 -8q-40 0 -72 11q-36 11 -61 30l52 97q17 -16 36 -24q19 -9 39 -9q24 0 39 12q14 12 14 33q0 27 -16 43q-15 15 -52 39q-36 24 -54 40q-20 18 -35 47t-15 68q0 69 43 112t113 43q74 0 130 -50l-56 -89q-31 34 -66 34q-21 0 -34 -11
q-12 -12 -12 -31q0 -23 16 -38q15 -16 49 -37q35 -23 55 -40q20 -18 37 -48q15 -30 15 -73q0 -72 -46 -115q-47 -44 -119 -44z" />
    <glyph glyph-name="Scircumflex" unicode="&#x15c;" horiz-adv-x="436" 
d="M70 727l78 145h141l77 -145h-106l-42 78l-42 -78h-106zM189 -11q-93 0 -161 54l59 101q18 -18 47 -29q28 -11 55 -11q39 0 61 22q23 21 23 57q0 30 -13 50q-14 23 -32 36q-23 18 -53 36q-42 25 -69 48q-28 23 -45 59q-19 35 -19 90q0 88 53 144q52 54 140 54
q90 0 155 -62l-61 -96q-42 44 -92 44q-33 0 -51 -20q-19 -20 -19 -53q0 -27 12 -47q13 -22 31 -34q20 -17 51 -35q40 -23 71 -48q25 -21 46 -61q19 -37 19 -95q0 -59 -26 -106q-25 -46 -73 -72q-46 -26 -109 -26z" />
    <glyph glyph-name="scircumflex" unicode="&#x15d;" horiz-adv-x="363" 
d="M29 612l79 153h144l79 -153h-110l-41 79l-41 -79h-110zM162 -8q-40 0 -72 11q-36 11 -61 30l52 97q17 -16 36 -24q19 -9 39 -9q24 0 39 12q14 12 14 33q0 27 -16 43q-15 15 -52 39q-36 24 -54 40q-20 18 -35 47t-15 68q0 69 43 112t113 43q74 0 130 -50l-56 -89
q-31 34 -66 34q-21 0 -34 -11q-12 -12 -12 -31q0 -23 16 -38q15 -16 49 -37q35 -23 55 -40q20 -18 37 -48q15 -30 15 -73q0 -72 -46 -115q-47 -44 -119 -44z" />
    <glyph glyph-name="Scedilla" unicode="&#x15e;" horiz-adv-x="436" 
d="M189 -11q-93 0 -161 54l59 101q18 -18 47 -29q28 -11 55 -11q39 0 61 22q23 21 23 57q0 30 -13 50q-14 23 -32 36q-23 18 -53 36q-42 25 -69 48q-28 23 -45 59q-19 35 -19 90q0 88 53 144q52 54 140 54q90 0 155 -62l-61 -96q-42 44 -92 44q-33 0 -51 -20
q-19 -20 -19 -53q0 -27 12 -47q13 -22 31 -34q20 -17 51 -35q40 -23 71 -48q25 -21 46 -61q19 -37 19 -95q0 -59 -26 -106q-25 -46 -73 -72q-46 -26 -109 -26zM147 -200l23 150h118l-51 -150h-90z" />
    <glyph glyph-name="scedilla" unicode="&#x15f;" horiz-adv-x="363" 
d="M162 -8q-40 0 -72 11q-36 11 -61 30l52 97q17 -16 36 -24q19 -9 39 -9q24 0 39 12q14 12 14 33q0 27 -16 43q-15 15 -52 39q-36 24 -54 40q-20 18 -35 47t-15 68q0 69 43 112t113 43q74 0 130 -50l-56 -89q-31 34 -66 34q-21 0 -34 -11q-12 -12 -12 -31q0 -23 16 -38
q15 -16 49 -37q35 -23 55 -40q20 -18 37 -48q15 -30 15 -73q0 -72 -46 -115q-47 -44 -119 -44zM110 -200l23 150h118l-51 -150h-90z" />
    <glyph glyph-name="Scaron" unicode="&#x160;" horiz-adv-x="436" 
d="M148 727l-78 145h106l42 -78l42 78h106l-77 -145h-141zM189 -11q-93 0 -161 54l59 101q18 -18 47 -29q28 -11 55 -11q39 0 61 22q23 21 23 57q0 30 -13 50q-14 23 -32 36q-23 18 -53 36q-42 25 -69 48q-28 23 -45 59q-19 35 -19 90q0 88 53 144q52 54 140 54
q90 0 155 -62l-61 -96q-42 44 -92 44q-33 0 -51 -20q-19 -20 -19 -53q0 -27 12 -47q13 -22 31 -34q20 -17 51 -35q40 -23 71 -48q25 -21 46 -61q19 -37 19 -95q0 -59 -26 -106q-25 -46 -73 -72q-46 -26 -109 -26z" />
    <glyph glyph-name="scaron" unicode="&#x161;" horiz-adv-x="363" 
d="M108 612l-79 153h110l41 -79l41 79h110l-79 -153h-144zM162 -8q-40 0 -72 11q-36 11 -61 30l52 97q17 -16 36 -24q19 -9 39 -9q24 0 39 12q14 12 14 33q0 27 -16 43q-15 15 -52 39q-36 24 -54 40q-20 18 -35 47t-15 68q0 69 43 112t113 43q74 0 130 -50l-56 -89
q-31 34 -66 34q-21 0 -34 -11q-12 -12 -12 -31q0 -23 16 -38q15 -16 49 -37q35 -23 55 -40q20 -18 37 -48q15 -30 15 -73q0 -72 -46 -115q-47 -44 -119 -44z" />
    <glyph glyph-name="uni0162" unicode="&#x162;" horiz-adv-x="470" 
d="M174 0v574h-164v116h450v-116h-163v-574h-123zM164 -200l23 150h118l-51 -150h-90z" />
    <glyph glyph-name="uni0163" unicode="&#x163;" horiz-adv-x="338" 
d="M225 -8q-71 0 -112 41t-41 112v276h-57v105h57v151h118v-151h129v-105h-129v-259q0 -59 49 -59q26 0 52 14l39 -99q-50 -26 -105 -26zM130 -200l23 150h118l-51 -150h-90z" />
    <glyph glyph-name="Tcaron" unicode="&#x164;" horiz-adv-x="470" 
d="M165 727l-78 145h106l42 -78l42 78h106l-77 -145h-141zM174 0v574h-164v116h450v-116h-163v-574h-123z" />
    <glyph glyph-name="tcaron" unicode="&#x165;" horiz-adv-x="338" 
d="M208 587l23 173h120l-52 -173h-91zM225 -8q-71 0 -112 41t-41 112v276h-57v105h57v151h118v-151h129v-105h-129v-259q0 -59 49 -59q26 0 52 14l39 -99q-50 -26 -105 -26z" />
    <glyph glyph-name="Tbar" unicode="&#x166;" horiz-adv-x="470" 
d="M174 0v261h-82v100h82v213h-164v116h450v-116h-163v-213h79v-100h-79v-261h-123z" />
    <glyph glyph-name="tbar" unicode="&#x167;" horiz-adv-x="338" 
d="M225 -8q-71 0 -112 41t-41 112v83h-44v92h44v101h-57v105h57v151h118v-151h129v-105h-129v-101h101v-92h-101v-66q0 -59 49 -59q26 0 52 14l39 -99q-50 -26 -105 -26z" />
    <glyph glyph-name="Utilde" unicode="&#x168;" horiz-adv-x="546" 
d="M123 766q0 70 27 114q27 43 68 43q19 0 34 -9q20 -14 32 -26q12 -10 19 -14q8 -7 16 -7q25 0 25 56h79q0 -70 -27 -113q-27 -44 -68 -44q-20 0 -34 10q-17 11 -32 25l-18 15q-10 6 -17 6q-11 0 -19 -14q-7 -14 -7 -42h-78zM273 -10q-65 0 -114 30q-50 30 -77 86t-27 128
v456h123v-455q0 -62 26 -97t69 -35q45 0 71 35t26 97v455h122v-456q0 -72 -27 -128t-77 -86t-115 -30z" />
    <glyph glyph-name="utilde" unicode="&#x169;" horiz-adv-x="481" 
d="M91 602q0 70 27 114q27 43 68 43q19 0 34 -9q20 -14 32 -26q12 -10 19 -14q8 -7 16 -7q25 0 25 56h79q0 -69 -27 -113t-68 -44q-20 0 -34 10q-18 10 -32 25l-18 15q-11 6 -17 6q-11 0 -19 -14q-7 -14 -7 -42h-78zM241 -8q-85 0 -136 53t-51 143v338h118v-325
q0 -47 19 -72q18 -26 50 -26t50 26q18 25 18 72v325h118v-338q0 -90 -51 -143t-135 -53z" />
    <glyph glyph-name="Umacron" unicode="&#x16a;" horiz-adv-x="546" 
d="M160 747v99h227v-99h-227zM273 -10q-65 0 -114 30q-50 30 -77 86t-27 128v456h123v-455q0 -62 26 -97t69 -35q45 0 71 35t26 97v455h122v-456q0 -72 -27 -128t-77 -86t-115 -30z" />
    <glyph glyph-name="umacron" unicode="&#x16b;" horiz-adv-x="481" 
d="M126 636v99h227v-99h-227zM241 -8q-85 0 -136 53t-51 143v338h118v-325q0 -47 19 -72q18 -26 50 -26t50 26q18 25 18 72v325h118v-338q0 -90 -51 -143t-135 -53z" />
    <glyph glyph-name="Ubreve" unicode="&#x16c;" horiz-adv-x="546" 
d="M274 724q-57 0 -89 41q-31 40 -31 107h83q0 -56 37 -56q38 0 38 56h82q0 -66 -30 -107q-32 -41 -90 -41zM273 -10q-65 0 -114 30q-50 30 -77 86t-27 128v456h123v-455q0 -62 26 -97t69 -35q45 0 71 35t26 97v455h122v-456q0 -72 -27 -128t-77 -86t-115 -30z" />
    <glyph glyph-name="ubreve" unicode="&#x16d;" horiz-adv-x="481" 
d="M240 605q-57 0 -88 45q-32 44 -32 115h83q0 -68 37 -68q38 0 38 68h82q0 -73 -31 -116q-32 -44 -89 -44zM241 -8q-85 0 -136 53t-51 143v338h118v-325q0 -47 19 -72q18 -26 50 -26t50 26q18 25 18 72v325h118v-338q0 -90 -51 -143t-135 -53z" />
    <glyph glyph-name="Uring" unicode="&#x16e;" horiz-adv-x="546" 
d="M274 668q-47 0 -80 33q-33 31 -33 79q0 46 33 79t80 33q46 0 79 -33t33 -79t-33 -79t-79 -33zM274 729q21 0 36 15t15 36q0 20 -15 36q-15 15 -36 15q-22 0 -37 -15t-15 -36t15 -36t37 -15zM273 -10q-65 0 -114 30q-50 30 -77 86t-27 128v456h123v-455q0 -62 26 -97
t69 -35q45 0 71 35t26 97v455h122v-456q0 -72 -27 -128t-77 -86t-115 -30z" />
    <glyph glyph-name="uring" unicode="&#x16f;" horiz-adv-x="481" 
d="M240 566q-48 0 -81 34q-33 33 -33 80t33 80t81 33q46 0 80 -33q33 -33 33 -80t-33 -80q-33 -34 -80 -34zM239 628q21 0 38 15q15 15 15 37q0 20 -15 37q-17 15 -38 15q-22 0 -37 -15q-15 -17 -15 -37q0 -22 15 -37t37 -15zM241 -8q-85 0 -136 53t-51 143v338h118v-325
q0 -47 19 -72q18 -26 50 -26t50 26q18 25 18 72v325h118v-338q0 -90 -51 -143t-135 -53z" />
    <glyph glyph-name="Udblacute" unicode="&#x170;" horiz-adv-x="546" 
d="M120 727l79 145h122l-101 -145h-100zM269 727l79 145h122l-101 -145h-100zM273 -10q-65 0 -114 30q-50 30 -77 86t-27 128v456h123v-455q0 -62 26 -97t69 -35q45 0 71 35t26 97v455h122v-456q0 -72 -27 -128t-77 -86t-115 -30z" />
    <glyph glyph-name="udblacute" unicode="&#x171;" horiz-adv-x="481" 
d="M86 612l79 153h126l-98 -153h-107zM245 612l79 153h126l-98 -153h-107zM241 -8q-85 0 -136 53t-51 143v338h118v-325q0 -47 19 -72q18 -26 50 -26t50 26q18 25 18 72v325h118v-338q0 -90 -51 -143t-135 -53z" />
    <glyph glyph-name="Uogonek" unicode="&#x172;" horiz-adv-x="546" 
d="M332 -217q-54 0 -85 23q-30 24 -30 69q0 30 18 57q17 27 59 59q-5 -1 -21 -1q-65 0 -114 30q-50 30 -77 86t-27 128v456h123v-455q0 -62 26 -97t69 -35q45 0 71 35t26 97v455h122v-456q0 -64 -21 -115q-21 -52 -60 -83q-34 -38 -51 -71q-17 -32 -17 -60q0 -32 33 -32
q20 0 35 9v-86q-29 -13 -79 -13z" />
    <glyph glyph-name="uogonek" unicode="&#x173;" horiz-adv-x="481" 
d="M283 -217q-47 0 -73 23q-26 24 -26 69q0 29 12 56q10 25 38 61q-81 1 -131 55q-49 52 -49 141v338h118v-325q0 -47 19 -72q18 -26 50 -26t50 26q18 25 18 72v325h118v-338q0 -81 -44 -136q-72 -90 -72 -144q0 -35 24 -35q11 0 18 4v-81q-26 -13 -70 -13z" />
    <glyph glyph-name="Wcircumflex" unicode="&#x174;" horiz-adv-x="827" 
d="M266 727l78 145h141l77 -145h-106l-42 78l-42 -78h-106zM157 0l-150 690h122l111 -525l99 525h148l99 -525l111 525h122l-150 -690h-160l-96 505l-95 -505h-161z" />
    <glyph glyph-name="wcircumflex" unicode="&#x175;" horiz-adv-x="710" 
d="M203 612l79 153h144l79 -153h-110l-41 79l-41 -79h-110zM140 0l-132 526h116l90 -369l79 369h124l79 -367l90 367h116l-133 -526h-142l-72 339l-73 -339h-142z" />
    <glyph glyph-name="Ycircumflex" unicode="&#x176;" horiz-adv-x="510" 
d="M107 727l78 145h141l77 -145h-106l-42 78l-42 -78h-106zM193 0v279l-186 411h136l112 -273l112 273h136l-187 -411v-279h-123z" />
    <glyph glyph-name="ycircumflex" unicode="&#x177;" horiz-adv-x="470" 
d="M83 612l79 153h144l79 -153h-110l-41 79l-41 -79h-110zM109 -218q-33 0 -50 7l15 117q11 -4 30 -4q31 0 50 19q19 20 32 67l-178 538h120l116 -378l98 378h120l-159 -557q-28 -100 -76 -145q-48 -42 -118 -42z" />
    <glyph glyph-name="Ydieresis" unicode="&#x178;" horiz-adv-x="510" 
d="M155 723q-31 0 -50 21q-20 20 -20 53q0 31 20 53q20 20 50 20q31 0 51 -20q19 -20 19 -53q0 -34 -19 -53q-20 -21 -51 -21zM353 723q-31 0 -50 21q-20 20 -20 53q0 31 20 53q20 20 50 20q31 0 51 -20q19 -20 19 -53q0 -34 -19 -53q-20 -21 -51 -21zM193 0v279l-186 411
h136l112 -273l112 273h136l-187 -411v-279h-123z" />
    <glyph glyph-name="Zacute" unicode="&#x179;" horiz-adv-x="450" 
d="M135 727l79 145h130l-101 -145h-108zM29 0v111l236 462h-228v117h365v-112l-237 -461h246v-117h-382z" />
    <glyph glyph-name="zacute" unicode="&#x17a;" horiz-adv-x="380" 
d="M105 612l79 153h134l-98 -153h-115zM30 0v99l176 322h-168v105h305v-100l-177 -321h184v-105h-320z" />
    <glyph glyph-name="Zdot" unicode="&#x17b;" horiz-adv-x="450" 
d="M220 718q-34 0 -53 22q-21 22 -21 57q0 33 21 56q19 22 53 22q33 0 54 -22q21 -23 21 -56q0 -34 -20 -57q-21 -22 -55 -22zM29 0v111l236 462h-228v117h365v-112l-237 -461h246v-117h-382z" />
    <glyph glyph-name="zdot" unicode="&#x17c;" horiz-adv-x="380" 
d="M191 611q-34 0 -53 22q-21 23 -21 57t21 56q19 22 53 22q33 0 54 -22t21 -56t-20 -57q-21 -22 -55 -22zM30 0v99l176 322h-168v105h305v-100l-177 -321h184v-105h-320z" />
    <glyph glyph-name="Zcaron" unicode="&#x17d;" horiz-adv-x="450" 
d="M151 727l-78 145h106l42 -78l42 78h106l-77 -145h-141zM29 0v111l236 462h-228v117h365v-112l-237 -461h246v-117h-382z" />
    <glyph glyph-name="zcaron" unicode="&#x17e;" horiz-adv-x="380" 
d="M118 612l-79 153h110l41 -79l41 79h110l-79 -153h-144zM30 0v99l176 322h-168v105h305v-100l-177 -321h184v-105h-320z" />
    <glyph glyph-name="florin" unicode="&#x192;" horiz-adv-x="400" 
d="M50 -227q-39 0 -67 11l32 105q12 -6 28 -6q22 0 31 16q9 17 12 54l34 392h-48v111h58l7 81q17 164 148 164q45 0 78 -16l-44 -102q-14 8 -28 8q-18 0 -27 -16q-8 -15 -13 -52l-6 -67h78v-111h-88l-36 -406q-16 -166 -149 -166z" />
    <glyph glyph-name="Ohorn" unicode="&#x1a0;" horiz-adv-x="567" 
d="M503 530q28 -78 28 -185t-28 -185q-28 -79 -85 -125q-56 -45 -135 -45t-135 45q-55 45 -84 125q-29 81 -29 185t29 185q28 79 84 124t135 45q33 0 58 -7q34 8 54 36t16 64h99q6 -91 -74 -154q44 -44 67 -108zM378 170q30 63 30 175t-30 175t-94 63t-94 -63
q-31 -63 -31 -175q0 -113 31 -175q30 -64 94 -64t94 64z" />
    <glyph glyph-name="ohorn" unicode="&#x1a1;" horiz-adv-x="456" 
d="M368 467q4 -4 6 -7q51 -75 51 -197q0 -123 -51 -196q-52 -75 -146 -75t-145 74q-52 73 -52 197t52 197q51 74 145 74q30 0 52 -7q35 7 56 35.5t17 65.5h99q6 -97 -84 -161zM288 146q19 42 19 117t-19 117q-19 43 -60 43q-40 0 -59 -42q-20 -45 -20 -118q0 -74 20 -117
q19 -43 59 -43q41 0 60 43z" />
    <glyph glyph-name="Uhorn" unicode="&#x1af;" horiz-adv-x="546" 
d="M590 792q3 -54 -25 -98.5t-73 -71.5v-388q0 -72 -27 -128t-77 -86t-115 -30t-114 30q-50 30 -77 86t-27 128v456h123v-455q0 -62 26 -97t69 -35q45 0 71 35t26 97v455h32q40 0 67 30t22 72h99z" />
    <glyph glyph-name="uhorn" unicode="&#x1b0;" horiz-adv-x="481" 
d="M521 628q3 -53 -24 -96.5t-70 -71.5v-272q0 -90 -51 -143t-135 -53q-85 0 -136 53t-51 143v338h118v-325q0 -47 19 -72q18 -26 50 -26t50 26q18 25 18 72v325h24q40 0 67 30t22 72h99z" />
    <glyph glyph-name="uni0218" unicode="&#x218;" horiz-adv-x="436" 
d="M189 -11q-93 0 -161 54l59 101q18 -18 47 -29q28 -11 55 -11q39 0 61 22q23 21 23 57q0 30 -13 50q-14 23 -32 36q-23 18 -53 36q-42 25 -69 48q-28 23 -45 59q-19 35 -19 90q0 88 53 144q52 54 140 54q90 0 155 -62l-61 -96q-42 44 -92 44q-33 0 -51 -20
q-19 -20 -19 -53q0 -27 12 -47q13 -22 31 -34q20 -17 51 -35q40 -23 71 -48q25 -21 46 -61q19 -37 19 -95q0 -59 -26 -106q-25 -46 -73 -72q-46 -26 -109 -26zM147 -200l23 150h118l-51 -150h-90z" />
    <glyph glyph-name="uni0219" unicode="&#x219;" horiz-adv-x="363" 
d="M162 -8q-40 0 -72 11q-36 11 -61 30l52 97q17 -16 36 -24q19 -9 39 -9q24 0 39 12q14 12 14 33q0 27 -16 43q-15 15 -52 39q-36 24 -54 40q-20 18 -35 47t-15 68q0 69 43 112t113 43q74 0 130 -50l-56 -89q-31 34 -66 34q-21 0 -34 -11q-12 -12 -12 -31q0 -23 16 -38
q15 -16 49 -37q35 -23 55 -40q20 -18 37 -48q15 -30 15 -73q0 -72 -46 -115q-47 -44 -119 -44zM110 -200l23 150h118l-51 -150h-90z" />
    <glyph glyph-name="uni021A" unicode="&#x21a;" horiz-adv-x="470" 
d="M174 0v574h-164v116h450v-116h-163v-574h-123zM164 -200l23 150h118l-51 -150h-90z" />
    <glyph glyph-name="uni021B" unicode="&#x21b;" horiz-adv-x="338" 
d="M225 -8q-71 0 -112 41t-41 112v276h-57v105h57v151h118v-151h129v-105h-129v-259q0 -59 49 -59q26 0 52 14l39 -99q-50 -26 -105 -26zM130 -200l23 150h118l-51 -150h-90z" />
    <glyph glyph-name="uni0237" unicode="&#x237;" horiz-adv-x="233" 
d="M30 -218q-39 0 -72 15l37 103q13 -7 28 -7q34 0 34 48v585h118v-584q0 -73 -38 -117q-39 -43 -107 -43z" />
    <glyph glyph-name="circumflex" unicode="&#x2c6;" horiz-adv-x="600" 
d="M30 612l79 153h144l79 -153h-110l-41 79l-41 -79h-110z" />
    <glyph glyph-name="caron" unicode="&#x2c7;" horiz-adv-x="363" 
d="M109 612l-79 153h110l41 -79l41 79h110l-79 -153h-144z" />
    <glyph glyph-name="uni02C9" unicode="&#x2c9;" horiz-adv-x="287" 
d="M30 636v99h227v-99h-227z" />
    <glyph glyph-name="breve" unicode="&#x2d8;" horiz-adv-x="600" 
d="M150 605q-57 0 -88 45q-32 44 -32 115h83q0 -68 37 -68q38 0 38 68h82q0 -73 -31 -116q-32 -44 -89 -44z" />
    <glyph glyph-name="dotaccent" unicode="&#x2d9;" horiz-adv-x="210" 
d="M104 611q-34 0 -53 22q-21 23 -21 57t21 56q19 22 53 22q33 0 54 -22t21 -56t-20 -57q-21 -22 -55 -22z" />
    <glyph glyph-name="ring" unicode="&#x2da;" horiz-adv-x="287" 
d="M144 566q-48 0 -81 34q-33 33 -33 80t33 80t81 33q47 0 80 -33t33 -80t-33 -80q-33 -34 -80 -34zM143 628q21 0 38 15q15 15 15 37q0 20 -15 37q-17 15 -38 15q-22 0 -37 -15q-15 -17 -15 -37q0 -22 15 -37t37 -15z" />
    <glyph glyph-name="ogonek" unicode="&#x2db;" horiz-adv-x="223" 
d="M124 -217q-44 0 -69 23q-25 24 -25 69q0 33 13 60q15 32 44 65h106q-22 -31 -30 -53q-9 -21 -9 -43q0 -31 25 -31q9 0 13 3v-81q-27 -12 -68 -12z" />
    <glyph glyph-name="tilde" unicode="&#x2dc;" horiz-adv-x="600" 
d="M30 602q0 70 27 114q27 43 68 43q19 0 34 -9q20 -14 32 -26q12 -10 19 -14q8 -7 16 -7q25 0 25 56h79q0 -69 -27 -113t-68 -44q-20 0 -34 10q-18 10 -32 25l-18 15q-11 6 -17 6q-11 0 -19 -14q-7 -14 -7 -42h-78z" />
    <glyph glyph-name="hungarumlaut" unicode="&#x2dd;" horiz-adv-x="424" 
d="M30 612l79 153h126l-98 -153h-107zM189 612l79 153h126l-98 -153h-107z" />
    <glyph glyph-name="gravecomb" unicode="&#x300;" 
d="M-145 612l-98 153h134l79 -153h-115z" />
    <glyph glyph-name="acutecomb" unicode="&#x301;" 
d="M-243 612l79 153h134l-98 -153h-115z" />
    <glyph glyph-name="uni0302" unicode="&#x302;" 
d="M-333 612l79 153h144l79 -153h-110l-41 79l-41 -79h-110z" />
    <glyph glyph-name="tildecomb" unicode="&#x303;" 
d="M-330 602q0 70 27 114q27 43 68 43q19 0 34 -9q20 -14 32 -26q12 -10 19 -14q8 -7 16 -7q25 0 25 56h79q0 -69 -27 -113t-68 -44q-20 0 -34 10q-18 10 -32 25l-18 15q-11 6 -17 6q-11 0 -19 -14q-7 -14 -7 -42h-78z" />
    <glyph glyph-name="uni0304" unicode="&#x304;" 
d="M-257 636v99h227v-99h-227z" />
    <glyph glyph-name="uni0306" unicode="&#x306;" 
d="M-151 605q-57 0 -88 45q-32 44 -32 115h83q0 -68 37 -68q38 0 38 68h82q0 -73 -31 -116q-32 -44 -89 -44z" />
    <glyph glyph-name="uni0307" unicode="&#x307;" 
d="M-106 611q-33 0 -54 22q-20 23 -20 57q0 33 20 56q21 22 54 22t54 -22t21 -56t-21 -57q-19 -22 -54 -22z" />
    <glyph glyph-name="uni0308" unicode="&#x308;" 
d="M-298 616q-32 0 -51 21q-19 19 -19 53q0 33 19 53q20 20 51 20q30 0 50 -20q20 -22 20 -53q0 -33 -20 -53q-20 -21 -50 -21zM-100 616q-32 0 -51 21q-19 19 -19 53q0 33 19 53q20 20 51 20q30 0 50 -20q20 -22 20 -53q0 -33 -20 -53q-19 -21 -50 -21z" />
    <glyph glyph-name="hookabovecomb" unicode="&#x309;" 
d="M-227 574l-4 72q15 0 26 17q7 12 7 34q0 31 -8 31q-1 0 -4 -5q-8 -15 -6 -40l-80 10q9 102 90 102q47 0 68 -29t21 -73q0 -33 -15 -59q-15 -22 -34 -30l-3 -30h-58z" />
    <glyph glyph-name="uni030A" unicode="&#x30a;" 
d="M-143 566q-48 0 -81 34q-33 33 -33 80t33 80t81 33q46 0 79 -33q34 -33 34 -80t-33 -80q-33 -34 -80 -34zM-144 628q22 0 37 15q16 15 16 37q0 21 -16 37q-15 15 -37 15t-37 -15q-15 -17 -15 -37q0 -22 15 -37t37 -15z" />
    <glyph glyph-name="uni030B" unicode="&#x30b;" 
d="M-394 612l79 153h126l-98 -153h-107zM-235 612l79 153h126l-98 -153h-107z" />
    <glyph glyph-name="uni030C" unicode="&#x30c;" 
d="M-254 612l-79 153h110l41 -79l41 79h110l-79 -153h-144z" />
    <glyph glyph-name="uni0312" unicode="&#x312;" 
d="M-171 615l61 150h80l-24 -150h-117z" />
    <glyph glyph-name="uni031B" unicode="&#x31b;" 
d="M-420 429v97q40 0 67 30t22 72h99q3 -56 -29 -103.5t-76 -71.5t-83 -24z" />
    <glyph glyph-name="dotbelowcomb" unicode="&#x323;" 
d="M-106 -235q-31 0 -53 22q-21 21 -21 57q0 34 21 56q20 22 53 22q32 0 54 -22q21 -21 21 -56t-20 -57q-21 -22 -55 -22z" />
    <glyph glyph-name="uni0326" unicode="&#x326;" 
d="M-171 -200l23 150h118l-51 -150h-90z" />
    <glyph glyph-name="uni0327" unicode="&#x327;" 
d="M-171 -200l23 150h118l-51 -150h-90z" />
    <glyph glyph-name="uni0394" unicode="&#x394;" horiz-adv-x="537" 
d="M7 0l184 690h154l186 -690h-524zM165 113h207l-103 395z" />
    <glyph glyph-name="uni03A9" unicode="&#x3a9;" horiz-adv-x="553" 
d="M47 0v116h77q-36 54 -58 123q-23 72 -23 143q0 153 61 235q60 82 172 82t173 -82q60 -83 60 -235q0 -70 -23 -144q-22 -70 -58 -122h79v-116h-205v116q40 54 63 123q22 66 22 143q0 97 -29 150q-30 51 -82 51q-50 0 -80 -51q-30 -52 -30 -150q0 -78 22 -144
q24 -71 62 -122v-116h-203z" />
    <glyph glyph-name="uni03BC" unicode="&#x3bc;" horiz-adv-x="468" 
d="M57 -210v736h118v-340q0 -40 14 -62q13 -21 38 -21q30 0 48 31q17 31 17 89v303h118v-526h-105l-8 38q-34 -46 -88 -46q-14 0 -34 5v-207h-118z" />
    <glyph glyph-name="Wgrave" unicode="&#x1e80;" horiz-adv-x="827" 
d="M391 727l-101 145h130l79 -145h-108zM157 0l-150 690h122l111 -525l99 525h148l99 -525l111 525h122l-150 -690h-160l-96 505l-95 -505h-161z" />
    <glyph glyph-name="wgrave" unicode="&#x1e81;" horiz-adv-x="710" 
d="M325 612l-98 153h134l79 -153h-115zM140 0l-132 526h116l90 -369l79 369h124l79 -367l90 367h116l-133 -526h-142l-72 339l-73 -339h-142z" />
    <glyph glyph-name="Wacute" unicode="&#x1e82;" horiz-adv-x="827" 
d="M328 727l79 145h130l-101 -145h-108zM157 0l-150 690h122l111 -525l99 525h148l99 -525l111 525h122l-150 -690h-160l-96 505l-95 -505h-161z" />
    <glyph glyph-name="wacute" unicode="&#x1e83;" horiz-adv-x="710" 
d="M269 612l79 153h134l-98 -153h-115zM140 0l-132 526h116l90 -369l79 369h124l79 -367l90 367h116l-133 -526h-142l-72 339l-73 -339h-142z" />
    <glyph glyph-name="Wdieresis" unicode="&#x1e84;" horiz-adv-x="827" 
d="M314 723q-30 0 -50 21q-20 20 -20 53q0 31 20 53q20 20 50 20q31 0 51 -20q19 -20 19 -53q0 -34 -19 -53q-19 -21 -51 -21zM512 723q-31 0 -50 21q-20 20 -20 53q0 31 20 53q20 20 50 20q31 0 51 -20q19 -20 19 -53q0 -34 -19 -53q-19 -21 -51 -21zM157 0l-150 690h122
l111 -525l99 525h148l99 -525l111 525h122l-150 -690h-160l-96 505l-95 -505h-161z" />
    <glyph glyph-name="wdieresis" unicode="&#x1e85;" horiz-adv-x="710" 
d="M256 616q-30 0 -50 21q-20 20 -20 53q0 31 20 53q20 20 50 20q31 0 51 -20q19 -20 19 -53q0 -34 -19 -53q-19 -21 -51 -21zM454 616q-30 0 -50 21q-20 20 -20 53q0 31 20 53q20 20 50 20q31 0 51 -20q19 -20 19 -53q0 -34 -19 -53q-19 -21 -51 -21zM140 0l-132 526h116
l90 -369l79 369h124l79 -367l90 367h116l-133 -526h-142l-72 339l-73 -339h-142z" />
    <glyph glyph-name="uni1E9E" unicode="&#x1e9e;" horiz-adv-x="554" 
d="M321 -11q-68 0 -121 38l55 99q25 -22 62 -22q36 0 56 26q19 25 19 70q0 48 -26 77t-72 29q-9 0 -11 -1v82l80 146q-14 23 -34 36q-22 13 -46 13q-53 0 -78 -39q-27 -41 -27 -113v-430h-123v435q0 124 59 194q58 69 170 69q71 0 123 -37q53 -37 87 -105l-91 -166
q54 -24 84 -73q29 -50 29 -115q0 -95 -50 -154q-51 -59 -145 -59z" />
    <glyph glyph-name="uni1EA0" unicode="&#x1ea0;" horiz-adv-x="537" 
d="M7 0l184 690h154l185 -690h-128l-41 162h-185l-41 -162h-128zM204 275h129l-64 257zM268 -235q-31 0 -53 22q-21 21 -21 57q0 34 21 56q20 22 53 22q32 0 54 -22q21 -21 21 -56t-20 -57q-21 -22 -55 -22z" />
    <glyph glyph-name="uni1EA1" unicode="&#x1ea1;" horiz-adv-x="495" 
d="M211 -8q-85 0 -132 75q-48 73 -48 196q0 122 48 197q47 74 132 74q69 0 111 -57l10 49h105v-526h-105l-10 49q-42 -57 -111 -57zM233 101q39 0 63 41q23 41 23 115v11q0 74 -23 115q-24 41 -63 41q-42 0 -63 -44t-21 -117t21 -117q21 -45 63 -45zM247 -235q-31 0 -53 22
q-21 21 -21 57q0 34 21 56q20 22 53 22q32 0 54 -22q21 -21 21 -56t-20 -57q-21 -22 -55 -22z" />
    <glyph glyph-name="uni1EA2" unicode="&#x1ea2;" horiz-adv-x="537" 
d="M248 738l-4 72q15 0 26 17q7 12 7 34q0 31 -8 31q-1 0 -4 -5q-8 -15 -6 -40l-80 10q9 102 90 102q47 0 68 -29t21 -73q0 -33 -15 -59q-15 -22 -34 -30l-3 -30h-58zM7 0l184 690h154l185 -690h-128l-41 162h-185l-41 -162h-128zM204 275h129l-64 257z" />
    <glyph glyph-name="uni1EA3" unicode="&#x1ea3;" horiz-adv-x="495" 
d="M227 574l-4 72q15 0 26 17q7 12 7 34q0 31 -8 31q-1 0 -4 -5q-8 -15 -6 -40l-80 10q9 102 90 102q47 0 68 -29t21 -73q0 -33 -15 -59q-15 -22 -34 -30l-3 -30h-58zM211 -8q-85 0 -132 75q-48 73 -48 196q0 122 48 197q47 74 132 74q69 0 111 -57l10 49h105v-526h-105
l-10 49q-42 -57 -111 -57zM233 101q39 0 63 41q23 41 23 115v11q0 74 -23 115q-24 41 -63 41q-42 0 -63 -44t-21 -117t21 -117q21 -45 63 -45z" />
    <glyph glyph-name="uni1EA4" unicode="&#x1ea4;" horiz-adv-x="537" 
d="M436 845l79 153h134l-98 -153h-115zM118 746l79 153h144l79 -153h-110l-41 79l-41 -79h-110zM7 0l184 690h154l185 -690h-128l-41 162h-185l-41 -162h-128zM204 275h129l-64 257z" />
    <glyph glyph-name="uni1EA5" unicode="&#x1ea5;" horiz-adv-x="495" 
d="M415 681l79 153h134l-98 -153h-115zM97 582l79 153h144l79 -153h-110l-41 79l-41 -79h-110zM211 -8q-85 0 -132 75q-48 73 -48 196q0 122 48 197q47 74 132 74q69 0 111 -57l10 49h105v-526h-105l-10 49q-42 -57 -111 -57zM233 101q39 0 63 41q23 41 23 115v11
q0 74 -23 115q-24 41 -63 41q-42 0 -63 -44t-21 -117t21 -117q21 -45 63 -45z" />
    <glyph glyph-name="uni1EA6" unicode="&#x1ea6;" horiz-adv-x="537" 
d="M429 845l-98 153h134l79 -153h-115zM118 746l79 153h144l79 -153h-110l-41 79l-41 -79h-110zM7 0l184 690h154l185 -690h-128l-41 162h-185l-41 -162h-128zM204 275h129l-64 257z" />
    <glyph glyph-name="uni1EA7" unicode="&#x1ea7;" horiz-adv-x="495" 
d="M408 681l-98 153h134l79 -153h-115zM97 582l79 153h144l79 -153h-110l-41 79l-41 -79h-110zM211 -8q-85 0 -132 75q-48 73 -48 196q0 122 48 197q47 74 132 74q69 0 111 -57l10 49h105v-526h-105l-10 49q-42 -57 -111 -57zM233 101q39 0 63 41q23 41 23 115v11
q0 74 -23 115q-24 41 -63 41q-42 0 -63 -44t-21 -117t21 -117q21 -45 63 -45z" />
    <glyph glyph-name="uni1EA8" unicode="&#x1ea8;" horiz-adv-x="537" 
d="M423 807l-4 72q15 0 26 17q7 12 7 34q0 31 -8 31q-1 0 -4 -5q-8 -15 -6 -40l-80 10q9 102 90 102q47 0 68 -29t21 -73q0 -34 -15 -59q-15 -22 -34 -30l-3 -30h-58zM118 746l79 153h144l79 -153h-110l-41 79l-41 -79h-110zM7 0l184 690h154l185 -690h-128l-41 162h-185
l-41 -162h-128zM204 275h129l-64 257z" />
    <glyph glyph-name="uni1EA9" unicode="&#x1ea9;" horiz-adv-x="495" 
d="M402 643l-4 72q15 0 26 17q7 12 7 34q0 31 -8 31q-1 0 -4 -5q-8 -15 -6 -40l-80 10q9 102 90 102q47 0 68 -29t21 -73q0 -34 -15 -59q-15 -22 -34 -30l-3 -30h-58zM97 582l79 153h144l79 -153h-110l-41 79l-41 -79h-110zM211 -8q-85 0 -132 75q-48 73 -48 196
q0 122 48 197q47 74 132 74q69 0 111 -57l10 49h105v-526h-105l-10 49q-42 -57 -111 -57zM233 101q39 0 63 41q23 41 23 115v11q0 74 -23 115q-24 41 -63 41q-42 0 -63 -44t-21 -117t21 -117q21 -45 63 -45z" />
    <glyph glyph-name="uni1EAA" unicode="&#x1eaa;" horiz-adv-x="537" 
d="M116 915q0 71 27 114t68 43q19 0 34 -9q20 -14 32 -26q12 -10 19 -14q8 -7 16 -7q25 0 25 56h79q0 -69 -27 -113t-68 -44q-20 0 -34 10q-18 11 -32 25l-18 15q-11 6 -17 6q-11 0 -19 -14q-7 -14 -7 -42h-78zM118 746l79 153h144l79 -153h-110l-41 79l-41 -79h-110zM7 0
l184 690h154l185 -690h-128l-41 162h-185l-41 -162h-128zM204 275h129l-64 257z" />
    <glyph glyph-name="uni1EAB" unicode="&#x1eab;" horiz-adv-x="495" 
d="M95 751q0 71 27 114t68 43q19 0 34 -9q20 -14 32 -26q12 -10 19 -14q8 -7 16 -7q25 0 25 56h79q0 -70 -27 -113q-27 -44 -68 -44q-20 0 -34 10q-18 11 -32 25l-18 15q-10 6 -17 6q-11 0 -19 -14q-7 -14 -7 -42h-78zM97 582l79 153h144l79 -153h-110l-41 79l-41 -79h-110z
M211 -8q-85 0 -132 75q-48 73 -48 196q0 122 48 197q47 74 132 74q69 0 111 -57l10 49h105v-526h-105l-10 49q-42 -57 -111 -57zM233 101q39 0 63 41q23 41 23 115v11q0 74 -23 115q-24 41 -63 41q-42 0 -63 -44t-21 -117t21 -117q21 -45 63 -45z" />
    <glyph glyph-name="uni1EAC" unicode="&#x1eac;" horiz-adv-x="537" 
d="M118 746l79 153h144l79 -153h-110l-41 79l-41 -79h-110zM7 0l184 690h154l185 -690h-128l-41 162h-185l-41 -162h-128zM204 275h129l-64 257zM268 -235q-31 0 -53 22q-21 21 -21 57q0 34 21 56q20 22 53 22q32 0 54 -22q21 -21 21 -56t-20 -57q-21 -22 -55 -22z" />
    <glyph glyph-name="uni1EAD" unicode="&#x1ead;" horiz-adv-x="495" 
d="M97 582l79 153h144l79 -153h-110l-41 79l-41 -79h-110zM211 -8q-85 0 -132 75q-48 73 -48 196q0 122 48 197q47 74 132 74q69 0 111 -57l10 49h105v-526h-105l-10 49q-42 -57 -111 -57zM233 101q39 0 63 41q23 41 23 115v11q0 74 -23 115q-24 41 -63 41q-42 0 -63 -44
t-21 -117t21 -117q21 -45 63 -45zM247 -235q-31 0 -53 22q-21 21 -21 57q0 34 21 56q20 22 53 22q32 0 54 -22q21 -21 21 -56t-20 -57q-21 -22 -55 -22z" />
    <glyph glyph-name="uni1EAE" unicode="&#x1eae;" horiz-adv-x="537" 
d="M218 948l79 153h134l-98 -153h-115zM269 749q-57 0 -88 45q-32 44 -32 115h83q0 -68 37 -68q38 0 38 68h82q0 -73 -31 -116q-32 -44 -89 -44zM7 0l184 690h154l185 -690h-128l-41 162h-185l-41 -162h-128zM204 275h129l-64 257z" />
    <glyph glyph-name="uni1EAF" unicode="&#x1eaf;" horiz-adv-x="495" 
d="M197 784l79 153h134l-98 -153h-115zM248 585q-57 0 -88 45q-32 44 -32 115h83q0 -68 37 -68q38 0 38 68h82q0 -73 -31 -116q-32 -44 -89 -44zM211 -8q-85 0 -132 75q-48 73 -48 196q0 122 48 197q47 74 132 74q69 0 111 -57l10 49h105v-526h-105l-10 49q-42 -57 -111 -57
zM233 101q39 0 63 41q23 41 23 115v11q0 74 -23 115q-24 41 -63 41q-42 0 -63 -44t-21 -117t21 -117q21 -45 63 -45z" />
    <glyph glyph-name="uni1EB0" unicode="&#x1eb0;" horiz-adv-x="537" 
d="M211 948l-98 153h134l79 -153h-115zM269 749q-57 0 -88 45q-32 44 -32 115h83q0 -68 37 -68q38 0 38 68h82q0 -73 -31 -116q-32 -44 -89 -44zM7 0l184 690h154l185 -690h-128l-41 162h-185l-41 -162h-128zM204 275h129l-64 257z" />
    <glyph glyph-name="uni1EB1" unicode="&#x1eb1;" horiz-adv-x="495" 
d="M190 784l-98 153h134l79 -153h-115zM248 585q-57 0 -88 45q-32 44 -32 115h83q0 -68 37 -68q38 0 38 68h82q0 -73 -31 -116q-32 -44 -89 -44zM211 -8q-85 0 -132 75q-48 73 -48 196q0 122 48 197q47 74 132 74q69 0 111 -57l10 49h105v-526h-105l-10 49q-42 -57 -111 -57
zM233 101q39 0 63 41q23 41 23 115v11q0 74 -23 115q-24 41 -63 41q-42 0 -63 -44t-21 -117t21 -117q21 -45 63 -45z" />
    <glyph glyph-name="uni1EB2" unicode="&#x1eb2;" horiz-adv-x="537" 
d="M248 910l-4 72q15 0 26 17q7 12 7 34q0 31 -8 31q-1 0 -4 -5q-8 -15 -6 -40l-80 10q9 102 90 102q47 0 68 -29t21 -73q0 -33 -15 -59q-15 -22 -34 -30l-3 -30h-58zM269 749q-57 0 -88 45q-32 44 -32 115h83q0 -68 37 -68q38 0 38 68h82q0 -73 -31 -116q-32 -44 -89 -44z
M7 0l184 690h154l185 -690h-128l-41 162h-185l-41 -162h-128zM204 275h129l-64 257z" />
    <glyph glyph-name="uni1EB3" unicode="&#x1eb3;" horiz-adv-x="495" 
d="M227 746l-4 72q15 0 26 17q7 12 7 34q0 31 -8 31q-1 0 -4 -5q-8 -15 -6 -40l-80 10q9 102 90 102q47 0 68 -29t21 -73q0 -33 -15 -59q-15 -22 -34 -30l-3 -30h-58zM248 585q-57 0 -88 45q-32 44 -32 115h83q0 -68 37 -68q38 0 38 68h82q0 -73 -31 -116q-32 -44 -89 -44z
M211 -8q-85 0 -132 75q-48 73 -48 196q0 122 48 197q47 74 132 74q69 0 111 -57l10 49h105v-526h-105l-10 49q-42 -57 -111 -57zM233 101q39 0 63 41q23 41 23 115v11q0 74 -23 115q-24 41 -63 41q-42 0 -63 -44t-21 -117t21 -117q21 -45 63 -45z" />
    <glyph glyph-name="uni1EB4" unicode="&#x1eb4;" horiz-adv-x="537" 
d="M119 938q0 70 27 114q27 43 68 43q19 0 34 -9q20 -14 32 -26q12 -10 19 -14q8 -7 16 -7q25 0 25 56h79q0 -69 -27 -113t-68 -44q-20 0 -34 10q-18 10 -32 25l-18 15q-11 6 -17 6q-11 0 -19 -14q-7 -14 -7 -42h-78zM269 749q-57 0 -88 45q-32 44 -32 115h83q0 -68 37 -68
q38 0 38 68h82q0 -73 -31 -116q-32 -44 -89 -44zM7 0l184 690h154l185 -690h-128l-41 162h-185l-41 -162h-128zM204 275h129l-64 257z" />
    <glyph glyph-name="uni1EB5" unicode="&#x1eb5;" horiz-adv-x="495" 
d="M98 774q0 70 27 114q27 43 68 43q19 0 34 -9q20 -14 32 -26q12 -10 19 -14q8 -7 16 -7q25 0 25 56h79q0 -70 -27 -113q-27 -44 -68 -44q-20 0 -34 10q-17 10 -32 25l-18 15q-11 6 -17 6q-11 0 -19 -14q-7 -14 -7 -42h-78zM248 585q-57 0 -88 45q-32 44 -32 115h83
q0 -68 37 -68q38 0 38 68h82q0 -73 -31 -116q-32 -44 -89 -44zM211 -8q-85 0 -132 75q-48 73 -48 196q0 122 48 197q47 74 132 74q69 0 111 -57l10 49h105v-526h-105l-10 49q-42 -57 -111 -57zM233 101q39 0 63 41q23 41 23 115v11q0 74 -23 115q-24 41 -63 41
q-42 0 -63 -44t-21 -117t21 -117q21 -45 63 -45z" />
    <glyph glyph-name="uni1EB6" unicode="&#x1eb6;" horiz-adv-x="537" 
d="M269 749q-57 0 -88 45q-32 44 -32 115h83q0 -68 37 -68q38 0 38 68h82q0 -73 -31 -116q-32 -44 -89 -44zM7 0l184 690h154l185 -690h-128l-41 162h-185l-41 -162h-128zM204 275h129l-64 257zM268 -235q-31 0 -53 22q-21 21 -21 57q0 34 21 56q20 22 53 22q32 0 54 -22
q21 -21 21 -56t-20 -57q-21 -22 -55 -22z" />
    <glyph glyph-name="uni1EB7" unicode="&#x1eb7;" horiz-adv-x="495" 
d="M248 585q-57 0 -88 45q-32 44 -32 115h83q0 -68 37 -68q38 0 38 68h82q0 -73 -31 -116q-32 -44 -89 -44zM211 -8q-85 0 -132 75q-48 73 -48 196q0 122 48 197q47 74 132 74q69 0 111 -57l10 49h105v-526h-105l-10 49q-42 -57 -111 -57zM233 101q39 0 63 41q23 41 23 115
v11q0 74 -23 115q-24 41 -63 41q-42 0 -63 -44t-21 -117t21 -117q21 -45 63 -45zM247 -235q-31 0 -53 22q-21 21 -21 57q0 34 21 56q20 22 53 22q32 0 54 -22q21 -21 21 -56t-20 -57q-21 -22 -55 -22z" />
    <glyph glyph-name="uni1EB8" unicode="&#x1eb8;" horiz-adv-x="450" 
d="M63 0v690h356v-113h-233v-168h207v-111h-207v-185h233v-113h-356zM224 -235q-31 0 -53 22q-21 21 -21 57q0 34 21 56q20 22 53 22q32 0 54 -22q21 -21 21 -56t-20 -57q-21 -22 -55 -22z" />
    <glyph glyph-name="uni1EB9" unicode="&#x1eb9;" horiz-adv-x="434" 
d="M240 -8q-101 0 -155 74t-54 197t49 197q50 74 138 74q87 0 137 -71q48 -72 48 -189q0 -28 -3 -55h-253q8 -58 31 -87q22 -31 67 -31q23 0 45 9q21 8 40 26l56 -88q-30 -28 -65 -41q-37 -15 -81 -15zM147 312h141q-7 121 -70 121q-64 0 -71 -121zM216 -235q-31 0 -53 22
q-21 21 -21 57q0 34 21 56q20 22 53 22q32 0 54 -22q21 -21 21 -56t-20 -57q-21 -22 -55 -22z" />
    <glyph glyph-name="uni1EBA" unicode="&#x1eba;" horiz-adv-x="450" 
d="M204 738l-4 72q15 0 26 17q7 12 7 34q0 31 -8 31q-1 0 -4 -5q-8 -15 -6 -40l-80 10q9 102 90 102q47 0 68 -29t21 -73q0 -33 -15 -59q-15 -22 -34 -30l-3 -30h-58zM63 0v690h356v-113h-233v-168h207v-111h-207v-185h233v-113h-356z" />
    <glyph glyph-name="uni1EBB" unicode="&#x1ebb;" horiz-adv-x="434" 
d="M196 574l-4 72q15 0 26 17q7 12 7 34q0 31 -8 31q-1 0 -4 -5q-8 -15 -6 -40l-80 10q9 102 90 102q47 0 68 -29t21 -73q0 -33 -15 -59q-15 -22 -34 -30l-3 -30h-58zM240 -8q-101 0 -155 74t-54 197t49 197q50 74 138 74q87 0 137 -71q48 -72 48 -189q0 -28 -3 -55h-253
q8 -58 31 -87q22 -31 67 -31q23 0 45 9q21 8 40 26l56 -88q-30 -28 -65 -41q-37 -15 -81 -15zM147 312h141q-7 121 -70 121q-64 0 -71 -121z" />
    <glyph glyph-name="uni1EBC" unicode="&#x1ebc;" horiz-adv-x="450" 
d="M75 766q0 70 27 114q27 43 68 43q19 0 34 -9q20 -14 32 -26q12 -10 19 -14q8 -7 16 -7q25 0 25 56h79q0 -70 -27 -113q-27 -44 -68 -44q-20 0 -34 10q-18 11 -32 25l-18 15q-10 6 -17 6q-11 0 -19 -14q-7 -14 -7 -42h-78zM63 0v690h356v-113h-233v-168h207v-111h-207
v-185h233v-113h-356z" />
    <glyph glyph-name="uni1EBD" unicode="&#x1ebd;" horiz-adv-x="434" 
d="M67 602q0 70 27 114q27 43 68 43q19 0 34 -9q20 -14 32 -26q12 -10 19 -14q8 -7 16 -7q25 0 25 56h79q0 -69 -27 -113t-68 -44q-20 0 -34 10q-17 10 -32 25l-18 15q-10 6 -17 6q-11 0 -19 -14q-7 -14 -7 -42h-78zM240 -8q-101 0 -155 74t-54 197t49 197q50 74 138 74
q87 0 137 -71q48 -72 48 -189q0 -28 -3 -55h-253q8 -58 31 -87q22 -31 67 -31q23 0 45 9q21 8 40 26l56 -88q-30 -28 -65 -41q-37 -15 -81 -15zM147 312h141q-7 121 -70 121q-64 0 -71 -121z" />
    <glyph glyph-name="uni1EBE" unicode="&#x1ebe;" horiz-adv-x="450" 
d="M392 845l79 153h134l-98 -153h-115zM74 746l79 153h144l79 -153h-110l-41 79l-41 -79h-110zM63 0v690h356v-113h-233v-168h207v-111h-207v-185h233v-113h-356z" />
    <glyph glyph-name="uni1EBF" unicode="&#x1ebf;" horiz-adv-x="434" 
d="M384 681l79 153h134l-98 -153h-115zM66 582l79 153h144l79 -153h-110l-41 79l-41 -79h-110zM240 -8q-101 0 -155 74t-54 197t49 197q50 74 138 74q87 0 137 -71q48 -72 48 -189q0 -28 -3 -55h-253q8 -58 31 -87q22 -31 67 -31q23 0 45 9q21 8 40 26l56 -88
q-30 -28 -65 -41q-37 -15 -81 -15zM147 312h141q-7 121 -70 121q-64 0 -71 -121z" />
    <glyph glyph-name="uni1EC0" unicode="&#x1ec0;" horiz-adv-x="450" 
d="M385 845l-98 153h134l79 -153h-115zM74 746l79 153h144l79 -153h-110l-41 79l-41 -79h-110zM63 0v690h356v-113h-233v-168h207v-111h-207v-185h233v-113h-356z" />
    <glyph glyph-name="uni1EC1" unicode="&#x1ec1;" horiz-adv-x="434" 
d="M377 681l-98 153h134l79 -153h-115zM66 582l79 153h144l79 -153h-110l-41 79l-41 -79h-110zM240 -8q-101 0 -155 74t-54 197t49 197q50 74 138 74q87 0 137 -71q48 -72 48 -189q0 -28 -3 -55h-253q8 -58 31 -87q22 -31 67 -31q23 0 45 9q21 8 40 26l56 -88
q-30 -28 -65 -41q-37 -15 -81 -15zM147 312h141q-7 121 -70 121q-64 0 -71 -121z" />
    <glyph glyph-name="uni1EC2" unicode="&#x1ec2;" horiz-adv-x="450" 
d="M379 807l-4 72q15 0 26 17q7 12 7 34q0 31 -8 31q-1 0 -4 -5q-8 -15 -6 -40l-80 10q9 102 90 102q47 0 68 -29t21 -73q0 -34 -15 -59q-15 -22 -34 -30l-3 -30h-58zM74 746l79 153h144l79 -153h-110l-41 79l-41 -79h-110zM63 0v690h356v-113h-233v-168h207v-111h-207v-185
h233v-113h-356z" />
    <glyph glyph-name="uni1EC3" unicode="&#x1ec3;" horiz-adv-x="434" 
d="M371 643l-4 72q15 0 26 17q7 12 7 34q0 31 -8 31q-1 0 -4 -5q-8 -15 -6 -40l-80 10q9 102 90 102q47 0 68 -29t21 -73q0 -34 -15 -59q-15 -22 -34 -30l-3 -30h-58zM66 582l79 153h144l79 -153h-110l-41 79l-41 -79h-110zM240 -8q-101 0 -155 74t-54 197t49 197
q50 74 138 74q87 0 137 -71q48 -72 48 -189q0 -28 -3 -55h-253q8 -58 31 -87q22 -31 67 -31q23 0 45 9q21 8 40 26l56 -88q-30 -28 -65 -41q-37 -15 -81 -15zM147 312h141q-7 121 -70 121q-64 0 -71 -121z" />
    <glyph glyph-name="uni1EC4" unicode="&#x1ec4;" horiz-adv-x="450" 
d="M72 915q0 71 27 114t68 43q19 0 34 -9q20 -14 32 -26q12 -10 19 -14q8 -7 16 -7q25 0 25 56h79q0 -69 -27 -113t-68 -44q-20 0 -34 10q-17 11 -32 25l-18 15q-11 6 -17 6q-11 0 -19 -14q-7 -14 -7 -42h-78zM74 746l79 153h144l79 -153h-110l-41 79l-41 -79h-110zM63 0
v690h356v-113h-233v-168h207v-111h-207v-185h233v-113h-356z" />
    <glyph glyph-name="uni1EC5" unicode="&#x1ec5;" horiz-adv-x="434" 
d="M64 751q0 71 27 114t68 43q19 0 34 -9q20 -14 32 -26q12 -10 19 -14q8 -7 16 -7q25 0 25 56h79q0 -70 -27 -113q-27 -44 -68 -44q-20 0 -34 10q-17 11 -32 25l-18 15q-11 6 -17 6q-11 0 -19 -14q-7 -14 -7 -42h-78zM66 582l79 153h144l79 -153h-110l-41 79l-41 -79h-110z
M240 -8q-101 0 -155 74t-54 197t49 197q50 74 138 74q87 0 137 -71q48 -72 48 -189q0 -28 -3 -55h-253q8 -58 31 -87q22 -31 67 -31q23 0 45 9q21 8 40 26l56 -88q-30 -28 -65 -41q-37 -15 -81 -15zM147 312h141q-7 121 -70 121q-64 0 -71 -121z" />
    <glyph glyph-name="uni1EC6" unicode="&#x1ec6;" horiz-adv-x="450" 
d="M74 746l79 153h144l79 -153h-110l-41 79l-41 -79h-110zM63 0v690h356v-113h-233v-168h207v-111h-207v-185h233v-113h-356zM224 -235q-31 0 -53 22q-21 21 -21 57q0 34 21 56q20 22 53 22q32 0 54 -22q21 -21 21 -56t-20 -57q-21 -22 -55 -22z" />
    <glyph glyph-name="uni1EC7" unicode="&#x1ec7;" horiz-adv-x="434" 
d="M66 582l79 153h144l79 -153h-110l-41 79l-41 -79h-110zM240 -8q-101 0 -155 74t-54 197t49 197q50 74 138 74q87 0 137 -71q48 -72 48 -189q0 -28 -3 -55h-253q8 -58 31 -87q22 -31 67 -31q23 0 45 9q21 8 40 26l56 -88q-30 -28 -65 -41q-37 -15 -81 -15zM147 312h141
q-7 121 -70 121q-64 0 -71 -121zM216 -235q-31 0 -53 22q-21 21 -21 57q0 34 21 56q20 22 53 22q32 0 54 -22q21 -21 21 -56t-20 -57q-21 -22 -55 -22z" />
    <glyph glyph-name="uni1EC8" unicode="&#x1ec8;" horiz-adv-x="249" 
d="M104 738l-4 72q15 0 26 17q7 12 7 34q0 31 -8 31q-1 0 -4 -5q-8 -15 -6 -40l-80 10q9 102 90 102q47 0 68 -29t21 -73q0 -33 -15 -59q-15 -22 -34 -30l-3 -30h-58zM63 0v690h123v-690h-123z" />
    <glyph glyph-name="uni1EC9" unicode="&#x1ec9;" horiz-adv-x="233" 
d="M96 574l-4 72q15 0 26 17q7 12 7 34q0 31 -8 31q-1 0 -4 -5q-8 -15 -6 -40l-80 10q9 102 90 102q47 0 68 -29t21 -73q0 -33 -15 -59q-15 -22 -34 -30l-3 -30h-58zM57 0v526h118v-526h-118z" />
    <glyph glyph-name="uni1ECA" unicode="&#x1eca;" horiz-adv-x="249" 
d="M63 0v690h123v-690h-123zM124 -235q-31 0 -53 22q-21 21 -21 57q0 34 21 56q20 22 53 22q32 0 54 -22q21 -21 21 -56t-20 -57q-21 -22 -55 -22z" />
    <glyph glyph-name="uni1ECB" unicode="&#x1ecb;" horiz-adv-x="233" 
d="M116 611q-34 0 -53 22q-21 23 -21 57t21 56q19 22 53 22q33 0 54 -22t21 -56t-20 -57q-21 -22 -55 -22zM57 0v526h118v-526h-118zM116 -235q-31 0 -53 22q-21 21 -21 57q0 34 21 56q20 22 53 22q32 0 54 -22q21 -21 21 -56t-20 -57q-21 -22 -55 -22z" />
    <glyph glyph-name="uni1ECC" unicode="&#x1ecc;" horiz-adv-x="567" 
d="M283 -10q-79 0 -135 45q-55 45 -84 125q-29 81 -29 185t29 185q28 79 84 124t135 45t135 -45q57 -46 85 -124t28 -185t-28 -185q-28 -79 -85 -125q-56 -45 -135 -45zM284 106q64 0 94 64q30 63 30 175t-30 175t-94 63t-94 -63q-31 -63 -31 -175q0 -113 31 -175
q30 -64 94 -64zM283 -235q-31 0 -53 22q-21 21 -21 57q0 34 21 56q20 22 53 22q32 0 54 -22q21 -21 21 -56t-20 -57q-21 -22 -55 -22z" />
    <glyph glyph-name="uni1ECD" unicode="&#x1ecd;" horiz-adv-x="456" 
d="M228 -8q-94 0 -145 74q-52 73 -52 197t52 197q51 74 145 74q93 0 146 -74q51 -75 51 -197q0 -123 -51 -196q-52 -75 -146 -75zM228 103q41 0 60 43q19 42 19 117t-19 117q-19 43 -60 43q-40 0 -59 -42q-20 -45 -20 -118q0 -74 20 -117q19 -43 59 -43zM227 -235
q-31 0 -53 22q-21 21 -21 57q0 34 21 56q20 22 53 22q32 0 54 -22q21 -21 21 -56t-20 -57q-21 -22 -55 -22z" />
    <glyph glyph-name="uni1ECE" unicode="&#x1ece;" horiz-adv-x="567" 
d="M263 738l-4 72q15 0 26 17q7 12 7 34q0 31 -8 31q-1 0 -4 -5q-8 -15 -6 -40l-80 10q9 102 90 102q47 0 68 -29t21 -73q0 -33 -15 -59q-15 -22 -34 -30l-3 -30h-58zM283 -10q-79 0 -135 45q-55 45 -84 125q-29 81 -29 185t29 185q28 79 84 124t135 45t135 -45
q57 -46 85 -124t28 -185t-28 -185q-28 -79 -85 -125q-56 -45 -135 -45zM284 106q64 0 94 64q30 63 30 175t-30 175t-94 63t-94 -63q-31 -63 -31 -175q0 -113 31 -175q30 -64 94 -64z" />
    <glyph glyph-name="uni1ECF" unicode="&#x1ecf;" horiz-adv-x="456" 
d="M207 574l-4 72q15 0 26 17q7 12 7 34q0 31 -8 31q-1 0 -4 -5q-8 -15 -6 -40l-80 10q9 102 90 102q47 0 68 -29t21 -73q0 -33 -15 -59q-15 -22 -34 -30l-3 -30h-58zM228 -8q-94 0 -145 74q-52 73 -52 197t52 197q51 74 145 74q93 0 146 -74q51 -75 51 -197
q0 -123 -51 -196q-52 -75 -146 -75zM228 103q41 0 60 43q19 42 19 117t-19 117q-19 43 -60 43q-40 0 -59 -42q-20 -45 -20 -118q0 -74 20 -117q19 -43 59 -43z" />
    <glyph glyph-name="uni1ED0" unicode="&#x1ed0;" horiz-adv-x="567" 
d="M451 845l79 153h134l-98 -153h-115zM133 746l79 153h144l79 -153h-110l-41 79l-41 -79h-110zM283 -10q-79 0 -135 45q-55 45 -84 125q-29 81 -29 185t29 185q28 79 84 124t135 45t135 -45q57 -46 85 -124t28 -185t-28 -185q-28 -79 -85 -125q-56 -45 -135 -45zM284 106
q64 0 94 64q30 63 30 175t-30 175t-94 63t-94 -63q-31 -63 -31 -175q0 -113 31 -175q30 -64 94 -64z" />
    <glyph glyph-name="uni1ED1" unicode="&#x1ed1;" horiz-adv-x="456" 
d="M395 681l79 153h134l-98 -153h-115zM77 582l79 153h144l79 -153h-110l-41 79l-41 -79h-110zM228 -8q-94 0 -145 74q-52 73 -52 197t52 197q51 74 145 74q93 0 146 -74q51 -75 51 -197q0 -123 -51 -196q-52 -75 -146 -75zM228 103q41 0 60 43q19 42 19 117t-19 117
q-19 43 -60 43q-40 0 -59 -42q-20 -45 -20 -118q0 -74 20 -117q19 -43 59 -43z" />
    <glyph glyph-name="uni1ED2" unicode="&#x1ed2;" horiz-adv-x="567" 
d="M444 845l-98 153h134l79 -153h-115zM133 746l79 153h144l79 -153h-110l-41 79l-41 -79h-110zM283 -10q-79 0 -135 45q-55 45 -84 125q-29 81 -29 185t29 185q28 79 84 124t135 45t135 -45q57 -46 85 -124t28 -185t-28 -185q-28 -79 -85 -125q-56 -45 -135 -45zM284 106
q64 0 94 64q30 63 30 175t-30 175t-94 63t-94 -63q-31 -63 -31 -175q0 -113 31 -175q30 -64 94 -64z" />
    <glyph glyph-name="uni1ED3" unicode="&#x1ed3;" horiz-adv-x="456" 
d="M388 681l-98 153h134l79 -153h-115zM77 582l79 153h144l79 -153h-110l-41 79l-41 -79h-110zM228 -8q-94 0 -145 74q-52 73 -52 197t52 197q51 74 145 74q93 0 146 -74q51 -75 51 -197q0 -123 -51 -196q-52 -75 -146 -75zM228 103q41 0 60 43q19 42 19 117t-19 117
q-19 43 -60 43q-40 0 -59 -42q-20 -45 -20 -118q0 -74 20 -117q19 -43 59 -43z" />
    <glyph glyph-name="uni1ED4" unicode="&#x1ed4;" horiz-adv-x="567" 
d="M438 807l-4 72q15 0 26 17q7 12 7 34q0 31 -8 31q-1 0 -4 -5q-8 -15 -6 -40l-80 10q9 102 90 102q47 0 68 -29t21 -73q0 -34 -15 -59q-15 -22 -34 -30l-3 -30h-58zM133 746l79 153h144l79 -153h-110l-41 79l-41 -79h-110zM283 -10q-79 0 -135 45q-55 45 -84 125
q-29 81 -29 185t29 185q28 79 84 124t135 45t135 -45q57 -46 85 -124t28 -185t-28 -185q-28 -79 -85 -125q-56 -45 -135 -45zM284 106q64 0 94 64q30 63 30 175t-30 175t-94 63t-94 -63q-31 -63 -31 -175q0 -113 31 -175q30 -64 94 -64z" />
    <glyph glyph-name="uni1ED5" unicode="&#x1ed5;" horiz-adv-x="456" 
d="M382 643l-4 72q15 0 26 17q7 12 7 34q0 31 -8 31q-1 0 -4 -5q-8 -15 -6 -40l-80 10q9 102 90 102q47 0 68 -29t21 -73q0 -34 -15 -59q-15 -22 -34 -30l-3 -30h-58zM77 582l79 153h144l79 -153h-110l-41 79l-41 -79h-110zM228 -8q-94 0 -145 74q-52 73 -52 197t52 197
q51 74 145 74q93 0 146 -74q51 -75 51 -197q0 -123 -51 -196q-52 -75 -146 -75zM228 103q41 0 60 43q19 42 19 117t-19 117q-19 43 -60 43q-40 0 -59 -42q-20 -45 -20 -118q0 -74 20 -117q19 -43 59 -43z" />
    <glyph glyph-name="uni1ED6" unicode="&#x1ed6;" horiz-adv-x="567" 
d="M131 915q0 71 27 114t68 43q19 0 34 -9q20 -14 32 -26q12 -10 19 -14q8 -7 16 -7q25 0 25 56h79q0 -69 -27 -113t-68 -44q-20 0 -34 10q-18 11 -32 25l-18 15q-10 6 -17 6q-11 0 -19 -14q-7 -14 -7 -42h-78zM133 746l79 153h144l79 -153h-110l-41 79l-41 -79h-110z
M283 -10q-79 0 -135 45q-55 45 -84 125q-29 81 -29 185t29 185q28 79 84 124t135 45t135 -45q57 -46 85 -124t28 -185t-28 -185q-28 -79 -85 -125q-56 -45 -135 -45zM284 106q64 0 94 64q30 63 30 175t-30 175t-94 63t-94 -63q-31 -63 -31 -175q0 -113 31 -175
q30 -64 94 -64z" />
    <glyph glyph-name="uni1ED7" unicode="&#x1ed7;" horiz-adv-x="456" 
d="M75 751q0 71 27 114t68 43q19 0 34 -9q20 -14 32 -26q12 -10 19 -14q8 -7 16 -7q25 0 25 56h79q0 -70 -27 -113q-27 -44 -68 -44q-20 0 -34 10q-18 11 -32 25l-18 15q-10 6 -17 6q-11 0 -19 -14q-7 -14 -7 -42h-78zM77 582l79 153h144l79 -153h-110l-41 79l-41 -79h-110z
M228 -8q-94 0 -145 74q-52 73 -52 197t52 197q51 74 145 74q93 0 146 -74q51 -75 51 -197q0 -123 -51 -196q-52 -75 -146 -75zM228 103q41 0 60 43q19 42 19 117t-19 117q-19 43 -60 43q-40 0 -59 -42q-20 -45 -20 -118q0 -74 20 -117q19 -43 59 -43z" />
    <glyph glyph-name="uni1ED8" unicode="&#x1ed8;" horiz-adv-x="567" 
d="M133 746l79 153h144l79 -153h-110l-41 79l-41 -79h-110zM283 -10q-79 0 -135 45q-55 45 -84 125q-29 81 -29 185t29 185q28 79 84 124t135 45t135 -45q57 -46 85 -124t28 -185t-28 -185q-28 -79 -85 -125q-56 -45 -135 -45zM284 106q64 0 94 64q30 63 30 175t-30 175
t-94 63t-94 -63q-31 -63 -31 -175q0 -113 31 -175q30 -64 94 -64zM283 -235q-31 0 -53 22q-21 21 -21 57q0 34 21 56q20 22 53 22q32 0 54 -22q21 -21 21 -56t-20 -57q-21 -22 -55 -22z" />
    <glyph glyph-name="uni1ED9" unicode="&#x1ed9;" horiz-adv-x="456" 
d="M77 582l79 153h144l79 -153h-110l-41 79l-41 -79h-110zM228 -8q-94 0 -145 74q-52 73 -52 197t52 197q51 74 145 74q93 0 146 -74q51 -75 51 -197q0 -123 -51 -196q-52 -75 -146 -75zM228 103q41 0 60 43q19 42 19 117t-19 117q-19 43 -60 43q-40 0 -59 -42
q-20 -45 -20 -118q0 -74 20 -117q19 -43 59 -43zM227 -235q-31 0 -53 22q-21 21 -21 57q0 34 21 56q20 22 53 22q32 0 54 -22q21 -21 21 -56t-20 -57q-21 -22 -55 -22z" />
    <glyph glyph-name="uni1EDA" unicode="&#x1eda;" horiz-adv-x="567" 
d="M446 929l-98 -153h-115l79 153h134zM503 530q28 -78 28 -185t-28 -185q-28 -79 -85 -125q-56 -45 -135 -45t-135 45q-55 45 -84 125q-29 81 -29 185t29 185q28 79 84 124t135 45q33 0 58 -7q34 8 54 36t16 64h99q6 -91 -74 -154q44 -44 67 -108zM378 170q30 63 30 175
t-30 175t-94 63t-94 -63q-31 -63 -31 -175q0 -113 31 -175q30 -64 94 -64t94 64z" />
    <glyph glyph-name="uni1EDB" unicode="&#x1edb;" horiz-adv-x="456" 
d="M390 765l-98 -153h-115l79 153h134zM368 467q4 -4 6 -7q51 -75 51 -197q0 -123 -51 -196q-52 -75 -146 -75t-145 74q-52 73 -52 197t52 197q51 74 145 74q30 0 52 -7q35 7 56 35.5t17 65.5h99q6 -97 -84 -161zM288 146q19 42 19 117t-19 117q-19 43 -60 43q-40 0 -59 -42
q-20 -45 -20 -118q0 -74 20 -117q19 -43 59 -43q41 0 60 43z" />
    <glyph glyph-name="uni1EDC" unicode="&#x1edc;" horiz-adv-x="567" 
d="M341 776h-115l-98 153h134zM503 530q28 -78 28 -185t-28 -185q-28 -79 -85 -125q-56 -45 -135 -45t-135 45q-55 45 -84 125q-29 81 -29 185t29 185q28 79 84 124t135 45q33 0 58 -7q34 8 54 36t16 64h99q6 -91 -74 -154q44 -44 67 -108zM378 170q30 63 30 175t-30 175
t-94 63t-94 -63q-31 -63 -31 -175q0 -113 31 -175q30 -64 94 -64t94 64z" />
    <glyph glyph-name="uni1EDD" unicode="&#x1edd;" horiz-adv-x="456" 
d="M285 612h-115l-98 153h134zM368 467q4 -4 6 -7q51 -75 51 -197q0 -123 -51 -196q-52 -75 -146 -75t-145 74q-52 73 -52 197t52 197q51 74 145 74q30 0 52 -7q35 7 56 35.5t17 65.5h99q6 -97 -84 -161zM288 146q19 42 19 117t-19 117q-19 43 -60 43q-40 0 -59 -42
q-20 -45 -20 -118q0 -74 20 -117q19 -43 59 -43q41 0 60 43z" />
    <glyph glyph-name="uni1EDE" unicode="&#x1ede;" horiz-adv-x="567" 
d="M280 887q-8 -15 -6 -40l-80 10q9 102 90 102q47 0 68 -29t21 -73q0 -33 -15 -59q-15 -22 -34 -30l-3 -30h-58l-4 72q15 0 26 17q7 12 7 34q0 31 -8 31q-1 0 -4 -5zM503 530q28 -78 28 -185t-28 -185q-28 -79 -85 -125q-56 -45 -135 -45t-135 45q-55 45 -84 125
q-29 81 -29 185t29 185q28 79 84 124t135 45q33 0 58 -7q34 8 54 36t16 64h99q6 -91 -74 -154q44 -44 67 -108zM378 170q30 63 30 175t-30 175t-94 63t-94 -63q-31 -63 -31 -175q0 -113 31 -175q30 -64 94 -64t94 64z" />
    <glyph glyph-name="uni1EDF" unicode="&#x1edf;" horiz-adv-x="456" 
d="M224 723q-8 -15 -6 -40l-80 10q9 102 90 102q47 0 68 -29t21 -73q0 -33 -15 -59q-15 -22 -34 -30l-3 -30h-58l-4 72q15 0 26 17q7 12 7 34q0 31 -8 31q-1 0 -4 -5zM368 467q4 -4 6 -7q51 -75 51 -197q0 -123 -51 -196q-52 -75 -146 -75t-145 74q-52 73 -52 197t52 197
q51 74 145 74q30 0 52 -7q35 7 56 35.5t17 65.5h99q6 -97 -84 -161zM288 146q19 42 19 117t-19 117q-19 43 -60 43q-40 0 -59 -42q-20 -45 -20 -118q0 -74 20 -117q19 -43 59 -43q41 0 60 43z" />
    <glyph glyph-name="uni1EE0" unicode="&#x1ee0;" horiz-adv-x="567" 
d="M219 808q-7 -14 -7 -42h-78q0 70 27 114q27 43 68 43q19 0 34 -9q20 -14 32 -26q12 -10 19 -14q8 -7 16 -7q25 0 25 56h79q0 -70 -27 -113q-27 -44 -68 -44q-20 0 -34 10q-17 11 -32 25l-18 15q-11 6 -17 6q-11 0 -19 -14zM503 530q28 -78 28 -185t-28 -185
q-28 -79 -85 -125q-56 -45 -135 -45t-135 45q-55 45 -84 125q-29 81 -29 185t29 185q28 79 84 124t135 45q33 0 58 -7q34 8 54 36t16 64h99q6 -91 -74 -154q44 -44 67 -108zM378 170q30 63 30 175t-30 175t-94 63t-94 -63q-31 -63 -31 -175q0 -113 31 -175q30 -64 94 -64
t94 64z" />
    <glyph glyph-name="uni1EE1" unicode="&#x1ee1;" horiz-adv-x="456" 
d="M163 644q-7 -14 -7 -42h-78q0 70 27 114q27 43 68 43q19 0 34 -9q20 -14 32 -26q12 -10 19 -14q8 -7 16 -7q25 0 25 56h79q0 -69 -27 -113t-68 -44q-20 0 -34 10q-17 10 -32 25l-18 15q-11 6 -17 6q-11 0 -19 -14zM368 467q4 -4 6 -7q51 -75 51 -197q0 -123 -51 -196
q-52 -75 -146 -75t-145 74q-52 73 -52 197t52 197q51 74 145 74q30 0 52 -7q35 7 56 35.5t17 65.5h99q6 -97 -84 -161zM288 146q19 42 19 117t-19 117q-19 43 -60 43q-40 0 -59 -42q-20 -45 -20 -118q0 -74 20 -117q19 -43 59 -43q41 0 60 43z" />
    <glyph glyph-name="uni1EE2" unicode="&#x1ee2;" horiz-adv-x="567" 
d="M503 530q28 -78 28 -185t-28 -185q-28 -79 -85 -125q-56 -45 -135 -45t-135 45q-55 45 -84 125q-29 81 -29 185t29 185q28 79 84 124t135 45q33 0 58 -7q34 8 54 36t16 64h99q6 -91 -74 -154q44 -44 67 -108zM378 170q30 63 30 175t-30 175t-94 63t-94 -63
q-31 -63 -31 -175q0 -113 31 -175q30 -64 94 -64t94 64zM283 -78q32 0 54 -22q21 -21 21 -56t-20 -57q-21 -22 -55 -22q-31 0 -53 22q-21 21 -21 57q0 34 21 56q20 22 53 22z" />
    <glyph glyph-name="uni1EE3" unicode="&#x1ee3;" horiz-adv-x="456" 
d="M368 467q4 -4 6 -7q51 -75 51 -197q0 -123 -51 -196q-52 -75 -146 -75t-145 74q-52 73 -52 197t52 197q51 74 145 74q30 0 52 -7q35 7 56 35.5t17 65.5h99q6 -97 -84 -161zM288 146q19 42 19 117t-19 117q-19 43 -60 43q-40 0 -59 -42q-20 -45 -20 -118q0 -74 20 -117
q19 -43 59 -43q41 0 60 43zM227 -78q32 0 54 -22q21 -21 21 -56t-20 -57q-21 -22 -55 -22q-31 0 -53 22q-21 21 -21 57q0 34 21 56q20 22 53 22z" />
    <glyph glyph-name="uni1EE4" unicode="&#x1ee4;" horiz-adv-x="546" 
d="M273 -10q-65 0 -114 30q-50 30 -77 86t-27 128v456h123v-455q0 -62 26 -97t69 -35q45 0 71 35t26 97v455h122v-456q0 -72 -27 -128t-77 -86t-115 -30zM272 -235q-31 0 -53 22q-21 21 -21 57q0 34 21 56q20 22 53 22q32 0 54 -22q21 -21 21 -56t-20 -57q-21 -22 -55 -22z
" />
    <glyph glyph-name="uni1EE5" unicode="&#x1ee5;" horiz-adv-x="481" 
d="M241 -8q-85 0 -136 53t-51 143v338h118v-325q0 -47 19 -72q18 -26 50 -26t50 26q18 25 18 72v325h118v-338q0 -90 -51 -143t-135 -53zM240 -235q-31 0 -53 22q-21 21 -21 57q0 34 21 56q20 22 53 22q32 0 54 -22q21 -21 21 -56t-20 -57q-21 -22 -55 -22z" />
    <glyph glyph-name="uni1EE6" unicode="&#x1ee6;" horiz-adv-x="546" 
d="M252 738l-4 72q15 0 26 17q7 12 7 34q0 31 -8 31q-1 0 -4 -5q-8 -15 -6 -40l-80 10q9 102 90 102q47 0 68 -29t21 -73q0 -33 -15 -59q-15 -22 -34 -30l-3 -30h-58zM273 -10q-65 0 -114 30q-50 30 -77 86t-27 128v456h123v-455q0 -62 26 -97t69 -35q45 0 71 35t26 97v455
h122v-456q0 -72 -27 -128t-77 -86t-115 -30z" />
    <glyph glyph-name="uni1EE7" unicode="&#x1ee7;" horiz-adv-x="481" 
d="M220 574l-4 72q15 0 26 17q7 12 7 34q0 31 -8 31q-1 0 -4 -5q-8 -15 -6 -40l-80 10q9 102 90 102q47 0 68 -29t21 -73q0 -33 -15 -59q-15 -22 -34 -30l-3 -30h-58zM241 -8q-85 0 -136 53t-51 143v338h118v-325q0 -47 19 -72q18 -26 50 -26t50 26q18 25 18 72v325h118
v-338q0 -90 -51 -143t-135 -53z" />
    <glyph glyph-name="uni1EE8" unicode="&#x1ee8;" horiz-adv-x="546" 
d="M435 929l-98 -153h-115l79 153h134zM590 792q3 -54 -25 -98.5t-73 -71.5v-388q0 -72 -27 -128t-77 -86t-115 -30t-114 30q-50 30 -77 86t-27 128v456h123v-455q0 -62 26 -97t69 -35q45 0 71 35t26 97v455h32q40 0 67 30t22 72h99z" />
    <glyph glyph-name="uni1EE9" unicode="&#x1ee9;" horiz-adv-x="481" 
d="M403 765l-98 -153h-115l79 153h134zM521 628q3 -53 -24 -96.5t-70 -71.5v-272q0 -90 -51 -143t-135 -53q-85 0 -136 53t-51 143v338h118v-325q0 -47 19 -72q18 -26 50 -26t50 26q18 25 18 72v325h24q40 0 67 30t22 72h99z" />
    <glyph glyph-name="uni1EEA" unicode="&#x1eea;" horiz-adv-x="546" 
d="M330 776h-115l-98 153h134zM590 792q3 -54 -25 -98.5t-73 -71.5v-388q0 -72 -27 -128t-77 -86t-115 -30t-114 30q-50 30 -77 86t-27 128v456h123v-455q0 -62 26 -97t69 -35q45 0 71 35t26 97v455h32q40 0 67 30t22 72h99z" />
    <glyph glyph-name="uni1EEB" unicode="&#x1eeb;" horiz-adv-x="481" 
d="M298 612h-115l-98 153h134zM521 628q3 -53 -24 -96.5t-70 -71.5v-272q0 -90 -51 -143t-135 -53q-85 0 -136 53t-51 143v338h118v-325q0 -47 19 -72q18 -26 50 -26t50 26q18 25 18 72v325h24q40 0 67 30t22 72h99z" />
    <glyph glyph-name="uni1EEC" unicode="&#x1eec;" horiz-adv-x="546" 
d="M269 887q-8 -15 -6 -40l-80 10q9 102 90 102q47 0 68 -29t21 -73q0 -33 -15 -59q-15 -22 -34 -30l-3 -30h-58l-4 72q15 0 26 17q7 12 7 34q0 31 -8 31q-1 0 -4 -5zM590 792q3 -54 -25 -98.5t-73 -71.5v-388q0 -72 -27 -128t-77 -86t-115 -30t-114 30q-50 30 -77 86
t-27 128v456h123v-455q0 -62 26 -97t69 -35q45 0 71 35t26 97v455h32q40 0 67 30t22 72h99z" />
    <glyph glyph-name="uni1EED" unicode="&#x1eed;" horiz-adv-x="481" 
d="M237 723q-8 -15 -6 -40l-80 10q9 102 90 102q47 0 68 -29t21 -73q0 -33 -15 -59q-15 -22 -34 -30l-3 -30h-58l-4 72q15 0 26 17q7 12 7 34q0 31 -8 31q-1 0 -4 -5zM521 628q3 -53 -24 -96.5t-70 -71.5v-272q0 -90 -51 -143t-135 -53q-85 0 -136 53t-51 143v338h118v-325
q0 -47 19 -72q18 -26 50 -26t50 26q18 25 18 72v325h24q40 0 67 30t22 72h99z" />
    <glyph glyph-name="uni1EEE" unicode="&#x1eee;" horiz-adv-x="546" 
d="M208 808q-7 -14 -7 -42h-78q0 70 27 114q27 43 68 43q19 0 34 -9q20 -14 32 -26q12 -10 19 -14q8 -7 16 -7q25 0 25 56h79q0 -70 -27 -113q-27 -44 -68 -44q-20 0 -34 10q-17 11 -32 25l-18 15q-10 6 -17 6q-11 0 -19 -14zM590 792q3 -54 -25 -98.5t-73 -71.5v-388
q0 -72 -27 -128t-77 -86t-115 -30t-114 30q-50 30 -77 86t-27 128v456h123v-455q0 -62 26 -97t69 -35q45 0 71 35t26 97v455h32q40 0 67 30t22 72h99z" />
    <glyph glyph-name="uni1EEF" unicode="&#x1eef;" horiz-adv-x="481" 
d="M176 644q-7 -14 -7 -42h-78q0 70 27 114q27 43 68 43q19 0 34 -9q20 -14 32 -26q12 -10 19 -14q8 -7 16 -7q25 0 25 56h79q0 -69 -27 -113t-68 -44q-20 0 -34 10q-18 10 -32 25l-18 15q-11 6 -17 6q-11 0 -19 -14zM521 628q3 -53 -24 -96.5t-70 -71.5v-272
q0 -90 -51 -143t-135 -53q-85 0 -136 53t-51 143v338h118v-325q0 -47 19 -72q18 -26 50 -26t50 26q18 25 18 72v325h24q40 0 67 30t22 72h99z" />
    <glyph glyph-name="uni1EF0" unicode="&#x1ef0;" horiz-adv-x="546" 
d="M590 792q3 -54 -25 -98.5t-73 -71.5v-388q0 -72 -27 -128t-77 -86t-115 -30t-114 30q-50 30 -77 86t-27 128v456h123v-455q0 -62 26 -97t69 -35q45 0 71 35t26 97v455h32q40 0 67 30t22 72h99zM272 -78q32 0 54 -22q21 -21 21 -56t-20 -57q-21 -22 -55 -22q-31 0 -53 22
q-21 21 -21 57q0 34 21 56q20 22 53 22z" />
    <glyph glyph-name="uni1EF1" unicode="&#x1ef1;" horiz-adv-x="481" 
d="M521 628q3 -53 -24 -96.5t-70 -71.5v-272q0 -90 -51 -143t-135 -53q-85 0 -136 53t-51 143v338h118v-325q0 -47 19 -72q18 -26 50 -26t50 26q18 25 18 72v325h24q40 0 67 30t22 72h99zM240 -78q32 0 54 -22q21 -21 21 -56t-20 -57q-21 -22 -55 -22q-31 0 -53 22
q-21 21 -21 57q0 34 21 56q20 22 53 22z" />
    <glyph glyph-name="Ygrave" unicode="&#x1ef2;" horiz-adv-x="510" 
d="M197 776l-98 153h134l79 -153h-115zM193 0v279l-186 411h136l112 -273l112 273h136l-187 -411v-279h-123z" />
    <glyph glyph-name="ygrave" unicode="&#x1ef3;" horiz-adv-x="470" 
d="M177 612l-98 153h134l79 -153h-115zM109 -218q-33 0 -50 7l15 117q11 -4 30 -4q31 0 50 19q19 20 32 67l-178 538h120l116 -378l98 378h120l-159 -557q-28 -100 -76 -145q-48 -42 -118 -42z" />
    <glyph glyph-name="uni1EF4" unicode="&#x1ef4;" horiz-adv-x="510" 
d="M193 0v279l-186 411h136l112 -273l112 273h136l-187 -411v-279h-123zM254 -235q-31 0 -53 22q-21 21 -21 57q0 34 21 56q20 22 53 22q32 0 54 -22q21 -21 21 -56t-20 -57q-21 -22 -55 -22z" />
    <glyph glyph-name="uni1EF5" unicode="&#x1ef5;" horiz-adv-x="470" 
d="M109 -218q-33 0 -50 7l15 117q11 -4 30 -4q31 0 50 19q19 20 32 67l-178 538h120l116 -378l98 378h120l-159 -557q-28 -100 -76 -145q-48 -42 -118 -42zM385 -235q-31 0 -53 22q-21 21 -21 57q0 34 21 56q20 22 53 22q32 0 54 -22q21 -21 21 -56t-20 -57q-21 -22 -55 -22
z" />
    <glyph glyph-name="uni1EF6" unicode="&#x1ef6;" horiz-adv-x="510" 
d="M234 738l-4 72q15 0 26 17q7 12 7 34q0 31 -8 31q-1 0 -4 -5q-8 -15 -6 -40l-80 10q9 102 90 102q47 0 68 -29t21 -73q0 -33 -15 -59q-15 -22 -34 -30l-3 -30h-58zM193 0v279l-186 411h136l112 -273l112 273h136l-187 -411v-279h-123z" />
    <glyph glyph-name="uni1EF7" unicode="&#x1ef7;" horiz-adv-x="470" 
d="M214 574l-4 72q15 0 26 17q7 12 7 34q0 31 -8 31q-1 0 -4 -5q-8 -15 -6 -40l-80 10q9 102 90 102q47 0 68 -29t21 -73q0 -33 -15 -59q-15 -22 -34 -30l-3 -30h-58zM109 -218q-33 0 -50 7l15 117q11 -4 30 -4q31 0 50 19q19 20 32 67l-178 538h120l116 -378l98 378h120
l-159 -557q-28 -100 -76 -145q-48 -42 -118 -42z" />
    <glyph glyph-name="uni1EF8" unicode="&#x1ef8;" horiz-adv-x="510" 
d="M105 766q0 70 27 114q27 43 68 43q19 0 34 -9q20 -14 32 -26q12 -10 19 -14q8 -7 16 -7q25 0 25 56h79q0 -70 -27 -113q-27 -44 -68 -44q-20 0 -34 10q-18 11 -32 25l-18 15q-11 6 -17 6q-11 0 -19 -14q-7 -14 -7 -42h-78zM193 0v279l-186 411h136l112 -273l112 273h136
l-187 -411v-279h-123z" />
    <glyph glyph-name="uni1EF9" unicode="&#x1ef9;" horiz-adv-x="470" 
d="M85 602q0 70 27 114q27 43 68 43q19 0 34 -9q20 -14 32 -26q12 -10 19 -14q8 -7 16 -7q25 0 25 56h79q0 -69 -27 -113t-68 -44q-20 0 -34 10q-18 10 -32 25l-18 15q-11 6 -17 6q-11 0 -19 -14q-7 -14 -7 -42h-78zM109 -218q-33 0 -50 7l15 117q11 -4 30 -4q31 0 50 19
q19 20 32 67l-178 538h120l116 -378l98 378h120l-159 -557q-28 -100 -76 -145q-48 -42 -118 -42z" />
    <glyph glyph-name="endash" unicode="&#x2013;" horiz-adv-x="350" 
d="M18 264v81h315v-81h-315z" />
    <glyph glyph-name="emdash" unicode="&#x2014;" horiz-adv-x="700" 
d="M18 264v81h665v-81h-665z" />
    <glyph glyph-name="quoteleft" unicode="&#x2018;" horiz-adv-x="209" 
d="M35 440l63 250h93l-25 -250h-131z" />
    <glyph glyph-name="quoteright" unicode="&#x2019;" horiz-adv-x="191" 
d="M17 440l26 250h130l-63 -250h-93z" />
    <glyph glyph-name="quotesinglbase" unicode="&#x201a;" horiz-adv-x="169" 
d="M-4 -133l26 250h130l-63 -250h-93z" />
    <glyph glyph-name="quotedblleft" unicode="&#x201c;" horiz-adv-x="364" 
d="M17 440l63 250h93l-25 -250h-131zM190 440l63 250h93l-25 -250h-131z" />
    <glyph glyph-name="quotedblright" unicode="&#x201d;" horiz-adv-x="364" 
d="M17 440l26 250h130l-63 -250h-93zM189 440l26 250h130l-63 -250h-93z" />
    <glyph glyph-name="quotedblbase" unicode="&#x201e;" horiz-adv-x="342" 
d="M-4 -133l26 250h130l-63 -250h-93zM168 -133l26 250h130l-63 -250h-93z" />
    <glyph glyph-name="dagger" unicode="&#x2020;" horiz-adv-x="412" 
d="M145 -116v530h-114v102h114v174h120v-173h115v-103h-115v-530h-120z" />
    <glyph glyph-name="daggerdbl" unicode="&#x2021;" horiz-adv-x="412" 
d="M145 -116v206h-114v99h114v229h-114v99h114v173h120v-173h115v-99h-115v-229h115v-99h-115v-206h-120z" />
    <glyph glyph-name="bullet" unicode="&#x2022;" horiz-adv-x="328" 
d="M164 180q-44 0 -71 39t-27 101t27 101t71 39t71 -39t27 -101t-27 -101t-71 -39z" />
    <glyph glyph-name="ellipsis" unicode="&#x2026;" horiz-adv-x="810" 
d="M120 -10q-41 0 -64 26q-25 25 -25 66t25 66q24 25 64 25q39 0 64 -25q24 -26 24 -66t-24 -66q-25 -26 -64 -26zM405 -10q-41 0 -64 26q-25 25 -25 66t25 66q24 25 64 25q39 0 64 -25q24 -26 24 -66t-24 -66q-25 -26 -64 -26zM690 -10q-41 0 -64 26q-25 25 -25 66t25 66
q24 25 64 25q39 0 64 -25q24 -26 24 -66t-24 -66q-25 -26 -64 -26z" />
    <glyph glyph-name="perthousand" unicode="&#x2030;" horiz-adv-x="878" 
d="M186 -33l-76 33l312 723l76 -33zM140 360q-56 0 -87 46q-32 47 -32 124t32 124q31 46 87 46t87 -46q32 -47 32 -124t-32 -124q-31 -46 -87 -46zM140 440q17 0 27 25q10 23 10 65t-10 66q-11 24 -27 24t-27 -24q-10 -24 -10 -66t10 -65q10 -25 27 -25zM467 -10
q-56 0 -87 46q-32 47 -32 124t32 124q31 46 87 46t87 -46q32 -47 32 -124t-32 -124q-31 -46 -87 -46zM738 -10q-56 0 -87 46q-32 47 -32 124t32 124q31 46 87 46t87 -46q32 -47 32 -124t-32 -124q-31 -46 -87 -46zM468 70q17 0 27 25q9 24 9 65q0 40 -9 66q-11 24 -27 24
t-27 -24q-11 -27 -11 -66q0 -40 11 -65q10 -25 27 -25zM738 70q17 0 27 25q9 24 9 65q0 40 -9 66q-11 24 -27 24t-27 -24q-11 -27 -11 -66q0 -40 11 -65q10 -25 27 -25z" />
    <glyph glyph-name="guilsinglleft" unicode="&#x2039;" horiz-adv-x="332" 
d="M143 108l-112 197l112 197h150l-112 -197l112 -197h-150z" />
    <glyph glyph-name="guilsinglright" unicode="&#x203a;" horiz-adv-x="332" 
d="M38 108l112 197l-112 197h150l112 -197l-112 -197h-150z" />
    <glyph glyph-name="fraction" unicode="&#x2044;" horiz-adv-x="206" 
d="M-15 -33l-76 33l312 723l76 -33z" />
    <glyph glyph-name="uni2070" unicode="&#x2070;" horiz-adv-x="265" 
d="M132 444q-48 0 -73 34t-25 100v122q0 65 26 100q25 34 72 34q49 0 74 -34t25 -100v-122q0 -66 -25 -100t-74 -34zM132 509q30 0 30 65v129q0 66 -30 66q-15 0 -22 -16q-7 -15 -7 -50v-129q0 -34 7 -49q7 -16 22 -16z" />
    <glyph glyph-name="uni2074" unicode="&#x2074;" horiz-adv-x="265" 
d="M145 449v91h-121v77l112 211h78v-223h27v-65h-27v-91h-69zM76 605h69v132z" />
    <glyph glyph-name="uni2075" unicode="&#x2075;" horiz-adv-x="265" 
d="M121 444q-36 0 -55 19q-20 19 -32 55l60 21q4 -14 11 -23q4 -7 16 -7q33 0 33 61q0 33 -10 50q-10 18 -28 18q-17 0 -32 -19l-40 9l14 200h153v-64h-89l-4 -61q48 0 77 -35q28 -34 28 -91t-26 -95q-27 -38 -76 -38z" />
    <glyph glyph-name="uni2076" unicode="&#x2076;" horiz-adv-x="265" 
d="M132 444q-46 0 -72 38q-27 38 -27 95q0 39 12 73q11 34 42 96l42 82h76l-67 -126q44 -3 69 -39q25 -35 25 -89q0 -56 -27 -93t-73 -37zM131 508q28 0 28 66q0 63 -28 63q-13 0 -19 -17q-7 -15 -7 -44q0 -31 7 -49q6 -19 19 -19z" />
    <glyph glyph-name="uni2077" unicode="&#x2077;" horiz-adv-x="265" 
d="M29 449l118 314h-106v65h178v-70l-116 -309h-74z" />
    <glyph glyph-name="uni2078" unicode="&#x2078;" horiz-adv-x="266" 
d="M133 444q-47 0 -71 30q-25 29 -25 82q0 32 10 55q11 25 28 38q-28 28 -28 81q0 49 22 77q22 27 64 27q41 0 64 -27q22 -28 22 -77q0 -53 -28 -81q17 -13 28 -38q10 -23 10 -55q0 -52 -24 -82q-25 -30 -72 -30zM133 679q20 0 20 45q0 46 -20 46t-20 -46q0 -45 20 -45z
M132 508q24 0 24 54q0 53 -24 53q-14 0 -18 -13q-5 -15 -5 -40t5 -40q5 -14 18 -14z" />
    <glyph glyph-name="uni2079" unicode="&#x2079;" horiz-adv-x="265" 
d="M60 449l67 126q-44 3 -69 40q-25 35 -25 89q0 56 27 93q27 36 74 36q45 0 72 -37q26 -38 26 -95q0 -38 -11 -74q-13 -38 -43 -96l-42 -82h-76zM133 640q26 0 26 62q0 30 -6 49q-7 18 -20 18t-21 -18q-7 -17 -7 -47q0 -31 7 -46q8 -18 21 -18z" />
    <glyph glyph-name="uni207A" unicode="&#x207a;" horiz-adv-x="265" 
d="M91 516v83h-50v81h50v82h82v-82h50v-81h-50v-83h-82z" />
    <glyph glyph-name="uni207B" unicode="&#x207b;" horiz-adv-x="265" 
d="M41 599v81h182v-81h-182z" />
    <glyph glyph-name="uni207C" unicode="&#x207c;" horiz-adv-x="265" 
d="M41 659v75h182v-75h-182zM41 543v76h182v-76h-182z" />
    <glyph glyph-name="uni207D" unicode="&#x207d;" horiz-adv-x="236" 
d="M116 355q-74 109 -74 266q0 158 74 267h98q-77 -107 -77 -267q0 -159 77 -266h-98z" />
    <glyph glyph-name="uni207E" unicode="&#x207e;" horiz-adv-x="236" 
d="M22 354q77 109 77 267q0 157 -77 266h97q75 -107 75 -266q0 -161 -75 -267h-97z" />
    <glyph glyph-name="uni2080" unicode="&#x2080;" horiz-adv-x="265" 
d="M132 -144q-48 0 -73 34t-25 100v122q0 65 26 100q25 34 72 34q49 0 74 -34t25 -100v-122q0 -66 -25 -100t-74 -34zM132 -79q30 0 30 65v129q0 66 -30 66q-15 0 -22 -16q-7 -15 -7 -50v-129q0 -34 7 -49q7 -16 22 -16z" />
    <glyph glyph-name="uni2081" unicode="&#x2081;" horiz-adv-x="264" 
d="M44 -139v65h50v218l-50 -24v69l120 57v-320h56v-65h-176z" />
    <glyph glyph-name="uni2082" unicode="&#x2082;" horiz-adv-x="265" 
d="M33 -139v16q0 50 18 82q20 36 52 70q30 32 41 50q13 20 13 51q0 53 -29 53q-13 0 -20 -13q-8 -14 -12 -45l-69 11q9 56 33 84t68 28q48 0 74 -32t26 -86q0 -52 -19 -83q-20 -33 -55 -66q-17 -17 -29 -31q-9 -9 -16 -25h124v-64h-200z" />
    <glyph glyph-name="uni2083" unicode="&#x2083;" horiz-adv-x="265" 
d="M123 -145q-71 0 -91 83l64 18q3 -18 9 -27q6 -8 18 -8q15 0 21 13t6 40q0 35 -11 52t-35 17q-8 0 -15 -3v59l45 76h-90v65h165v-69l-44 -73q29 -14 42 -44q14 -33 14 -75q0 -57 -25 -91q-26 -33 -73 -33z" />
    <glyph glyph-name="uni2084" unicode="&#x2084;" horiz-adv-x="265" 
d="M145 -139v91h-121v77l112 211h78v-223h27v-65h-27v-91h-69zM76 17h69v132z" />
    <glyph glyph-name="uni2085" unicode="&#x2085;" horiz-adv-x="265" 
d="M121 -144q-35 0 -55 18q-21 21 -32 56l60 21q4 -14 11 -23q4 -7 16 -7q33 0 33 61q0 33 -10 50q-10 18 -28 18q-17 0 -32 -19l-40 9l14 200h153v-64h-89l-4 -61q48 0 77 -35q28 -34 28 -91t-26 -95q-27 -38 -76 -38z" />
    <glyph glyph-name="uni2086" unicode="&#x2086;" horiz-adv-x="265" 
d="M132 -144q-47 0 -72 37q-27 37 -27 96q0 39 12 73q11 34 42 96l42 82h76l-67 -126q44 -3 69 -39q25 -35 25 -89q0 -56 -27 -93t-73 -37zM131 -80q28 0 28 66q0 63 -28 63q-13 0 -19 -17q-7 -15 -7 -44q0 -31 7 -49q6 -19 19 -19z" />
    <glyph glyph-name="uni2087" unicode="&#x2087;" horiz-adv-x="265" 
d="M29 -139l118 314h-106v65h178v-70l-116 -309h-74z" />
    <glyph glyph-name="uni2088" unicode="&#x2088;" horiz-adv-x="266" 
d="M133 -144q-47 0 -71 30q-25 29 -25 82q0 32 10 55q11 25 28 38q-28 28 -28 81q0 49 22 77q23 27 64 27t64 -27q22 -28 22 -77q0 -53 -28 -81q17 -13 28 -38q10 -23 10 -55q0 -52 -24 -82q-25 -30 -72 -30zM133 91q20 0 20 45q0 46 -20 46t-20 -46q0 -45 20 -45zM132 -80
q24 0 24 54q0 53 -24 53q-14 0 -18 -13q-5 -15 -5 -40q0 -26 5 -41q4 -13 18 -13z" />
    <glyph glyph-name="uni2089" unicode="&#x2089;" horiz-adv-x="265" 
d="M60 -139l67 126q-44 3 -69 40q-25 35 -25 89q0 56 27 93q27 36 74 36q45 0 72 -37q26 -38 26 -95q0 -38 -11 -74q-13 -38 -43 -96l-42 -82h-76zM133 52q26 0 26 62q0 30 -6 49q-7 18 -20 18t-21 -18q-7 -17 -7 -47q0 -31 7 -46q8 -18 21 -18z" />
    <glyph glyph-name="uni208A" unicode="&#x208a;" horiz-adv-x="265" 
d="M91 -74v83h-50v81h50v82h82v-82h50v-81h-50v-83h-82z" />
    <glyph glyph-name="uni208B" unicode="&#x208b;" horiz-adv-x="265" 
d="M41 9v81h182v-81h-182z" />
    <glyph glyph-name="uni208C" unicode="&#x208c;" horiz-adv-x="265" 
d="M41 69v75h182v-75h-182zM41 -47v76h182v-76h-182z" />
    <glyph glyph-name="uni208D" unicode="&#x208d;" horiz-adv-x="236" 
d="M116 -235q-74 109 -74 266q0 158 74 267h98q-77 -107 -77 -267q0 -159 77 -266h-98z" />
    <glyph glyph-name="uni208E" unicode="&#x208e;" horiz-adv-x="236" 
d="M22 -235q77 109 77 266q0 158 -77 267h97q75 -106 75 -267q0 -159 -75 -266h-97z" />
    <glyph glyph-name="Euro" unicode="&#x20ac;" horiz-adv-x="400" 
d="M291 -11q-100 0 -165 62q-64 61 -85 175h-32v89h23q-1 7 -1 30v26h-22v88h32q21 114 87 179q66 63 170 63q58 0 96 -22l-44 -110q-23 14 -53 14q-51 0 -83 -32q-33 -31 -48 -92h163l-18 -88h-156q-1 -5 -1 -26q0 -23 1 -30h150l-18 -89h-121q30 -119 124 -119q39 0 71 17
l33 -113q-43 -22 -103 -22z" />
    <glyph glyph-name="uni20B9" unicode="&#x20b9;" horiz-adv-x="400" 
d="M172 0l-119 255l43 93h6q36 0 61 23q24 24 31 66h-161v89h158q-9 35 -32 56q-23 20 -57 20h-69v88h333v-88h-86q24 -34 34 -76h52v-89h-47q-5 -72 -34 -121q-31 -49 -81 -67l117 -249h-149z" />
    <glyph glyph-name="uni20BA" unicode="&#x20ba;" horiz-adv-x="400" 
d="M55 0v229l-46 -33v97l46 34v64l-46 -34v97l46 34v202h123v-112l66 49v-97l-66 -49v-64l66 49v-99l-66 -48v-203h2q40 0 61 40q22 42 35 124l120 -20q-24 -137 -73 -198q-50 -62 -147 -62h-121z" />
    <glyph glyph-name="uni2113" unicode="&#x2113;" horiz-adv-x="420" 
d="M240 -16q-50 0 -81 33q-31 31 -46 106l-17 -8l-41 88q31 17 43 25q-5 80 -5 151q0 139 13 220q12 82 44 125q32 42 87 42q59 0 90 -57q32 -59 32 -151q0 -123 -38 -217q-37 -92 -118 -159q6 -51 17 -75q10 -22 27 -22q14 0 25 11q13 13 22 34l70 -45q-26 -53 -54 -77
t-70 -24zM196 323q60 89 60 235q0 52 -5 82q-6 26 -19 26q-36 0 -36 -287v-56z" />
    <glyph glyph-name="uni2117" unicode="&#x2117;" horiz-adv-x="785" 
d="M392 -10q-104 0 -183 46q-81 45 -126 126q-46 79 -46 183t46 184q45 79 126 126q79 45 183 45q103 0 184 -45q80 -47 126 -126q45 -81 45 -184t-45 -183q-46 -81 -126 -126q-80 -46 -184 -46zM392 69q80 0 143 36q62 35 98 98q35 62 35 142q0 79 -35 143q-36 62 -98 98
q-64 35 -143 35q-80 0 -142 -35q-63 -36 -98 -98q-36 -63 -36 -143q0 -81 36 -142q35 -63 98 -98q62 -36 142 -36zM239 138v414h180q80 0 125 -42q45 -44 45 -117q0 -74 -45 -116q-44 -43 -125 -43h-66v-96h-114zM353 342h61q28 0 45 14q16 13 16 37q0 25 -16 38t-45 13h-61
v-102z" />
    <glyph glyph-name="trademark" unicode="&#x2122;" horiz-adv-x="744" 
d="M121 311v295h-96v84h277v-84h-95v-295h-86zM336 311v379h129l50 -216l50 216h129v-379h-85v261l-61 -261h-66l-61 261v-261h-85z" />
    <glyph glyph-name="uni2126" unicode="&#x2126;" horiz-adv-x="553" 
d="M47 0v116h77q-36 54 -58 123q-23 72 -23 143q0 153 61 235q60 82 172 82t173 -82q60 -83 60 -235q0 -70 -23 -144q-22 -70 -58 -122h79v-116h-205v116q40 54 63 123q22 66 22 143q0 97 -29 150q-30 51 -82 51q-50 0 -80 -51q-30 -52 -30 -150q0 -78 22 -144
q24 -71 62 -122v-116h-203z" />
    <glyph glyph-name="estimated" unicode="&#x212e;" horiz-adv-x="834" 
d="M418 -12q-110 0 -195 44q-84 43 -131 120q-46 76 -46 174q0 96 45 174t130 123q85 44 197 44q113 0 198 -47q84 -48 128 -128t44 -175h-592q-6 0 -9 -3q-4 -4 -4 -9v-161q0 -15 3 -24q3 -10 12 -19q89 -88 220 -88q68 0 131 29q60 28 100 77h67q-40 -55 -114 -92
q-76 -39 -184 -39zM196 339h441q13 0 13 11v162q0 14 -3 23q-4 9 -12 16q-91 91 -217 91q-129 0 -220 -91q-8 -7 -12 -16q-3 -9 -3 -23v-162q0 -11 13 -11z" />
    <glyph glyph-name="partialdiff" unicode="&#x2202;" horiz-adv-x="438" 
d="M190 -8q-78 0 -118 60q-41 59 -41 159q0 81 22 141q22 64 61 97q41 35 92 35q44 0 78 -33q-3 74 -26 115q-22 40 -65 40q-45 0 -90 -45l-56 83q26 26 67 44q36 16 81 16q123 0 166 -97q42 -98 42 -256q0 -178 -54 -268q-55 -91 -159 -91zM203 103q33 0 53 45
q18 44 18 112q0 60 -13 87q-14 29 -42 29q-35 0 -52 -41q-17 -43 -17 -113q0 -119 53 -119z" />
    <glyph glyph-name="uni2206" unicode="&#x2206;" horiz-adv-x="537" 
d="M7 0l184 690h154l186 -690h-524zM165 113h207l-103 395z" />
    <glyph glyph-name="product" unicode="&#x220f;" horiz-adv-x="566" 
d="M63 -210v900h441v-900h-122v784h-196v-784h-123z" />
    <glyph glyph-name="summation" unicode="&#x2211;" horiz-adv-x="361" 
d="M24 -210v105l118 344l-118 346v105h313v-105h-192l118 -346l-118 -344h192v-105h-313z" />
    <glyph glyph-name="minus" unicode="&#x2212;" horiz-adv-x="400" 
d="M46 261v93h307v-93h-307z" />
    <glyph glyph-name="uni2215" unicode="&#x2215;" horiz-adv-x="343" 
d="M20 -86l202 809h87l-202 -809h-87z" />
    <glyph glyph-name="uni2219" unicode="&#x2219;" horiz-adv-x="540" 
d="M255 227q-40 0 -64 26q-25 25 -25 66t25 66q24 25 64 25q39 0 64 -25q24 -25 24 -66t-24 -66q-26 -26 -64 -26z" />
    <glyph glyph-name="radical" unicode="&#x221a;" horiz-adv-x="465" 
d="M133 -116l-59 381h-57v95h136l60 -375h1l135 705h102l-161 -806h-157z" />
    <glyph glyph-name="infinity" unicode="&#x221e;" horiz-adv-x="561" 
d="M145 124q-61 0 -96 50q-36 50 -36 133t36 133q35 50 96 50q44 0 76 -29q31 -29 60 -83q26 51 59 82q32 30 76 30q60 0 96 -50t36 -133t-36 -133t-96 -50q-44 0 -76 30q-33 31 -59 82q-31 -56 -59 -82q-32 -30 -77 -30zM155 215q20 0 37 24q14 18 35 68q-21 49 -35 69
q-17 23 -37 23q-25 0 -38 -25q-14 -26 -14 -67t14 -67q13 -25 38 -25zM405 215q26 0 39 25q14 26 14 67t-14 67q-13 25 -39 25q-19 0 -36 -23q-14 -20 -35 -69q21 -50 35 -68q17 -24 36 -24z" />
    <glyph glyph-name="integral" unicode="&#x222b;" horiz-adv-x="256" 
d="M60 -186q-38 0 -56 7v80q10 -2 16 -2q26 0 39 19q12 19 12 61v567q0 76 32 114t94 38q32 0 56 -8v-80q-10 2 -16 2q-26 0 -38 -18q-13 -19 -13 -61v-568q0 -76 -32 -114q-31 -37 -94 -37z" />
    <glyph glyph-name="approxequal" unicode="&#x2248;" horiz-adv-x="400" 
d="M257 322q-23 0 -37 13q-16 12 -36 36q-13 17 -22 25q-8 7 -18 7q-14 0 -22 -18q-8 -21 -8 -50h-68q0 68 27 110q25 42 69 42q24 0 40 -13q13 -11 35 -36q9 -11 22 -24q7 -7 17 -7q14 0 21 19q8 19 8 49h68q0 -68 -26 -111q-26 -42 -70 -42zM257 127q-23 0 -37 13
q-16 12 -36 36q-13 17 -22 25q-8 7 -18 7q-14 0 -22 -18q-8 -21 -8 -50h-68q0 69 27 111q25 42 69 42q24 0 40 -13q19 -15 35 -37q9 -11 22 -24q7 -7 17 -7q14 0 21 19q8 19 8 49h68q0 -67 -26 -110q-25 -43 -70 -43z" />
    <glyph glyph-name="notequal" unicode="&#x2260;" horiz-adv-x="400" 
d="M127 56l-65 25l38 95h-54v88h89l34 86h-123v88h158l48 121l64 -25l-38 -96h75v-88h-110l-34 -86h144v-88h-179z" />
    <glyph glyph-name="lessequal" unicode="&#x2264;" horiz-adv-x="400" 
d="M353 129l-307 156v102l307 156v-105l-198 -101v-1l198 -102v-105zM46 0v82h307v-82h-307z" />
    <glyph glyph-name="greaterequal" unicode="&#x2265;" horiz-adv-x="400" 
d="M46 129v105l198 102v1l-198 101v105l307 -156v-102zM46 0v82h307v-82h-307z" />
    <glyph glyph-name="lozenge" unicode="&#x25ca;" horiz-adv-x="496" 
d="M156 -210l-142 450l142 450h183l142 -450l-142 -450h-183zM248 -113l107 353l-107 353l-108 -353z" />
    <glyph glyph-name="uniF8FF" unicode="&#xf8ff;" horiz-adv-x="372" 
d="M0 0v760h372v-760h-372zM83 81h206v598h-206v-598z" />
    <glyph glyph-name="ff" unicode="&#xfb00;" horiz-adv-x="600" 
 />
    <glyph glyph-name="ffi" unicode="&#xfb03;" horiz-adv-x="600" 
 />
    <glyph glyph-name="ffl" unicode="&#xfb04;" horiz-adv-x="600" 
 />
    <glyph glyph-name="uniFEFF" unicode="&#xfeff;" 
 />
    <glyph glyph-name="a.salt" horiz-adv-x="427" 
d="M156 -12q-62 0 -94 47q-33 47 -33 121q0 78 38 122t98 44q26 0 51 -11q23 -10 39 -31v44q0 46 -20 75q-19 27 -58 27q-21 0 -41 -9q-22 -11 -37 -29l-63 81q55 67 147 67q91 0 140 -55q50 -56 50 -151v-330h-106l-6 37q-20 -24 -46 -36q-26 -13 -59 -13zM200 88
q25 0 40 20t15 53t-15 53q-15 19 -40 19q-24 0 -37 -19q-14 -20 -14 -53t14 -53t37 -20z" />
    <glyph glyph-name="aacute.aalt" horiz-adv-x="427" 
d="M117 612l79 153h134l-98 -153h-115zM156 -12q-62 0 -94 47q-33 47 -33 121q0 78 38 122t98 44q26 0 51 -11q23 -10 39 -31v44q0 46 -20 75q-19 27 -58 27q-21 0 -41 -9q-22 -11 -37 -29l-63 81q55 67 147 67q91 0 140 -55q50 -56 50 -151v-330h-106l-6 37
q-20 -24 -46 -36q-26 -13 -59 -13zM200 88q25 0 40 20t15 53t-15 53q-15 19 -40 19q-24 0 -37 -19q-14 -20 -14 -53t14 -53t37 -20z" />
    <glyph glyph-name="abreve.aalt" horiz-adv-x="427" 
d="M203 605q-57 0 -88 45q-32 44 -32 115h83q0 -68 37 -68q38 0 38 68h82q0 -73 -31 -116q-32 -44 -89 -44zM156 -12q-62 0 -94 47q-33 47 -33 121q0 78 38 122t98 44q26 0 51 -11q23 -10 39 -31v44q0 46 -20 75q-19 27 -58 27q-21 0 -41 -9q-22 -11 -37 -29l-63 81
q55 67 147 67q91 0 140 -55q50 -56 50 -151v-330h-106l-6 37q-20 -24 -46 -36q-26 -13 -59 -13zM200 88q25 0 40 20t15 53t-15 53q-15 19 -40 19q-24 0 -37 -19q-14 -20 -14 -53t14 -53t37 -20z" />
    <glyph glyph-name="acircumflex.aalt" horiz-adv-x="427" 
d="M51 612l79 153h144l79 -153h-110l-41 79l-41 -79h-110zM156 -12q-62 0 -94 47q-33 47 -33 121q0 78 38 122t98 44q26 0 51 -11q23 -10 39 -31v44q0 46 -20 75q-19 27 -58 27q-21 0 -41 -9q-22 -11 -37 -29l-63 81q55 67 147 67q91 0 140 -55q50 -56 50 -151v-330h-106
l-6 37q-20 -24 -46 -36q-26 -13 -59 -13zM200 88q25 0 40 20t15 53t-15 53q-15 19 -40 19q-24 0 -37 -19q-14 -20 -14 -53t14 -53t37 -20z" />
    <glyph glyph-name="adieresis.aalt" horiz-adv-x="427" 
d="M104 616q-30 0 -50 21q-20 20 -20 53q0 31 20 53q20 20 50 20q31 0 51 -20q19 -20 19 -53q0 -34 -19 -53q-19 -21 -51 -21zM302 616q-30 0 -50 21q-20 20 -20 53q0 31 20 53q20 20 50 20q31 0 51 -20q19 -20 19 -53q0 -34 -19 -53q-19 -21 -51 -21zM156 -12q-62 0 -94 47
q-33 47 -33 121q0 78 38 122t98 44q26 0 51 -11q23 -10 39 -31v44q0 46 -20 75q-19 27 -58 27q-21 0 -41 -9q-22 -11 -37 -29l-63 81q55 67 147 67q91 0 140 -55q50 -56 50 -151v-330h-106l-6 37q-20 -24 -46 -36q-26 -13 -59 -13zM200 88q25 0 40 20t15 53t-15 53
q-15 19 -40 19q-24 0 -37 -19q-14 -20 -14 -53t14 -53t37 -20z" />
    <glyph glyph-name="agrave.aalt" horiz-adv-x="427" 
d="M173 612l-98 153h134l79 -153h-115zM156 -12q-62 0 -94 47q-33 47 -33 121q0 78 38 122t98 44q26 0 51 -11q23 -10 39 -31v44q0 46 -20 75q-19 27 -58 27q-21 0 -41 -9q-22 -11 -37 -29l-63 81q55 67 147 67q91 0 140 -55q50 -56 50 -151v-330h-106l-6 37
q-20 -24 -46 -36q-26 -13 -59 -13zM200 88q25 0 40 20t15 53t-15 53q-15 19 -40 19q-24 0 -37 -19q-14 -20 -14 -53t14 -53t37 -20z" />
    <glyph glyph-name="amacron.aalt" horiz-adv-x="427" 
d="M89 636v99h227v-99h-227zM156 -12q-62 0 -94 47q-33 47 -33 121q0 78 38 122t98 44q26 0 51 -11q23 -10 39 -31v44q0 46 -20 75q-19 27 -58 27q-21 0 -41 -9q-22 -11 -37 -29l-63 81q55 67 147 67q91 0 140 -55q50 -56 50 -151v-330h-106l-6 37q-20 -24 -46 -36
q-26 -13 -59 -13zM200 88q25 0 40 20t15 53t-15 53q-15 19 -40 19q-24 0 -37 -19q-14 -20 -14 -53t14 -53t37 -20z" />
    <glyph glyph-name="aogonek.aalt" horiz-adv-x="427" 
d="M305 -217q-44 0 -70 23q-25 24 -25 69q0 33 13 60q15 32 44 65l-6 37q-20 -24 -46 -36q-26 -13 -59 -13q-62 0 -94 47q-33 47 -33 121q0 78 38 122t98 44q26 0 51 -11q23 -10 39 -31v44q0 46 -20 75q-19 27 -58 27q-21 0 -41 -9q-22 -11 -37 -29l-63 81q55 67 147 67
q91 0 140 -55q50 -56 50 -151v-330q-20 -29 -28 -53q-8 -21 -8 -42q0 -32 20 -32q9 0 15 3v-81q-27 -12 -67 -12zM200 88q25 0 40 20t15 53t-15 53q-15 19 -40 19q-24 0 -37 -19q-14 -20 -14 -53t14 -53t37 -20z" />
    <glyph glyph-name="aring.aalt" horiz-adv-x="427" 
d="M203 566q-48 0 -81 34q-33 33 -33 80t33 80t81 33q45 0 80 -33q33 -33 33 -80t-33 -80q-33 -34 -80 -34zM202 628q22 0 38 15q15 15 15 37q0 20 -15 37q-16 15 -38 15t-37 -15q-15 -17 -15 -37q0 -22 15 -37t37 -15zM156 -12q-62 0 -94 47q-33 47 -33 121q0 78 38 122
t98 44q26 0 51 -11q23 -10 39 -31v44q0 46 -20 75q-19 27 -58 27q-21 0 -41 -9q-22 -11 -37 -29l-63 81q55 67 147 67q91 0 140 -55q50 -56 50 -151v-330h-106l-6 37q-20 -24 -46 -36q-26 -13 -59 -13zM200 88q25 0 40 20t15 53t-15 53q-15 19 -40 19q-24 0 -37 -19
q-14 -20 -14 -53t14 -53t37 -20z" />
    <glyph glyph-name="atilde.aalt" horiz-adv-x="427" 
d="M53 602q0 70 27 114q27 43 68 43q19 0 34 -9q20 -14 32 -26q12 -10 19 -14q8 -7 16 -7q25 0 25 56h79q0 -69 -27 -113t-68 -44q-20 0 -34 10q-17 10 -32 25l-18 15q-10 6 -17 6q-11 0 -19 -14q-7 -14 -7 -42h-78zM156 -12q-62 0 -94 47q-33 47 -33 121q0 78 38 122t98 44
q26 0 51 -11q23 -10 39 -31v44q0 46 -20 75q-19 27 -58 27q-21 0 -41 -9q-22 -11 -37 -29l-63 81q55 67 147 67q91 0 140 -55q50 -56 50 -151v-330h-106l-6 37q-20 -24 -46 -36q-26 -13 -59 -13zM200 88q25 0 40 20t15 53t-15 53q-15 19 -40 19q-24 0 -37 -19
q-14 -20 -14 -53t14 -53t37 -20z" />
    <glyph glyph-name="l.aalt" horiz-adv-x="224" 
d="M173 -6q-59 0 -92 35q-34 34 -34 96v635h118v-622q0 -32 28 -32q7 0 10 1l14 -107q-21 -6 -44 -6z" />
    <glyph glyph-name="lacute.aalt" horiz-adv-x="224" 
d="M20 727l79 145h130l-101 -145h-108zM173 -6q-59 0 -92 35q-34 34 -34 96v565h118v-552q0 -32 28 -32q7 0 10 1l14 -107q-21 -6 -44 -6z" />
    <glyph glyph-name="lcaron.aalt" horiz-adv-x="224" 
d="M173 -6q-59 0 -92 35q-34 34 -34 96v635h118v-622q0 -32 28 -32q7 0 10 1l14 -107q-21 -6 -44 -6zM186 587l23 173h120l-52 -173h-91z" />
    <glyph glyph-name="uni013C.aalt" horiz-adv-x="224" 
d="M173 -6q-59 0 -92 35q-34 34 -34 96v635h118v-622q0 -32 28 -32q7 0 10 1l14 -107q-21 -6 -44 -6zM53 -200l23 150h118l-51 -150h-90z" />
    <glyph glyph-name="ldot.aalt" horiz-adv-x="406" 
d="M173 -6q-59 0 -92 35q-34 34 -34 96v635h118v-622q0 -32 28 -32q7 0 10 1l14 -107q-21 -6 -44 -6zM310 247q-40 0 -64 26q-25 25 -25 66t25 66q24 25 64 25q39 0 64 -25q24 -25 24 -66t-24 -66q-26 -26 -64 -26z" />
    <glyph glyph-name="lslash.aalt" horiz-adv-x="224" 
d="M173 -6q-59 0 -92 35q-34 34 -34 96v148l-52 -46v128l52 46v359h118v-273l52 46v-128l-52 -46v-221q0 -32 28 -32q7 0 10 1l14 -107q-21 -6 -44 -6z" />
    <glyph glyph-name="zero.pnum" horiz-adv-x="447" 
d="M223 -10q-85 0 -128 63q-45 61 -45 181v222q0 119 45 182q44 62 128 62q85 0 130 -62q44 -64 44 -182v-222q0 -119 -44 -181q-45 -63 -130 -63zM223 101q29 0 43 32q13 30 13 96v232q0 67 -13 97q-13 31 -43 31q-29 0 -42 -31q-14 -33 -14 -97v-232q0 -63 14 -96
q14 -32 42 -32z" />
    <glyph glyph-name="one.pnum" horiz-adv-x="365" 
d="M43 0v111h93v414l-93 -45v117l211 103v-589h100v-111h-311z" />
    <glyph glyph-name="two.pnum" horiz-adv-x="411" 
d="M37 0v30q0 63 18 112q16 47 42 82q24 33 65 77q38 42 53 61q17 23 32 57q13 30 13 71q0 48 -14 76q-14 26 -42 26q-24 0 -38 -24q-14 -27 -23 -83l-116 19q17 99 58 149q42 50 119 50q85 0 130 -58q45 -59 45 -155q0 -64 -18 -114q-19 -48 -45 -82q-23 -31 -68 -76
q-27 -27 -53 -57q-20 -24 -30 -52h222v-109h-350z" />
    <glyph glyph-name="three.pnum" horiz-adv-x="376" 
d="M176 -11q-126 0 -161 150l108 30q6 -35 18 -51q12 -17 35 -17q28 0 41 27q13 25 13 77q0 130 -85 130q-16 0 -29 -4v98l86 150h-165v111h290v-122l-80 -139q52 -24 77 -79q25 -54 25 -136q0 -103 -44 -164q-45 -61 -129 -61z" />
    <glyph glyph-name="four.pnum" horiz-adv-x="404" 
d="M229 0v171h-218v132l202 387h133v-408h51v-111h-51v-171h-117zM99 282h130v250z" />
    <glyph glyph-name="five.pnum" horiz-adv-x="390" 
d="M175 -10q-62 0 -97 34q-36 33 -57 99l102 36q9 -30 21 -44q11 -14 31 -14q33 0 48 31q14 31 14 86q0 60 -18 95q-19 34 -54 34q-14 0 -28 -8q-15 -10 -29 -28l-68 17l24 362h270v-109h-162l-8 -123h7q87 0 136 -63q49 -64 49 -165q0 -104 -47 -172q-48 -68 -134 -68z" />
    <glyph glyph-name="six.pnum" horiz-adv-x="393" 
d="M197 -10q-53 0 -93 32q-41 32 -60 86q-21 56 -21 123q0 69 21 134q18 59 76 173l76 152h127l-119 -232q78 -3 125 -68q46 -65 46 -164q0 -68 -21 -120q-21 -54 -61 -85t-96 -31zM198 99q28 0 42 35q13 33 13 91q0 56 -13 89q-13 34 -42 34q-25 0 -39 -32q-13 -32 -13 -87
q0 -59 13 -94q13 -36 39 -36z" />
    <glyph glyph-name="seven.pnum" horiz-adv-x="374" 
d="M19 0l213 579h-197v111h318v-119l-210 -571h-124z" />
    <glyph glyph-name="eight.pnum" horiz-adv-x="399" 
d="M199 -10q-83 0 -126 54q-43 53 -43 149q0 57 18 101q18 43 51 70q-23 23 -37 62t-14 85q0 88 39 139q38 50 112 50q75 0 114 -50q38 -52 38 -139q0 -49 -13 -85q-14 -38 -38 -62q33 -27 51 -70q18 -44 18 -101q0 -96 -43 -149q-44 -54 -127 -54zM200 414q40 0 40 89
q0 88 -40 88q-39 0 -39 -88q0 -89 39 -89zM200 99q26 0 37 27q10 26 10 78q0 50 -10 76q-11 26 -37 26q-25 0 -36 -26q-11 -28 -11 -76q0 -50 11 -78q10 -27 36 -27z" />
    <glyph glyph-name="nine.pnum" horiz-adv-x="393" 
d="M71 0l118 232q-79 4 -124 69q-46 64 -46 163q0 67 21 121q21 52 62 84q40 31 95 31t93 -31q39 -31 60 -87t21 -123t-20 -132q-20 -60 -77 -175l-77 -152h-126zM196 342q26 0 40 33q13 32 13 86q0 59 -13 94q-14 36 -40 36q-27 0 -41 -35q-13 -33 -13 -91q0 -57 13 -89
q13 -34 41 -34z" />
    <glyph glyph-name="zero.dnom" horiz-adv-x="265" 
d="M132 -5q-48 0 -73 34t-25 100v122q0 65 26 100q25 34 72 34q49 0 74 -34t25 -100v-122q0 -66 -25 -100t-74 -34zM132 60q30 0 30 65v129q0 66 -30 66q-15 0 -22 -16q-7 -15 -7 -50v-129q0 -34 7 -49q7 -16 22 -16z" />
    <glyph glyph-name="one.dnom" horiz-adv-x="264" 
d="M44 0v65h50v218l-50 -24v69l120 57v-320h56v-65h-176z" />
    <glyph glyph-name="two.dnom" horiz-adv-x="265" 
d="M33 0v16q0 52 18 83q19 33 52 69q30 32 41 50q13 20 13 51q0 53 -29 53q-13 0 -20 -13q-8 -13 -12 -45l-69 11q9 55 33 84q24 28 68 28q48 0 74 -32t26 -86q0 -52 -19 -83q-20 -33 -55 -66q-17 -17 -29 -31q-9 -9 -16 -25h124v-64h-200z" />
    <glyph glyph-name="three.dnom" horiz-adv-x="265" 
d="M123 -6q-71 0 -91 83l64 18q3 -19 9 -26q6 -9 18 -9q15 0 21 13t6 40q0 35 -11 52t-35 17q-8 0 -15 -3v59l45 76h-90v65h165v-69l-44 -73q29 -14 42 -44q14 -33 14 -75q0 -58 -25 -90q-25 -34 -73 -34z" />
    <glyph glyph-name="four.dnom" horiz-adv-x="265" 
d="M145 0v91h-121v77l112 211h78v-223h27v-65h-27v-91h-69zM76 156h69v132z" />
    <glyph glyph-name="five.dnom" horiz-adv-x="265" 
d="M121 -5q-36 0 -55 19q-20 19 -32 55l60 21q4 -14 11 -23q4 -7 16 -7q33 0 33 61q0 33 -10 50q-10 18 -28 18q-17 0 -32 -19l-40 9l14 200h153v-64h-89l-4 -61q48 0 77 -35q28 -34 28 -91t-26 -95q-27 -38 -76 -38z" />
    <glyph glyph-name="six.dnom" horiz-adv-x="265" 
d="M132 -5q-46 0 -72 38q-27 37 -27 95q0 39 12 73q11 35 42 96l42 82h76l-67 -126q44 -3 69 -39q25 -35 25 -89q0 -55 -27 -93q-27 -37 -73 -37zM131 59q28 0 28 66q0 63 -28 63q-13 0 -19 -17q-7 -15 -7 -44q0 -31 7 -49q6 -19 19 -19z" />
    <glyph glyph-name="seven.dnom" horiz-adv-x="265" 
d="M29 0l118 314h-106v65h178v-70l-116 -309h-74z" />
    <glyph glyph-name="eight.dnom" horiz-adv-x="266" 
d="M133 -5q-47 0 -71 30q-25 29 -25 82q0 32 10 55q11 25 28 38q-28 28 -28 81q0 49 22 77q23 27 64 27t64 -27q22 -28 22 -77q0 -53 -28 -81q17 -13 28 -38q10 -23 10 -55q0 -52 -24 -82q-25 -30 -72 -30zM133 230q20 0 20 45q0 46 -20 46t-20 -46q0 -45 20 -45zM132 59
q24 0 24 54q0 53 -24 53q-14 0 -18 -13q-5 -15 -5 -40t5 -40q5 -14 18 -14z" />
    <glyph glyph-name="nine.dnom" horiz-adv-x="265" 
d="M60 0l67 126q-44 3 -69 40q-25 35 -25 89q0 55 27 93q27 36 74 36q45 0 72 -37q26 -38 26 -95q0 -38 -11 -74q-13 -38 -43 -96l-42 -82h-76zM133 191q26 0 26 62q0 29 -6 49q-7 18 -20 18t-21 -18q-7 -17 -7 -47q0 -31 7 -46q8 -18 21 -18z" />
    <glyph glyph-name="zero.numr" horiz-adv-x="265" 
d="M132 306q-48 0 -73 34t-25 100v122q0 65 26 100q25 34 72 34q49 0 74 -34t25 -100v-122q0 -66 -25 -100t-74 -34zM132 371q30 0 30 65v129q0 66 -30 66q-15 0 -22 -16q-7 -15 -7 -50v-129q0 -34 7 -49q7 -16 22 -16z" />
    <glyph glyph-name="one.numr" horiz-adv-x="264" 
d="M44 311v65h50v218l-50 -24v69l120 57v-320h56v-65h-176z" />
    <glyph glyph-name="two.numr" horiz-adv-x="265" 
d="M33 311v16q0 51 18 83q19 33 52 69q30 32 41 50q13 20 13 51q0 53 -29 53q-13 0 -20 -13q-8 -14 -12 -45l-69 11q9 56 33 84t68 28q48 0 74 -32t26 -86q0 -52 -19 -83q-20 -33 -55 -66q-17 -17 -29 -31q-9 -9 -16 -25h124v-64h-200z" />
    <glyph glyph-name="three.numr" horiz-adv-x="265" 
d="M123 305q-71 0 -91 83l64 18q3 -19 9 -26q6 -9 18 -9q15 0 21 13q6 14 6 40q0 35 -11 52t-35 17q-8 0 -15 -3v59l45 76h-90v65h165v-69l-44 -73q29 -14 42 -44q14 -33 14 -75q0 -58 -25 -90q-25 -34 -73 -34z" />
    <glyph glyph-name="four.numr" horiz-adv-x="265" 
d="M145 311v91h-121v77l112 211h78v-223h27v-65h-27v-91h-69zM76 467h69v132z" />
    <glyph glyph-name="five.numr" horiz-adv-x="265" 
d="M121 306q-36 0 -55 19q-20 19 -32 55l60 21q4 -14 11 -23q4 -7 16 -7q33 0 33 61q0 33 -10 50q-10 18 -28 18q-17 0 -32 -19l-40 9l14 200h153v-64h-89l-4 -61q48 0 77 -35q28 -34 28 -91t-26 -95q-27 -38 -76 -38z" />
    <glyph glyph-name="six.numr" horiz-adv-x="265" 
d="M132 306q-46 0 -72 38q-27 37 -27 95q0 39 12 73q11 34 42 96l42 82h76l-67 -126q44 -3 69 -39q25 -35 25 -89q0 -56 -27 -93t-73 -37zM131 370q28 0 28 66q0 63 -28 63q-13 0 -19 -17q-7 -15 -7 -44q0 -31 7 -49q6 -19 19 -19z" />
    <glyph glyph-name="seven.numr" horiz-adv-x="265" 
d="M29 311l118 314h-106v65h178v-70l-116 -309h-74z" />
    <glyph glyph-name="eight.numr" horiz-adv-x="266" 
d="M133 306q-47 0 -71 30q-25 29 -25 82q0 32 10 55q11 25 28 38q-28 28 -28 81q0 49 22 77q22 27 64 27q41 0 64 -27q22 -28 22 -77q0 -53 -28 -81q17 -13 28 -38q10 -23 10 -55q0 -52 -24 -82q-25 -30 -72 -30zM133 541q20 0 20 45q0 46 -20 46t-20 -46q0 -45 20 -45z
M132 370q24 0 24 54q0 53 -24 53q-14 0 -18 -13q-5 -15 -5 -40t5 -40q5 -14 18 -14z" />
    <glyph glyph-name="nine.numr" horiz-adv-x="265" 
d="M60 311l67 126q-44 3 -69 40q-25 35 -25 89q0 56 27 93q27 36 74 36q45 0 72 -37q26 -38 26 -95q0 -38 -11 -74q-13 -38 -43 -96l-42 -82h-76zM133 502q26 0 26 62q0 30 -6 49q-7 18 -20 18t-21 -18q-7 -17 -7 -47q0 -31 7 -46q8 -18 21 -18z" />
    <glyph glyph-name="glyph481" horiz-adv-x="600" 
 />
    <glyph glyph-name="glyph482" horiz-adv-x="600" 
 />
    <glyph glyph-name="glyph483" horiz-adv-x="600" 
 />
    <glyph glyph-name="uni0308.aalt" 
d="M-298 723q-32 0 -51 21q-19 19 -19 53q0 33 19 53q20 20 51 20q30 0 50 -20q20 -22 20 -53q0 -33 -20 -53q-20 -21 -50 -21zM-100 723q-32 0 -51 21q-19 19 -19 53q0 33 19 53q20 20 51 20q30 0 50 -20q20 -22 20 -53q0 -33 -20 -53q-19 -21 -50 -21z" />
    <glyph glyph-name="uni0307.aalt" 
d="M-106 718q-33 0 -54 22q-20 23 -20 57q0 33 20 56q21 22 54 22t54 -22q21 -23 21 -56q0 -35 -21 -57q-19 -22 -54 -22z" />
    <glyph glyph-name="gravecomb.aalt" 
d="M-139 727l-101 145h130l79 -145h-108z" />
    <glyph glyph-name="acutecomb.aalt" 
d="M-240 727l79 145h130l-101 -145h-108z" />
    <glyph glyph-name="uni030B.aalt" 
d="M-381 727l79 145h122l-101 -145h-100zM-232 727l79 145h122l-101 -145h-100z" />
    <glyph glyph-name="uni0302.aalt" 
d="M-326 727l78 145h141l77 -145h-106l-42 78l-42 -78h-106z" />
    <glyph glyph-name="uni030C.aalt" 
d="M-248 727l-78 145h106l42 -78l42 78h106l-77 -145h-141z" />
    <glyph glyph-name="uni0306.aalt" 
d="M-151 724q-57 0 -89 41q-31 40 -31 107h83q0 -56 37 -56q38 0 38 56h82q0 -67 -31 -107q-30 -41 -89 -41z" />
    <glyph glyph-name="uni030A.aalt" 
d="M-143 668q-47 0 -80 33q-33 31 -33 79q0 46 33 79t80 33q46 0 79 -33t33 -79t-33 -79t-79 -33zM-143 729q21 0 36 15t15 36q0 20 -15 36q-15 15 -36 15q-22 0 -37 -15t-15 -36t15 -36t37 -15z" />
    <glyph glyph-name="tildecomb.aalt" 
d="M-330 722q0 66 27 107q28 40 72 40q18 0 31 -7q17 -10 30 -20q9 -8 19 -14q8 -5 17 -5q25 0 25 46h79q0 -66 -28 -106q-27 -41 -71 -41q-19 0 -32 7t-30 21q-4 4 -9 8q-12 7 -14 8q-8 2 -12 2q-26 0 -26 -46h-78z" />
    <glyph glyph-name="uni0304.aalt" 
d="M-257 747v99h227v-99h-227z" />
    <glyph glyph-name="glyph495" 
d="M-196 602l-74 1q0 64 20 106q21 40 55 40q16 0 26 -7q11 -8 22 -22l6 -6q7 -7 10 -8q4 -3 8 -3q10 0 14 12q6 12 6 34h73q0 -65 -20 -107q-19 -40 -54 -40q-14 0 -27 8q-13 9 -22 21l-7 7q-6 6 -9 8q-6 2 -8 2q-9 0 -14 -12q-5 -13 -5 -34z" />
    <glyph glyph-name="glyph496" 
d="M-208 636v99h178v-99h-178z" />
    <glyph glyph-name="glyph497" 
d="M-103 718q-33 0 -52 22q-20 23 -20 57q0 33 20 56q19 22 52 22t52 -22q20 -23 20 -56q0 -34 -20 -57q-19 -22 -52 -22z" />
    <glyph glyph-name="glyph498" 
d="M-139 737l-101 135h130l79 -135h-108z" />
    <glyph glyph-name="glyph499" 
d="M-240 737l79 135h130l-101 -135h-108z" />
    <glyph glyph-name="acute.aalt" horiz-adv-x="270" 
d="M30 727l79 145h130l-101 -145h-108z" />
    <glyph glyph-name="breve.aalt" horiz-adv-x="301" 
d="M150 724q-57 0 -89 41q-31 40 -31 107h83q0 -56 37 -56q38 0 38 56h82q0 -66 -30 -107q-32 -41 -90 -41z" />
    <glyph glyph-name="caron.aalt" horiz-adv-x="356" 
d="M108 727l-78 145h106l42 -78l42 78h106l-77 -145h-141z" />
    <glyph glyph-name="circumflex.aalt" horiz-adv-x="356" 
d="M30 727l78 145h141l77 -145h-106l-42 78l-42 -78h-106z" />
    <glyph glyph-name="dieresis.aalt" horiz-adv-x="398" 
d="M97 723q-31 0 -50 21q-20 20 -20 53q0 31 20 53q20 20 50 20q31 0 51 -20q19 -20 19 -53q0 -34 -19 -53q-20 -21 -51 -21zM295 723q-31 0 -50 21q-20 20 -20 53q0 31 20 53q20 20 50 20q31 0 51 -20q19 -20 19 -53q0 -34 -19 -53q-20 -21 -51 -21z" />
    <glyph glyph-name="dotaccent.aalt" horiz-adv-x="210" 
d="M104 718q-34 0 -53 22q-21 22 -21 57q0 33 21 56q19 22 53 22q33 0 54 -22q21 -23 21 -56q0 -34 -20 -57q-21 -22 -55 -22z" />
    <glyph glyph-name="grave.aalt" horiz-adv-x="270" 
d="M131 727l-101 145h130l79 -145h-108z" />
    <glyph glyph-name="hungarumlaut.aalt" horiz-adv-x="270" 
d="M30 727l79 145h130l-101 -145h-108z" />
    <glyph glyph-name="macron.aalt" horiz-adv-x="287" 
d="M30 747v99h227v-99h-227z" />
    <glyph glyph-name="ring.aalt" horiz-adv-x="286" 
d="M143 668q-47 0 -80 33q-33 31 -33 79q0 46 33 79t80 33q46 0 79 -33t33 -79q0 -45 -32 -79q-33 -33 -80 -33zM143 729q21 0 36 15t15 36q0 20 -15 36q-15 15 -36 15t-36 -15q-16 -15 -16 -36t15 -36t37 -15z" />
    <glyph glyph-name="tilde.aalt" horiz-adv-x="360" 
d="M30 722q0 67 28 107q27 40 71 40q19 0 32 -7q14 -8 29 -20q7 -6 20 -14q8 -5 16 -5q25 0 25 46h79q0 -65 -27 -106q-29 -41 -72 -41q-19 0 -32 7t-30 21q-4 4 -9 8q-2 1 -6.5 4t-6.5 4q-10 2 -13 2q-26 0 -26 -46h-78z" />
    <glyph glyph-name="uni03060301" 
d="M-501 804l79 153h134l-98 -153h-115zM-450 605q-56 0 -88 45q-32 44 -32 115h83q0 -68 37 -68q38 0 38 68h82q0 -73 -31 -116q-32 -44 -89 -44z" />
    <glyph glyph-name="uni03060300" 
d="M-508 804l-98 153h134l79 -153h-115zM-450 605q-56 0 -88 45q-32 44 -32 115h83q0 -68 37 -68q38 0 38 68h82q0 -73 -31 -116q-32 -44 -89 -44z" />
    <glyph glyph-name="uni03060309" 
d="M-471 766l-4 72q15 0 26 17q7 12 7 34q0 31 -8 31q-1 0 -4 -5q-8 -15 -6 -40l-80 10q9 102 90 102q47 0 68 -29t21 -73q0 -33 -15 -59q-15 -22 -34 -30l-3 -30h-58zM-450 605q-56 0 -88 45q-32 44 -32 115h83q0 -68 37 -68q38 0 38 68h82q0 -73 -31 -116q-32 -44 -89 -44
z" />
    <glyph glyph-name="uni03060303" 
d="M-600 794q0 70 27 114q27 43 68 43q19 0 34 -9q20 -14 32 -26q12 -10 19 -14q8 -7 16 -7q25 0 25 56h79q0 -69 -27 -113t-68 -44q-20 0 -34 10q-18 10 -32 25l-18 15q-11 6 -17 6q-11 0 -19 -14q-7 -14 -7 -42h-78zM-450 605q-56 0 -88 45q-32 44 -32 115h83
q0 -68 37 -68q38 0 38 68h82q0 -73 -31 -116q-32 -44 -89 -44z" />
    <glyph glyph-name="uni03020301" 
d="M-252 711l79 153h134l-98 -153h-115zM-570 612l79 153h144l79 -153h-110l-41 79l-41 -79h-110z" />
    <glyph glyph-name="uni03020300" 
d="M-259 711l-98 153h134l79 -153h-115zM-570 612l79 153h144l79 -153h-110l-41 79l-41 -79h-110z" />
    <glyph glyph-name="uni03020309" 
d="M-265 673l-4 72q15 0 26 17q7 12 7 34q0 31 -8 31q-1 0 -4 -5q-8 -15 -6 -40l-80 10q9 102 90 102q47 0 68 -29t21 -73q0 -34 -15 -59q-15 -22 -34 -30l-3 -30h-58zM-570 612l79 153h144l79 -153h-110l-41 79l-41 -79h-110z" />
    <glyph glyph-name="uni03020303" 
d="M-572 781q0 71 27 114t68 43q19 0 34 -9q20 -14 32 -26q12 -10 19 -14q8 -7 16 -7q25 0 25 56h79q0 -70 -27 -113q-27 -44 -68 -44q-20 0 -34 10q-17 11 -32 25l-18 15q-11 6 -17 6q-11 0 -19 -14q-7 -14 -7 -42h-78zM-570 612l79 153h144l79 -153h-110l-41 79l-41 -79
h-110z" />
    </font>
</defs>
</svg>
